<svg xmlns="http://www.w3.org/2000/svg" width="18.149" height="21.598" viewBox="0 0 18.149 21.598">
  <path id="Path_18599" data-name="Path 18599" d="M15.174,43.413a4.5,4.5,0,0,1,2.411-4.089A5.181,5.181,0,0,0,13.5,37.174c-1.712-.135-3.583,1-4.267,1-.723,0-2.382-.95-3.684-.95C2.859,37.265,0,39.368,0,43.645A12.011,12.011,0,0,0,.694,47.56c.617,1.77,2.845,6.109,5.169,6.037,1.215-.029,2.073-.863,3.655-.863,1.533,0,2.329.863,3.684.863,2.343-.034,4.359-3.978,4.947-5.752a4.78,4.78,0,0,1-2.975-4.431ZM12.445,35.5A4.541,4.541,0,0,0,13.6,32a5.113,5.113,0,0,0-3.274,1.683A4.613,4.613,0,0,0,9.094,37.15,4.05,4.05,0,0,0,12.445,35.5Z" transform="translate(0 -32)" fill="#fff"/>
</svg>
