<?xml version="1.0" encoding="utf-8"?>
<!-- Generator: Adobe Illustrator 16.0.0, SVG Export Plug-In . SVG Version: 6.00 Build 0)  -->
<!DOCTYPE svg PUBLIC "-//W3C//DTD SVG 1.1//EN" "http://www.w3.org/Graphics/SVG/1.1/DTD/svg11.dtd">
<svg version="1.1" id="Layer_1" xmlns="http://www.w3.org/2000/svg" xmlns:xlink="http://www.w3.org/1999/xlink" x="0px" y="0px"
	 width="22px" height="31.705px" viewBox="0 0 22 31.705" enable-background="new 0 0 22 31.705" xml:space="preserve">
<ellipse opacity="0.1" fill="#1E1100" enable-background="new    " cx="10.984" cy="30.664" rx="9.104" ry="1.042"/>
<path fill="#58B7B7" d="M7.792,22c-1.651-0.325-3.237-0.958-4.691-1.824l-2.445,1.279c1.675,1.18,3.55,2.076,5.541,2.594
	c0.51,0.134,1.284,0.132,1.536,0.642l0.849,1.656l1.854,3.67c0.061,0.121,0.279,0.774,0.467,0.627s0.294-0.555,0.397-0.765
	l0.875-1.752l0.974-1.933l0.461-0.907c0.123-0.248,0.248-0.642,0.449-0.826c0.211-0.196,0.639-0.198,0.907-0.254
	c0.306-0.062,0.597-0.147,0.894-0.242l1.855-0.688c1.223-0.521,2.354-1.162,3.442-1.914c0.056-0.038,0.104-0.086,0.157-0.123
	l-2.653-1.108C15.387,22.058,11.521,22.722,7.792,22z"/>
<g>
	<path opacity="0.15" fill="#FFFFFF" enable-background="new    " d="M3.995,20.718l-1.814,1.811l0.978,0.457l1.758-1.86
		L3.995,20.718z"/>
	<path opacity="0.15" fill="#FFFFFF" enable-background="new    " d="M5.689,21.419l-1.333,2.049l0.329,0.117l1.674-1.955
		L5.689,21.419z"/>
	<path opacity="0.15" fill="#FFFFFF" enable-background="new    " d="M17.166,20.918l1.773,1.771l-0.949,0.49l-1.744-1.845
		L17.166,20.918z"/>
	<path opacity="0.15" fill="#FFFFFF" enable-background="new    " d="M9.832,22.231l2.646-0.105l-3.544,4.949l-0.397-0.771
		L9.832,22.231L9.832,22.231z"/>
	<path opacity="0.15" fill="#FFFFFF" enable-background="new    " d="M15.424,21.526l1.404,2.033l-0.354,0.146l-1.608-1.966
		L15.424,21.526z"/>
</g>
<g>
	<g>
		<g>
			<linearGradient id="SVGID_1_" gradientUnits="userSpaceOnUse" x1="18.4082" y1="8.811" x2="19.1729" y2="8.811">
				<stop  offset="0" style="stop-color:#F8AD30"/>
				<stop  offset="0.9995" style="stop-color:#F48B00"/>
			</linearGradient>
			<path fill="url(#SVGID_1_)" d="M18.66,8.497c0,0.12-0.105,0.309-0.252,0.34l0.157,0.288c0,0,0.136-0.229,0.466-0.13h0.142V8.497
				H18.66z"/>
			<linearGradient id="SVGID_2_" gradientUnits="userSpaceOnUse" x1="18.6543" y1="8.4082" x2="20.376" y2="8.4082">
				<stop  offset="0" style="stop-color:#F8AD30"/>
				<stop  offset="0.9995" style="stop-color:#F48B00"/>
			</linearGradient>
			<path fill="url(#SVGID_2_)" d="M20.376,8.447c0.014,0.253-0.345,0.499-0.7,0.589c-0.524,0.132-1.021-0.117-1.021-0.635
				c0-0.502,0.351-0.763,0.861-0.614C19.868,7.89,20.364,8.197,20.376,8.447z"/>
			<linearGradient id="SVGID_3_" gradientUnits="userSpaceOnUse" x1="2.8262" y1="8.811" x2="3.5908" y2="8.811">
				<stop  offset="0" style="stop-color:#F8AD30"/>
				<stop  offset="0.9995" style="stop-color:#F48B00"/>
			</linearGradient>
			<path fill="url(#SVGID_3_)" d="M3.338,8.497c0,0.12,0.106,0.309,0.252,0.34L3.434,9.125c0,0-0.135-0.229-0.466-0.13H2.826V8.497
				H3.338z"/>
			<linearGradient id="SVGID_4_" gradientUnits="userSpaceOnUse" x1="1.6216" y1="8.4082" x2="3.3447" y2="8.4082">
				<stop  offset="0" style="stop-color:#F8AD30"/>
				<stop  offset="0.9995" style="stop-color:#F48B00"/>
			</linearGradient>
			<path fill="url(#SVGID_4_)" d="M1.622,8.447C1.61,8.701,1.967,8.946,2.324,9.036c0.524,0.132,1.021-0.117,1.021-0.635
				c0-0.502-0.35-0.763-0.861-0.614C2.131,7.89,1.635,8.197,1.622,8.447z"/>
		</g>
		<g>
			<path fill="#404040" d="M17.228,18.075c0,0.244,0.197,0.441,0.44,0.441h1.38c0.243,0,0.441-0.197,0.441-0.441v-4.231
				c0-0.243-0.198-0.441-0.441-0.441h-1.38c-0.243,0-0.44,0.198-0.44,0.441V18.075z"/>
			<path fill="#404040" d="M2.51,18.075c0,0.244,0.198,0.441,0.441,0.441h1.379c0.244,0,0.441-0.197,0.441-0.441v-4.231
				c0-0.243-0.198-0.441-0.441-0.441H2.951c-0.244,0-0.441,0.198-0.441,0.441V18.075z"/>
		</g>
		<path fill="#FFAC06" d="M19.33,10.56c-0.095-0.628-0.582-1.336-0.849-1.87c-0.268-0.534-1.252-3.048-1.493-3.487
			c-0.24-0.44-0.753-0.888-1.382-0.982c-0.628-0.094-3.404-0.107-4.605-0.107c-1.205,0-3.98,0.013-4.608,0.107
			C5.764,4.315,5.251,4.763,5.01,5.203C4.769,5.643,3.785,8.156,3.518,8.69c-0.267,0.534-0.754,1.241-0.848,1.87
			s-0.062,4.351,0.094,4.964c0.157,0.613,0.738,0.99,1.194,0.99c0.456,0,7.043,0,7.043,0s6.585,0,7.041,0
			c0.455,0,1.036-0.377,1.193-0.99S19.424,11.188,19.33,10.56z"/>
		<linearGradient id="SVGID_5_" gradientUnits="userSpaceOnUse" x1="10.9995" y1="12.8584" x2="10.9995" y2="14.6845">
			<stop  offset="0" style="stop-color:#F8AD30"/>
			<stop  offset="0.9995" style="stop-color:#F48B00"/>
		</linearGradient>
		<path fill="url(#SVGID_5_)" d="M2.623,13.095c0.017,1.07,0.063,2.127,0.141,2.429c0.157,0.613,0.738,0.99,1.194,0.99
			c0.456,0,7.043,0,7.043,0s6.585,0,7.041,0c0.455,0,1.036-0.377,1.193-0.99c0.077-0.302,0.124-1.359,0.141-2.429H2.623z"/>
		<path fill="none" stroke="#F09400" stroke-width="0.5" stroke-miterlimit="10" d="M17.628,8.01c0,0,0.879,1.331,0.995,1.666
			c0.115,0.335,0.13,0.638-0.2,0.79c-0.329,0.152-2.811,0.77-3.377,0.77c-0.565,0-4.045,0-4.045,0c0,0-3.482,0-4.047,0
			c-0.566,0-3.048-0.618-3.378-0.77c-0.33-0.152-0.314-0.455-0.199-0.79C3.492,9.341,4.371,8.01,4.371,8.01"/>
		<path fill="#404040" d="M18.521,15.4c0.09,0.22-0.021,0.402-0.246,0.402H3.724c-0.227,0-0.336-0.182-0.247-0.402l0.316-0.774
			c0.081-0.197,0.313-0.354,0.521-0.354h13.369c0.209,0,0.441,0.156,0.521,0.354L18.521,15.4z"/>
		<path fill="#404040" d="M14.345,11.864c-0.095-0.283-0.503-0.503-0.911-0.503s-2.433,0-2.433,0s-2.027,0-2.435,0
			c-0.409,0-0.817,0.22-0.911,0.503c-0.094,0.283,0.33,1.446,0.487,1.658c0.157,0.211,0.33,0.264,0.833,0.264s2.027,0,2.027,0
			s1.521,0,2.024,0c0.502,0,0.675-0.053,0.832-0.264S14.438,12.146,14.345,11.864z"/>
		<path fill="#58B7B7" d="M17.821,8.198c-0.078-0.272-0.833-2.194-1.053-2.65S16.25,4.936,16.03,4.936c-0.202,0-9.859,0-10.062,0
			c-0.22,0-0.519,0.157-0.738,0.613c-0.22,0.456-0.974,2.377-1.052,2.65C4.099,8.47,4.225,8.596,4.429,8.596
			c0.19,0,12.951,0,13.141,0C17.774,8.596,17.899,8.47,17.821,8.198z"/>
		<g>
			<path fill="#FFFFFF" d="M15.205,11.361c0,0,0.69,0.864,1.037,0.864c0.345,0,1.68,0,1.995,0c0.313,0,0.393-0.188,0.455-0.361
				s0.095-1.084,0-1.398C18.692,10.465,17.294,11.047,15.205,11.361z"/>
			<path fill="#FFFFFF" d="M6.794,11.361c0,0-0.691,0.864-1.037,0.864s-1.681,0-1.995,0c-0.314,0-0.393-0.188-0.456-0.361
				s-0.094-1.084,0-1.398C3.307,10.465,4.705,11.047,6.794,11.361z"/>
		</g>
	</g>
	<polygon opacity="0.1" fill="#FFFFFF" points="4.772,8.58 8.508,4.936 6.268,4.936 4.092,8.441 	"/>
	<polygon opacity="0.1" fill="#FFFFFF" points="13.515,8.596 14.704,4.944 12.464,4.944 12.325,8.596 	"/>
	<polygon opacity="0.1" fill="#FFFFFF" points="10.193,4.944 7.943,8.596 8.412,8.596 10.38,4.936 	"/>
</g>
</svg>
