<?xml version="1.0" encoding="utf-8"?>
<!-- Generator: Adobe Illustrator 16.0.0, SVG Export Plug-In . SVG Version: 6.00 Build 0)  -->
<!DOCTYPE svg PUBLIC "-//W3C//DTD SVG 1.1//EN" "http://www.w3.org/Graphics/SVG/1.1/DTD/svg11.dtd">
<svg version="1.1" id="Layer_1" xmlns="http://www.w3.org/2000/svg" xmlns:xlink="http://www.w3.org/1999/xlink" x="0px" y="0px"
	 width="22px" height="31.705px" viewBox="0 0 22 31.705" enable-background="new 0 0 22 31.705" xml:space="preserve">
<g opacity="0.5">
	
		<image overflow="visible" enable-background="new    " width="87" height="104" xlink:href="D6D96B46534497A4.png"  transform="matrix(0.7471 0 0 0.7471 -21.3281 -22.314)">
	</image>
</g>
<g>
	<path fill="#F2B41C" d="M6.393,22.799c-0.036-0.258-0.092-0.516-0.103-0.774c-0.026-0.631-0.045-1.262-0.045-1.894
		c-0.003-4.972-0.002-9.945-0.002-14.917c0-0.073,0.005-0.146,0.007-0.22c0.083-0.47,0.48-0.803,0.955-0.803
		c2.5,0,5.002,0.009,7.502-0.007c0.533-0.004,0.91,0.313,1.039,0.8c0.002,0.171,0.004,0.34,0.004,0.51c0,2.356,0,4.714,0,7.071
		c0,2.673-0.006,5.345,0.004,8.019c0.002,0.692-0.031,1.379-0.123,2.067c-0.035,0.271,0.084,0.558,0.131,0.836
		c0.047,0.281,0.09,0.562,0.133,0.845c-0.174,0.037-0.349,0.071-0.521,0.108c0.035-0.34,0.071-0.681,0.108-1.021
		c0.011-0.045,0.023-0.09,0.033-0.137c-0.012,0-0.022-0.002-0.035-0.005c0,0.048,0,0.095,0,0.142
		c-0.022,0.065-0.053,0.132-0.069,0.199c-0.056,0.188-0.103,0.379-0.15,0.569c0.058-0.414,0.107-0.828,0.171-1.242
		c0.096-0.635,0.209-1.268,0.166-1.915c-0.004-0.062-0.01-0.15-0.05-0.179c-0.202-0.137-0.495,0.023-0.497,0.267
		c-0.002,0.418,0,0.836,0,1.254c0.002,0.655,0.008,1.312,0.012,1.965c0.006,0.283,0.014,0.565,0.02,0.849
		c-0.021,0.08-0.045,0.16-0.071,0.24c-0.087,0.264-0.22,0.493-0.452,0.655c0.066-0.181,0.185-0.356,0.189-0.539
		c0.021-0.562,0.004-1.125-0.006-1.688c-0.002-0.037-0.062-0.076-0.096-0.113c0.023-0.082,0.068-0.162,0.068-0.244
		c0.004-4.926,0.003-9.848,0.003-14.771c0-1.318,0-2.638,0.001-3.957c0-0.131-0.009-0.25-0.185-0.247
		c-2.276-0.001-4.554-0.001-6.831,0c-0.071,0-0.141,0.022-0.212,0.035c-0.17-0.043-0.222,0.037-0.22,0.195
		c0.002,1.065,0.002,2.129,0.002,3.193c0,5.265-0.002,10.529-0.002,15.792c-0.01,0.066-0.025,0.13-0.026,0.195
		c-0.006,0.381,0.008,0.764-0.016,1.144c-0.023,0.36,0.032,0.694,0.21,1.01c-0.034-0.021-0.075-0.039-0.104-0.065
		c-0.233-0.232-0.351-0.521-0.39-0.845c-0.005-0.278-0.007-0.559-0.01-0.838c0.003-0.321,0.007-0.646,0.007-0.967
		c0.001-0.752,0.005-1.506-0.004-2.259c-0.002-0.084-0.053-0.219-0.111-0.237c-0.119-0.039-0.26-0.021-0.391-0.015
		c-0.014,0-0.038,0.06-0.038,0.093c0.003,0.313-0.016,0.633,0.021,0.944c0.084,0.703,0.197,1.404,0.297,2.105
		C6.682,23.916,6.64,23.83,6.617,23.74C6.539,23.429,6.466,23.112,6.393,22.799z M6.428,18.604c0,0.467-0.003,0.936,0,1.401
		c0.003,0.44-0.058,0.388,0.386,0.39c0.213,0,0.287-0.07,0.287-0.283c0.001-1.002,0.001-2.004,0-3.006
		c0-0.213-0.072-0.283-0.283-0.289c-0.06,0-0.122,0.006-0.183,0c-0.155-0.021-0.213,0.041-0.21,0.203
		C6.433,17.548,6.428,18.076,6.428,18.604z M6.428,10.89c0,0.54,0.003,1.08-0.002,1.62c-0.001,0.132,0.038,0.197,0.176,0.182
		c0.049-0.006,0.098,0,0.146,0c0.292,0,0.353-0.057,0.353-0.348c0.001-0.923,0.001-1.846,0.001-2.769
		c0-0.454-0.014-0.46-0.475-0.466C6.461,9.106,6.422,9.17,6.425,9.323C6.432,9.845,6.428,10.367,6.428,10.89z M6.428,7.035
		c0,0.485,0,0.972,0,1.457c0.001,0.387-0.032,0.337,0.343,0.34c0.272,0.003,0.331-0.057,0.331-0.329c0-0.929,0-1.857,0-2.787
		c0-0.444-0.023-0.461-0.478-0.464c-0.153-0.001-0.2,0.049-0.199,0.199C6.432,5.979,6.428,6.507,6.428,7.035z M15.564,7.042
		L15.564,7.042c0-0.523-0.006-1.045,0.006-1.566c0.004-0.178-0.057-0.248-0.229-0.223c-0.024,0.003-0.049,0.001-0.071,0.001
		c-0.319,0-0.375,0.053-0.375,0.365c0,0.909,0,1.82,0,2.73c0,0.481,0.006,0.483,0.487,0.484c0.149,0.001,0.188-0.054,0.187-0.19
		C15.562,8.109,15.564,7.575,15.564,7.042z M14.895,18.608c0,0.504-0.004,1.011,0,1.515c0,0.188,0.078,0.265,0.265,0.271
		c0.062,0.002,0.123-0.006,0.183,0.002c0.176,0.022,0.229-0.049,0.229-0.226c-0.008-0.989-0.004-1.981-0.006-2.974
		c0-0.437,0.041-0.377-0.377-0.381c-0.221,0-0.293,0.074-0.293,0.297C14.893,17.612,14.895,18.11,14.895,18.608z M14.895,10.896
		c0,0.505-0.004,1.009,0,1.514c0,0.199,0.078,0.274,0.273,0.281c0.062,0.001,0.123-0.007,0.184,0.001
		c0.17,0.023,0.219-0.049,0.219-0.216c-0.008-1.004-0.002-2.006-0.006-3.01c0-0.396,0.05-0.352-0.366-0.354
		c-0.232-0.001-0.304,0.07-0.304,0.306C14.893,9.911,14.893,10.403,14.895,10.896z M15.566,14.753c0-0.479,0-0.959-0.002-1.438
		c0-0.384,0.035-0.344-0.338-0.347c-0.266-0.002-0.334,0.059-0.334,0.326c0,0.923,0,1.846,0,2.77c0,0.466,0.014,0.474,0.479,0.477
		c0.155,0.001,0.196-0.054,0.194-0.202C15.562,15.811,15.566,15.283,15.566,14.753z M6.428,14.752c0,0.487,0,0.973,0,1.458
		c0,0.359-0.025,0.327,0.32,0.329c0.3,0,0.354-0.052,0.354-0.346c0-0.917,0-1.833,0-2.751c0-0.467-0.017-0.477-0.48-0.477
		c-0.153,0-0.197,0.055-0.196,0.202C6.432,13.696,6.428,14.225,6.428,14.752z"/>
	<path fill="#FDA422" d="M15.896,24.726c-0.002,1.02-0.006,2.039,0,3.062c0,0.127-0.041,0.194-0.149,0.254
		c-0.179,0.092-0.347,0.199-0.519,0.302c-0.002,0.249-0.014,0.497,0.002,0.745c0.013,0.197-0.053,0.345-0.203,0.459
		c-0.086,0.065-0.174,0.134-0.27,0.183c-0.622,0.324-1.305,0.422-1.988,0.514c-0.055,0.008-0.112-0.02-0.17-0.029
		c0.031-0.014,0.062-0.031,0.094-0.039c0.271-0.061,0.533-0.133,0.744-0.326c0.062-0.039,0.123-0.076,0.185-0.115
		c0.026,0.026,0.056,0.074,0.084,0.076c0.196,0.008,0.396,0.012,0.594,0.002c0.033-0.002,0.066-0.072,0.103-0.112
		c0.344-0.063,0.461-0.205,0.461-0.558c0-0.981,0.006-1.965-0.002-2.947c0-0.159,0.045-0.284,0.139-0.414
		c0.168-0.229,0.259-0.493,0.234-0.788c0.143-0.164,0.283-0.328,0.424-0.488C15.76,24.599,15.826,24.662,15.896,24.726z"/>
	<path fill="#F19221" d="M12.6,30.211c0.058,0.011,0.115,0.037,0.17,0.029c0.687-0.091,1.366-0.188,1.988-0.513
		c0.096-0.051,0.184-0.117,0.27-0.184c0.15-0.113,0.216-0.262,0.203-0.459c-0.016-0.248-0.004-0.496-0.002-0.746
		c0.168-0.004,0.217,0.084,0.211,0.242c-0.01,0.205-0.014,0.412,0,0.619c0.017,0.236-0.088,0.404-0.271,0.541
		c-0.423,0.312-0.912,0.457-1.416,0.545c-1.907,0.328-3.815,0.336-5.718-0.051c-0.405-0.082-0.796-0.219-1.142-0.459
		c-0.214-0.146-0.343-0.33-0.317-0.607c0.018-0.205,0.011-0.414,0.001-0.619c-0.005-0.137,0.042-0.208,0.183-0.209
		c0,0.24,0.019,0.484-0.002,0.727c-0.02,0.229,0.07,0.39,0.241,0.513c0.12,0.088,0.251,0.168,0.388,0.229
		c0.572,0.258,1.188,0.347,1.803,0.431c0.16,0.021,0.327,0.004,0.492,0.004c0.668,0.022,1.337,0.062,2.005,0.065
		C11.99,30.312,12.293,30.246,12.6,30.211z"/>
	<path fill="#FFB000" d="M6.758,28.315c-0.21-0.116-0.498-0.188-0.611-0.366c-0.109-0.171-0.045-0.453-0.045-0.688
		c-0.004-0.85-0.003-1.695-0.003-2.544c0.069-0.06,0.138-0.12,0.247-0.216c0.134,0.158,0.275,0.322,0.416,0.486
		c0.012,0.121,0.023,0.244,0.035,0.365c-0.012,0.069-0.035,0.141-0.035,0.209C6.759,26.479,6.759,27.397,6.758,28.315z"/>
	<path fill="#FFB000" d="M15.746,4.984c-0.129-0.486-0.506-0.804-1.039-0.8c-2.5,0.016-5.002,0.007-7.502,0.007
		c-0.475,0-0.872,0.333-0.955,0.803c-0.136-0.04-0.174-0.146-0.169-0.27c0.015-0.377,0.335-0.698,0.716-0.72
		C6.948,3.996,7.102,4,7.252,4c2.613,0,5.227,0,7.84,0.002c0.443,0,0.75,0.261,0.811,0.677C15.921,4.816,15.904,4.938,15.746,4.984z
		"/>
	<path fill="#FDA422" d="M6.758,28.315c0.001-0.918,0.001-1.836,0.004-2.754c0-0.067,0.023-0.139,0.035-0.207
		c0.069,0.146,0.124,0.306,0.213,0.438c0.087,0.129,0.12,0.254,0.118,0.406c-0.004,0.971-0.008,1.941,0,2.912
		c0.004,0.354,0.109,0.555,0.471,0.59c0.025,0.035,0.051,0.1,0.077,0.101c0.206,0.009,0.413,0.009,0.619,0.001
		c0.025-0.001,0.048-0.066,0.071-0.102c0.086,0.059,0.172,0.117,0.257,0.176H8.621c0.099,0.051,0.198,0.1,0.297,0.146
		c0.254,0.072,0.509,0.146,0.763,0.219c-0.165,0-0.332,0.02-0.492-0.002c-0.614-0.086-1.229-0.174-1.803-0.432
		c-0.137-0.062-0.268-0.142-0.388-0.229c-0.171-0.123-0.261-0.283-0.241-0.513c0.021-0.241,0.002-0.485,0.002-0.729
		C6.757,28.334,6.757,28.326,6.758,28.315z"/>
	<path fill="#282321" d="M15.896,24.726c-0.067-0.062-0.137-0.127-0.242-0.228c-0.139,0.16-0.28,0.326-0.422,0.489
		c-0.053,0.066-0.104,0.132-0.151,0.197c-0.008-0.281-0.015-0.563-0.021-0.848c0.054,0,0.105-0.002,0.16-0.002
		c0.034,0.059,0.035,0.164,0.15,0.104c0.175-0.037,0.35-0.072,0.521-0.109c0.361-0.068,0.727-0.141,1.09-0.209
		c0.104,0.146,0.049,0.229-0.105,0.279C16.551,24.509,16.223,24.617,15.896,24.726z"/>
	<path fill="#282321" d="M6.762,24.987c-0.141-0.163-0.282-0.327-0.416-0.485c-0.109,0.097-0.178,0.156-0.247,0.216
		C5.766,24.61,5.435,24.5,5.101,24.396c-0.147-0.047-0.169-0.133-0.094-0.271c0.363,0.068,0.728,0.143,1.092,0.211
		c0.158,0.037,0.317,0.066,0.473,0.111c0.11,0.033,0.171-0.002,0.202-0.105c0.054,0,0.107-0.002,0.161-0.002
		c0.003,0.279,0.005,0.559,0.01,0.838C6.883,25.112,6.823,25.049,6.762,24.987z"/>
	<path fill="#FFB000" d="M6.774,24.338c-0.031,0.104-0.092,0.142-0.202,0.106c-0.155-0.047-0.314-0.075-0.473-0.112
		c0.079-0.44,0.156-0.886,0.237-1.326c0.014-0.069,0.037-0.139,0.057-0.207c0.073,0.313,0.146,0.63,0.225,0.943
		c0.022,0.09,0.064,0.174,0.099,0.262C6.736,24.115,6.754,24.228,6.774,24.338z"/>
	<path fill="#F4C031" d="M7.491,4.557c0.071-0.013,0.141-0.035,0.212-0.035c2.277-0.001,4.554-0.001,6.831,0
		c0.013,0.096,0.034,0.19,0.034,0.286c0.002,6.241,0.002,12.482,0,18.726c0,0.074-0.025,0.15-0.041,0.229
		c-0.123,0.021-0.25,0.051-0.375,0.062c-1.862,0.174-3.73,0.15-5.601,0.062c-0.379-0.02-0.756-0.09-1.136-0.137
		c0-0.332,0.002-0.668,0.002-1.002c0-5.961-0.002-11.921,0.003-17.882C7.421,4.762,7.467,4.659,7.491,4.557z"/>
	<path fill="#282321" d="M7.416,23.75c0.38,0.047,0.757,0.115,1.136,0.135c1.868,0.091,3.735,0.111,5.601-0.062
		c0.125-0.012,0.252-0.041,0.375-0.062c0.039-0.007,0.078-0.015,0.117-0.021c0.033,0.036,0.092,0.075,0.095,0.112
		c0.01,0.562,0.028,1.127,0.006,1.688c-0.006,0.183-0.123,0.358-0.188,0.539c-0.025,0.035-0.055,0.071-0.082,0.106
		c-0.012,0-0.019,0.008-0.017,0.019c-0.054,0.043-0.106,0.086-0.159,0.131c-0.021,0.011-0.039,0.021-0.06,0.031
		c-0.048,0.026-0.095,0.055-0.146,0.079c-0.312,0.074-0.619,0.173-0.936,0.218c-1.147,0.157-2.301,0.138-3.455,0.084
		c-0.601-0.026-1.201-0.076-1.768-0.308c-0.058-0.028-0.115-0.061-0.172-0.09c-0.016-0.008-0.029-0.018-0.043-0.024
		c-0.038-0.022-0.075-0.048-0.113-0.07c-0.021-0.016-0.041-0.03-0.062-0.047c-0.037-0.043-0.073-0.084-0.108-0.127
		c-0.178-0.313-0.233-0.647-0.21-1.011c0.023-0.379,0.01-0.762,0.016-1.143c0.001-0.063,0.017-0.129,0.026-0.193
		C7.32,23.742,7.368,23.746,7.416,23.75z M14.668,24.401c0-0.178,0-0.356,0-0.536c-2.455,0.245-4.884,0.241-7.358,0
		c0,0.567-0.01,1.112,0.004,1.657c0.006,0.222,0.127,0.39,0.354,0.457c0.183,0.082,0.356,0.191,0.548,0.244
		c0.725,0.197,1.474,0.207,2.214,0.213c0.936,0.008,1.875-0.045,2.811-0.108c0.319-0.021,0.64-0.132,0.944-0.242
		c0.256-0.092,0.479-0.265,0.489-0.571C14.686,25.144,14.671,24.772,14.668,24.401z"/>
	<path fill="#F2A433" d="M7.416,23.75c-0.048-0.004-0.097-0.01-0.146-0.015c0-5.264,0.002-10.528,0.002-15.792
		c0-1.064,0-2.128-0.002-3.192C7.268,4.594,7.32,4.514,7.49,4.557C7.467,4.659,7.421,4.762,7.421,4.865
		c-0.005,5.961-0.003,11.922-0.003,17.883C7.418,23.082,7.416,23.416,7.416,23.75z"/>
	<path fill="#FDC64C" d="M14.645,23.742c-0.039,0.006-0.078,0.014-0.117,0.021c0.016-0.076,0.041-0.152,0.041-0.229
		c0.002-6.242,0.002-12.484,0-18.725c0-0.096-0.021-0.19-0.034-0.286c0.176-0.003,0.185,0.116,0.185,0.247
		c-0.001,1.319-0.001,2.639-0.001,3.957c0,4.924,0.001,9.847-0.003,14.771C14.713,23.578,14.668,23.66,14.645,23.742z"/>
	<path fill="#33454C" d="M6.428,18.604c0-0.527,0.005-1.058-0.003-1.584c-0.003-0.164,0.055-0.225,0.21-0.205
		c0.061,0.008,0.123,0,0.183,0.002c0.211,0.004,0.283,0.076,0.283,0.287c0.001,1.004,0.001,2.004,0,3.006
		c0,0.213-0.074,0.283-0.287,0.283c-0.443-0.002-0.383,0.053-0.386-0.388C6.425,19.541,6.428,19.071,6.428,18.604z"/>
	<path fill="#33454C" d="M6.428,10.89c0-0.522,0.004-1.045-0.003-1.566C6.422,9.17,6.461,9.106,6.627,9.108
		C7.088,9.114,7.102,9.12,7.102,9.574c0,0.923,0,1.846-0.001,2.769c0,0.291-0.061,0.348-0.353,0.348c-0.049,0-0.098-0.006-0.146,0
		c-0.138,0.016-0.177-0.05-0.176-0.182C6.431,11.97,6.428,11.43,6.428,10.89z"/>
	<path fill="#33454C" d="M6.428,7.035c0-0.527,0.004-1.056-0.003-1.584c-0.001-0.15,0.046-0.2,0.199-0.199
		c0.454,0.003,0.478,0.02,0.478,0.464c0,0.93,0,1.858,0,2.787c0,0.272-0.059,0.332-0.331,0.329c-0.375-0.003-0.342,0.047-0.343-0.34
		C6.428,8.006,6.428,7.52,6.428,7.035z"/>
	<path fill="#43515B" d="M15.564,7.042c0,0.532-0.002,1.067,0.002,1.602c0.002,0.137-0.035,0.191-0.187,0.19
		c-0.481-0.001-0.487-0.003-0.487-0.484c0-0.91,0-1.821,0-2.73c0-0.312,0.057-0.365,0.375-0.365c0.022,0,0.049,0.002,0.071-0.001
		c0.175-0.025,0.231,0.045,0.229,0.223C15.561,5.998,15.564,6.52,15.564,7.042L15.564,7.042z"/>
	<path fill="#43515B" d="M14.895,18.608c0-0.498-0.002-0.996,0-1.494c0-0.223,0.072-0.299,0.293-0.297
		c0.418,0.002,0.377-0.055,0.377,0.381c0.002,0.992-0.002,1.982,0.006,2.974c0,0.177-0.055,0.248-0.229,0.226
		c-0.06-0.008-0.121,0-0.183-0.002c-0.187-0.006-0.265-0.08-0.265-0.271C14.891,19.619,14.895,19.115,14.895,18.608z"/>
	<path fill="#43515B" d="M14.895,10.896c-0.002-0.492-0.002-0.985,0-1.478c0-0.235,0.069-0.307,0.304-0.306
		c0.416,0.002,0.366-0.043,0.366,0.354c0.004,1.004-0.002,2.006,0.006,3.01c0,0.167-0.049,0.239-0.219,0.216
		c-0.061-0.008-0.121,0-0.184-0.001c-0.195-0.007-0.273-0.082-0.273-0.281C14.891,11.904,14.895,11.4,14.895,10.896z"/>
	<path fill="#43515B" d="M15.566,14.753c0,0.529-0.004,1.058,0.002,1.586c0.002,0.146-0.039,0.203-0.195,0.202
		c-0.467-0.002-0.479-0.01-0.479-0.477c0-0.924,0-1.847,0-2.77c0-0.268,0.068-0.328,0.334-0.326
		c0.373,0.003,0.338-0.037,0.338,0.347C15.566,13.794,15.566,14.273,15.566,14.753z"/>
	<path fill="#34444B" d="M6.428,14.752c0-0.528,0.004-1.056-0.003-1.585c-0.001-0.147,0.043-0.202,0.196-0.202
		c0.464,0,0.48,0.01,0.48,0.477c0,0.918,0,1.834,0,2.751c0,0.294-0.054,0.347-0.354,0.346c-0.346-0.002-0.32,0.03-0.32-0.329
		C6.428,15.726,6.428,15.24,6.428,14.752z"/>
	<path fill="#495358" d="M15.221,24.336c-0.055,0-0.106,0.002-0.16,0.002c-0.004-0.653-0.01-1.31-0.012-1.965
		c0-0.418-0.002-0.836,0-1.254c0.002-0.242,0.295-0.401,0.497-0.267c0.04,0.025,0.046,0.116,0.05,0.179
		c0.043,0.647-0.07,1.28-0.166,1.915c-0.062,0.414-0.113,0.828-0.171,1.242C15.246,24.237,15.232,24.287,15.221,24.336z"/>
	<path fill="#38464B" d="M6.774,24.338c-0.02-0.11-0.038-0.223-0.058-0.334c-0.1-0.702-0.213-1.403-0.297-2.106
		c-0.037-0.312-0.019-0.631-0.021-0.945c0-0.031,0.024-0.092,0.038-0.092c0.131-0.006,0.271-0.023,0.391,0.016
		c0.059,0.02,0.109,0.152,0.111,0.236c0.009,0.754,0.005,1.506,0.004,2.26c0,0.32-0.004,0.645-0.007,0.965
		C6.881,24.336,6.827,24.338,6.774,24.338z"/>
	<path fill="#DD8119" d="M7.438,26.084c0.035,0.041,0.071,0.084,0.108,0.125c-0.009,0.009-0.018,0.019-0.024,0.024
		c-0.068-0.026-0.137-0.057-0.215-0.09c0,1.023-0.002,2.031,0.002,3.039c0.001,0.25,0.141,0.41,0.378,0.433
		c0.202,0.02,0.408,0.004,0.617,0.004c-0.097-0.56-0.192-1.099-0.284-1.64c-0.093-0.535-0.184-1.069-0.274-1.604
		c0.007-0.006,0.014-0.015,0.019-0.021c0.057,0.029,0.114,0.061,0.172,0.09c-0.008,0.064-0.031,0.135-0.021,0.197
		c0.112,0.674,0.215,1.348,0.347,2.016c0.082,0.418,0.048,0.871,0.361,1.223c-0.085-0.061-0.171-0.117-0.257-0.178
		c-0.256,0-0.511,0.002-0.768,0.002c-0.361-0.035-0.467-0.234-0.471-0.592c-0.008-0.971-0.004-1.939,0-2.912
		c0.002-0.15-0.031-0.277-0.118-0.404c-0.089-0.135-0.144-0.293-0.213-0.439c-0.012-0.121-0.023-0.244-0.035-0.364
		c0.061,0.062,0.121,0.123,0.183,0.187c0.039,0.321,0.156,0.61,0.39,0.844C7.364,26.045,7.405,26.062,7.438,26.084z"/>
	<path fill="#FDC64C" d="M14.094,26.449c0.051-0.025,0.098-0.054,0.146-0.08c-0.003,0.053,0.006,0.106-0.005,0.157
		c-0.03,0.154-0.073,0.306-0.1,0.459c-0.133,0.769-0.262,1.533-0.396,2.3c-0.062,0.34-0.067,0.34,0.284,0.34
		c0.056,0,0.108,0,0.162,0c0.342-0.002,0.529-0.187,0.529-0.53c0.001-0.937,0.001-1.871,0-2.81c0-0.05-0.01-0.101-0.016-0.142
		c-0.09,0.019-0.16,0.029-0.229,0.045c0.026-0.035,0.057-0.071,0.082-0.106c0.231-0.162,0.365-0.394,0.452-0.653
		c0.024-0.08,0.05-0.16,0.072-0.242c0.05-0.064,0.101-0.131,0.151-0.195c0.022,0.293-0.067,0.557-0.235,0.787
		c-0.095,0.131-0.14,0.254-0.14,0.414c0.008,0.981,0.004,1.965,0.004,2.947c0,0.352-0.118,0.491-0.463,0.557
		c-0.26,0.014-0.52,0.023-0.776,0.035c-0.062,0.039-0.123,0.076-0.185,0.115c0.142-0.25,0.189-0.523,0.23-0.808
		C13.799,28.172,13.951,27.312,14.094,26.449z"/>
	<path fill="#F8BA42" d="M15.221,24.336c0.012-0.049,0.025-0.099,0.038-0.146c0.05-0.189,0.097-0.381,0.149-0.57
		c0.02-0.066,0.047-0.133,0.07-0.197h0.002c-0.035,0.342-0.072,0.682-0.109,1.021C15.256,24.5,15.255,24.396,15.221,24.336z"/>
	<path fill="#F8BA42" d="M15.48,23.42c0-0.047,0-0.094,0-0.142c0.012,0.003,0.022,0.005,0.035,0.005
		C15.506,23.33,15.492,23.375,15.48,23.42L15.48,23.42z"/>
	<path fill="#F8BA42" d="M14.094,26.449c-0.143,0.862-0.295,1.725-0.426,2.59c-0.041,0.282-0.09,0.558-0.23,0.808
		c-0.211,0.192-0.475,0.268-0.744,0.325c-0.032,0.009-0.062,0.024-0.094,0.039c-0.307,0.035-0.608,0.103-0.914,0.101
		c-0.667-0.004-1.336-0.043-2.004-0.066c-0.254-0.072-0.509-0.146-0.763-0.219c-0.099-0.049-0.198-0.098-0.297-0.146h0.002
		c-0.313-0.35-0.279-0.805-0.361-1.221c-0.132-0.668-0.234-1.344-0.347-2.016c-0.01-0.062,0.014-0.134,0.021-0.199
		c0.566,0.229,1.167,0.279,1.768,0.307c1.154,0.055,2.307,0.074,3.455-0.084C13.475,26.621,13.781,26.522,14.094,26.449z"/>
	<path fill="#D6D7DC" d="M13.621,29.729c0.258-0.012,0.518-0.022,0.777-0.035c-0.033,0.041-0.066,0.111-0.103,0.113
		c-0.198,0.01-0.396,0.006-0.594-0.002C13.676,29.806,13.648,29.756,13.621,29.729z"/>
	<path fill="#D6D7DC" d="M7.599,29.703c0.257,0,0.512-0.002,0.768-0.002c-0.024,0.034-0.046,0.101-0.072,0.103
		c-0.206,0.008-0.413,0.008-0.619-0.002C7.65,29.801,7.624,29.737,7.599,29.703z"/>
	<path fill="#DD8119" d="M8.621,29.877c0.099,0.052,0.198,0.099,0.297,0.147C8.82,29.976,8.72,29.929,8.621,29.877z"/>
	<path fill="#835F32" d="M9.052,10.961c0.017,0,0.032,0.001,0.049,0.002C9.084,10.962,9.069,10.961,9.052,10.961z"/>
	<path fill="#43515B" d="M7.667,25.979c-0.227-0.067-0.348-0.235-0.354-0.457c-0.014-0.545-0.004-1.09-0.004-1.657
		c2.475,0.241,4.903,0.245,7.358,0c0,0.18,0,0.358,0,0.536c-0.033,0.011-0.069,0.015-0.103,0.031
		c-0.375,0.193-0.734,0.416-1.123,0.582c-0.824,0.351-1.685,0.59-2.566,0.756C10.095,25.916,9.31,26,8.519,26.009
		C8.237,26.013,7.951,25.99,7.667,25.979z"/>
	<path fill="#34444B" d="M7.667,25.979c0.284,0.011,0.569,0.033,0.853,0.028c0.791-0.009,1.576-0.093,2.356-0.237
		c0.884-0.166,1.743-0.405,2.567-0.756c0.387-0.166,0.748-0.389,1.123-0.582c0.029-0.018,0.066-0.021,0.102-0.031
		c0.003,0.371,0.018,0.74,0.006,1.111c-0.012,0.309-0.234,0.479-0.49,0.572c-0.306,0.109-0.625,0.223-0.944,0.242
		c-0.937,0.062-1.873,0.115-2.81,0.107c-0.74-0.006-1.489-0.017-2.214-0.213C8.024,26.172,7.85,26.062,7.667,25.979z"/>
	<path fill="#F2B733" d="M14.473,26.188c0.066-0.016,0.137-0.026,0.228-0.045c0.006,0.041,0.017,0.092,0.017,0.142
		c0.001,0.938,0.001,1.873,0,2.81c0,0.346-0.188,0.528-0.529,0.53c-0.054,0-0.107,0-0.16,0c-0.354,0-0.348,0-0.287-0.34
		c0.137-0.767,0.266-1.531,0.396-2.3c0.024-0.153,0.067-0.305,0.102-0.459c0.008-0.051,0.002-0.104,0.004-0.157
		c0.02-0.011,0.037-0.021,0.059-0.031c0.053-0.045,0.105-0.088,0.16-0.131C14.455,26.196,14.461,26.188,14.473,26.188z"/>
	<path fill="#FDC64C" d="M14.457,26.207c-0.055,0.043-0.107,0.086-0.16,0.129C14.35,26.293,14.404,26.25,14.457,26.207z"/>
	<path fill="#DD8119" d="M7.609,26.258c0.038,0.021,0.075,0.046,0.113,0.068c-0.006,0.006-0.011,0.012-0.018,0.018
		c-0.035-0.022-0.073-0.047-0.11-0.069C7.599,26.269,7.604,26.263,7.609,26.258z"/>
	<path fill="#DD8119" d="M7.547,26.209c0.021,0.017,0.041,0.031,0.062,0.049c-0.005,0.005-0.01,0.011-0.015,0.017
		c-0.023-0.012-0.047-0.025-0.071-0.039C7.53,26.228,7.538,26.218,7.547,26.209z"/>
	<path fill="#DD8119" d="M7.722,26.328c0.014,0.008,0.027,0.019,0.043,0.024c-0.005,0.01-0.012,0.017-0.019,0.021
		c-0.014-0.01-0.027-0.021-0.042-0.031C7.711,26.338,7.716,26.332,7.722,26.328z"/>
	<path fill="#F2B733" d="M7.704,26.344c0.015,0.011,0.028,0.021,0.042,0.031c0.091,0.535,0.182,1.069,0.274,1.604
		c0.092,0.541,0.188,1.08,0.284,1.64c-0.209,0-0.415,0.016-0.617-0.004c-0.237-0.021-0.377-0.183-0.378-0.433
		c-0.004-1.008-0.002-2.016-0.002-3.039c0.078,0.033,0.146,0.062,0.215,0.09c0.024,0.015,0.048,0.026,0.071,0.039
		C7.631,26.297,7.669,26.321,7.704,26.344z"/>
	<path fill="#2D2625" d="M8.914,10.873c0.012,0,0.023,0,0.036,0.002C8.938,10.873,8.926,10.873,8.914,10.873z"/>
</g>
</svg>
