<?xml version="1.0" encoding="utf-8"?>
<!-- Generator: Adobe Illustrator 16.0.0, SVG Export Plug-In . SVG Version: 6.00 Build 0)  -->
<!DOCTYPE svg PUBLIC "-//W3C//DTD SVG 1.1//EN" "http://www.w3.org/Graphics/SVG/1.1/DTD/svg11.dtd">
<svg version="1.1" id="Layer_1" xmlns="http://www.w3.org/2000/svg" xmlns:xlink="http://www.w3.org/1999/xlink" x="0px" y="0px"
	 width="27.985px" height="38.875px" viewBox="-3.008 -2.125 27.985 38.875" enable-background="new -3.008 -2.125 27.985 38.875"
	 xml:space="preserve">
<ellipse opacity="0.1" fill="#1E1100" enable-background="new    " cx="10.983" cy="35.217" rx="11.188" ry="1.279"/>
<path fill="#58B7B7" d="M7.062,24.57c-2.029-0.399-3.979-1.177-5.764-2.241l-3.005,1.572c2.059,1.449,4.362,2.552,6.809,3.187
	c0.627,0.165,1.578,0.161,1.887,0.789l1.043,2.035l2.279,4.508c0.074,0.148,0.343,0.953,0.573,0.771
	c0.23-0.181,0.361-0.68,0.488-0.938l1.075-2.153l1.194-2.375l0.566-1.115c0.152-0.305,0.305-0.786,0.552-1.015
	c0.26-0.242,0.785-0.245,1.116-0.312c0.376-0.076,0.733-0.181,1.097-0.297l2.282-0.846c1.501-0.641,2.891-1.429,4.229-2.353
	c0.068-0.047,0.127-0.104,0.194-0.151l-3.262-1.361C16.393,24.641,11.645,25.456,7.062,24.57z"/>
<g>
	<path opacity="0.15" fill="#FFFFFF" enable-background="new    " d="M2.396,22.995l-2.229,2.224l1.201,0.562l2.16-2.287
		L2.396,22.995z"/>
	<path opacity="0.15" fill="#FFFFFF" enable-background="new    " d="M4.477,23.856l-1.639,2.518l0.404,0.145l2.057-2.402
		L4.477,23.856z"/>
	<path opacity="0.15" fill="#FFFFFF" enable-background="new    " d="M18.58,23.24l2.18,2.175l-1.167,0.603l-2.143-2.265
		L18.58,23.24z"/>
	<path opacity="0.15" fill="#FFFFFF" enable-background="new    " d="M9.568,24.854l3.252-0.129l-4.355,6.082l-0.488-0.949
		L9.568,24.854L9.568,24.854z"/>
	<path opacity="0.15" fill="#FFFFFF" enable-background="new    " d="M16.439,23.99l1.726,2.497l-0.434,0.181l-1.978-2.416
		L16.439,23.99z"/>
</g>
<g>
	<path fill-rule="evenodd" clip-rule="evenodd" fill="#FFA105" d="M-0.416,3.516C-0.359,3.515-0.305,3.51-0.25,3.51
		c2.229,0,4.459,0,6.688,0c0.095,0,0.189,0,0.319,0c0-0.175,0-0.343,0-0.511C6.821,2.913,6.716,2.775,6.86,2.708
		C6.984,2.65,7.096,2.567,7.209,2.49c0.799-0.53,1.594-1.062,2.391-1.592c0.517-0.346,1.039-0.687,1.554-1.036
		c0.105-0.072,0.192-0.053,0.289,0.013c0.37,0.253,0.745,0.504,1.117,0.757c0.524,0.356,1.05,0.714,1.575,1.072
		c0.489,0.334,0.979,0.67,1.466,1.012c0.045,0.03,0.077,0.103,0.08,0.158c0.016,0.197,0.02,0.396,0.025,0.594
		c0.007,0.015,0.01,0.03,0.014,0.046c0.002,0.214,0.002,0.429,0.002,0.643c0,0.125-0.002,0.249-0.002,0.374
		c0,4.765,0,9.528,0,14.295c0,0.01,0,0.021-0.004,0.031c-0.01,0.104,0.035,0.135,0.134,0.135c0.278-0.006,0.554-0.002,0.832-0.002
		c-0.04,0.008-0.082,0.027-0.124,0.027c-0.698,0.004-1.396,0.004-2.094,0.004c-0.029,0-0.061-0.01-0.108-0.016
		c0-0.074,0-0.139,0-0.201c0-1.922,0-3.842-0.003-5.764c0-0.067-0.02-0.137-0.029-0.207c0-0.235-0.004-0.468-0.004-0.701
		c0-0.039,0.007-0.077,0.007-0.116c0-2.03,0-4.059,0-6.09c0-0.042-0.007-0.083-0.013-0.138c-0.438,0-0.861,0-1.286,0
		c0-0.898,0-1.795-0.004-2.692c0-0.064-0.014-0.128-0.022-0.193c-0.144-0.977-0.86-1.633-1.786-1.623
		C10.387,1.29,9.58,1.885,9.46,2.904C9.452,2.969,9.438,3.033,9.438,3.097c-0.001,0.897,0,1.796,0,2.692c-0.431,0-0.859,0-1.303,0
		c0,0.074,0,0.121,0,0.171c0,2.009,0,4.018,0,6.025c0,0.048,0.006,0.099,0.009,0.147c-0.001,0.233-0.003,0.466-0.004,0.701
		c-0.011,0.041-0.031,0.083-0.031,0.125c0,2.022,0.002,4.045,0.002,6.069l0,0c-0.073-0.002-0.143-0.006-0.215-0.006
		c-0.704-0.004-1.408-0.004-2.113-0.008c0.265-0.006,0.527-0.021,0.791-0.021c0.122,0,0.174-0.021,0.174-0.164
		C6.744,14.063,6.744,9.296,6.744,4.531C6.742,4.407,6.74,4.283,6.74,4.158c0-0.196,0.002-0.394,0.002-0.59
		c-0.066-0.015-0.13-0.04-0.194-0.04c-2.255-0.003-4.51-0.003-6.766-0.003C-0.283,3.524-0.35,3.52-0.416,3.516z"/>
	<path fill-rule="evenodd" clip-rule="evenodd" fill="#F48B00" d="M6.744,4.531c0,4.765,0,9.532,0.004,14.297
		c0,0.143-0.052,0.164-0.174,0.164c-0.264,0-0.526,0.016-0.791,0.021c-0.011-0.053-0.033-0.111-0.033-0.166
		c-0.003-0.602-0.002-1.205-0.002-1.809c-0.001-1.635-0.003-3.271-0.003-4.906c0.002-0.039,0.008-0.077,0.008-0.116
		c0-2.026,0-4.054,0-6.082c0-0.042-0.006-0.085-0.01-0.128c-1.608,0-3.206,0-4.814,0c0,0.083,0,0.153,0,0.225
		c0,1.352-0.001,2.704,0,4.055c0,0.682,0.003,1.363,0.005,2.042c-0.001,0.035-0.005,0.067-0.005,0.099c0,2.212,0,4.422,0,6.633
		c0,0.051,0,0.102,0,0.16c-0.195,0-0.377,0.004-0.56,0c-0.176-0.008-0.351-0.023-0.526-0.035c0.021-0.123,0.058-0.248,0.058-0.369
		c0.001-4.728,0.001-9.456,0.001-14.182c0-0.065,0.003-0.133,0.007-0.198c0.014,0.094,0.029,0.188,0.045,0.294
		C2.222,4.531,4.483,4.531,6.744,4.531z"/>
	<path fill-rule="evenodd" clip-rule="evenodd" fill="#E56200" d="M5.745,12.133c0,1.635,0.002,3.271,0.003,4.906
		c0,0.604-0.001,1.207,0.002,1.809c0,0.055,0.022,0.113,0.033,0.166c0.705,0.004,1.409,0.004,2.113,0.008
		c0.072,0,0.142,0.004,0.215,0.006c-0.034,0.01-0.069,0.02-0.103,0.025c-0.034,0-0.066-0.004-0.099-0.004
		c-2.699,0-5.397-0.002-8.096-0.002c-0.188,0-0.375-0.004-0.563-0.006c0.149-0.004,0.298-0.004,0.447-0.01
		c0.047-0.004,0.097-0.029,0.146-0.045c0.176,0.012,0.351,0.027,0.526,0.035c0.183,0.004,0.365,0,0.56,0c0-0.059,0-0.109,0-0.16
		c0-2.211,0-4.421,0-6.633c0-0.032,0.003-0.063,0.005-0.099C2.537,12.133,4.141,12.133,5.745,12.133z"/>
	<path fill-rule="evenodd" clip-rule="evenodd" fill="#CC2314" d="M6.742,2.345C6.524,2.486,6.308,2.626,6.081,2.774
		C5.922,2.542,5.769,2.314,5.603,2.069c1.892-1.261,3.781-2.52,5.68-3.787c0.464,0.313,0.925,0.624,1.386,0.936
		c0.115,0.079,0.233,0.154,0.349,0.23c0.035,0.027,0.067,0.058,0.105,0.082c0.979,0.666,1.96,1.332,2.939,1.998
		c0.263,0.179,0.527,0.358,0.797,0.542c-0.166,0.243-0.32,0.47-0.477,0.703c-0.228-0.151-0.445-0.293-0.662-0.436
		c-0.13-0.093-0.26-0.188-0.392-0.277c-1.315-0.896-2.634-1.79-3.947-2.69c-0.125-0.085-0.182-0.01-0.259,0.041
		c-0.769,0.511-1.534,1.024-2.302,1.539C8.128,1.415,7.435,1.879,6.742,2.345z"/>
	<path fill-rule="evenodd" clip-rule="evenodd" fill="#A11C11" d="M15.723,4.158c0-0.214,0-0.429-0.002-0.643
		c0.031-0.003,0.062-0.006,0.095-0.01c0.929,0.002,1.857,0.005,2.781,0.007c0.251,0,0.498-0.007,0.743-0.01
		c0.112,0.003,0.221,0.011,0.333,0.011c1.027,0,2.056-0.001,3.083,0.002c0.058,0,0.115,0.034,0.176,0.053c0,0.188,0,0.378,0,0.599
		c-0.147,0-0.271,0-0.393,0c-0.074-0.002-0.146-0.005-0.216-0.005C20.122,4.16,17.922,4.16,15.723,4.158z"/>
	<path fill-rule="evenodd" clip-rule="evenodd" fill="#A11C11" d="M6.742,3.568c0,0.196-0.002,0.394-0.002,0.59
		C4.648,4.16,2.555,4.16,0.463,4.161c-0.187,0-0.376,0.003-0.563,0.005c-0.112-0.011-0.224-0.021-0.336-0.032
		c0.013-0.124,0.04-0.247,0.032-0.368c-0.013-0.162,0.045-0.202,0.203-0.202C2.113,3.569,4.428,3.568,6.742,3.568z"/>
	<path fill-rule="evenodd" clip-rule="evenodd" fill="#E56200" d="M6.742,2.345c0.693-0.466,1.386-0.93,2.079-1.394
		c0.768-0.515,1.533-1.028,2.302-1.539c0.077-0.051,0.135-0.126,0.259-0.041c1.313,0.901,2.631,1.794,3.947,2.69
		c0.132,0.089,0.262,0.184,0.392,0.277c-0.004,0.376-0.007,0.752-0.014,1.13c-0.006-0.198-0.01-0.397-0.025-0.594
		c-0.003-0.056-0.035-0.128-0.08-0.158c-0.487-0.341-0.977-0.677-1.466-1.012c-0.525-0.358-1.051-0.716-1.575-1.072
		c-0.372-0.253-0.747-0.504-1.117-0.757c-0.096-0.066-0.183-0.085-0.289-0.013c-0.516,0.349-1.037,0.69-1.554,1.036
		C8.803,1.428,8.008,1.96,7.209,2.49C7.096,2.567,6.984,2.65,6.86,2.708C6.716,2.775,6.821,2.913,6.757,3
		C6.751,2.78,6.747,2.562,6.742,2.345z"/>
	<path fill-rule="evenodd" clip-rule="evenodd" fill="#E56200" d="M-0.1,4.167c0.187-0.002,0.376-0.005,0.563-0.005
		C2.555,4.16,4.648,4.16,6.74,4.158c0,0.125,0.002,0.249,0.003,0.374c-2.26,0-4.521,0-6.791,0c-0.016-0.106-0.031-0.2-0.045-0.294
		C-0.096,4.213-0.099,4.19-0.1,4.167z"/>
	<path fill-rule="evenodd" clip-rule="evenodd" fill="#43120A" d="M-0.75,19.041c0.189,0.002,0.376,0.006,0.563,0.006
		c2.698,0,5.396,0.002,8.096,0.002c0.033,0,0.065,0.004,0.099,0.004c-0.069,0.014-0.136,0.035-0.205,0.035c-2.709,0-5.419,0-8.129,0
		c-0.418,0-0.416,0-0.41,0.422c0.001,0.049-0.026,0.098-0.038,0.148c-0.008,0-0.017-0.002-0.024-0.006
		c0.001-0.158,0-0.314,0.007-0.471C-0.791,19.133-0.764,19.088-0.75,19.041z"/>
	<path fill-rule="evenodd" clip-rule="evenodd" fill="#9A0E02" d="M6.742,3.568c-2.314,0-4.629,0.001-6.944-0.003
		c-0.158,0-0.215,0.04-0.203,0.202c0.008,0.122-0.019,0.245-0.032,0.368c0.008-0.206,0.014-0.411,0.021-0.618
		C-0.35,3.52-0.283,3.524-0.217,3.524c2.255,0,4.511,0,6.766,0.003C6.612,3.528,6.676,3.553,6.742,3.568z"/>
	<path fill-rule="evenodd" clip-rule="evenodd" fill="#491D05" d="M-0.774,19.658c0.012-0.051,0.04-0.1,0.038-0.148
		c-0.006-0.422-0.008-0.422,0.41-0.422c2.71,0,5.42,0,8.129,0c0.069,0,0.136-0.021,0.205-0.035c0.033-0.006,0.068-0.016,0.103-0.025
		l0,0h0.016l0.016-0.002c0.149,0,0.299-0.008,0.448,0c0.214,0.012,0.214,0.016,0.214-0.209c0-1.723,0.003-3.445-0.003-5.167
		c0-0.168,0.053-0.214,0.217-0.214c1.486,0.007,2.968,0.007,4.45,0c0.16,0,0.191,0.051,0.191,0.198
		c-0.006,1.727-0.003,3.455-0.003,5.179c0,0.045-0.017,0.1,0.003,0.131c0.022,0.043,0.073,0.098,0.115,0.098
		c0.18,0.002,0.361-0.01,0.544-0.016c0.045,0.008,0.091,0.018,0.135,0.027c0.066,0.014,0.139,0.035,0.205,0.035
		c2.759,0,5.52,0,8.278,0c0.045,0,0.09,0.004,0.131,0c0.094-0.006,0.132,0.029,0.129,0.125c-0.007,0.111,0,0.225,0,0.34
		c0.009,0,0.019,0,0.028,0c0-0.166,0-0.33,0-0.492c-0.004-0.012-0.01-0.018-0.02-0.02c0.016,0.047,0.045,0.092,0.049,0.141
		c0.005,0.16,0,0.32,0,0.502c-0.07,0-0.128,0-0.187,0c-7.884,0-15.77,0-23.655,0C-0.647,19.684-0.712,19.668-0.774,19.658z"/>
	<path fill-rule="evenodd" clip-rule="evenodd" fill="#F48B00" d="M16.683,18.99c-0.278,0-0.554-0.004-0.832,0.002
		c-0.099,0-0.144-0.031-0.134-0.135c0.004-0.01,0.004-0.021,0.004-0.031c0-4.767,0-9.53,0-14.295C16.071,4.52,16.424,4.5,16.775,4.5
		c1.742-0.003,3.486-0.001,5.229,0c0.114,0,0.23,0.027,0.342,0.024c0.07-0.001,0.141-0.035,0.209-0.056
		c0.003,0.045,0.006,0.089,0.006,0.133c0,4.769,0,9.535,0,14.301c0,0.039-0.003,0.076-0.003,0.115c-0.343,0-0.685,0-1.024,0
		c0-0.062,0-0.111,0-0.162c0-2.188,0.003-4.377,0-6.563c0-0.051-0.025-0.102-0.035-0.154c0.01-0.073,0.029-0.15,0.029-0.224
		c0.002-1.981,0.002-3.964,0.002-5.946c0-0.053,0-0.107,0-0.161c-1.623,0-3.224,0-4.82,0c-0.007,0.016-0.01,0.021-0.01,0.027
		c0,2.054-0.003,4.108-0.003,6.161c0,0.048,0.02,0.096,0.025,0.144c-0.013,0.09-0.039,0.18-0.039,0.27
		C16.683,14.604,16.683,16.797,16.683,18.99z"/>
	<path fill-rule="evenodd" clip-rule="evenodd" fill="#E56200" d="M16.683,18.99c0-2.193,0-4.386,0-6.583
		c0-0.089,0.026-0.18,0.039-0.27c0.419-0.003,0.843-0.005,1.262-0.005c1.171,0.002,2.343,0.002,3.515,0.005
		c0.01,0.052,0.035,0.103,0.035,0.154c0.003,2.186,0,4.375,0,6.563c0,0.051,0,0.1,0,0.162c0.34,0,0.682,0,1.024,0
		c0.218,0.01,0.432,0.016,0.649,0.023c0.01,0.002,0.016,0.008,0.02,0.02c-0.055-0.008-0.109-0.014-0.163-0.014
		c-2.09,0-4.178,0-6.265,0c-0.782,0.002-1.562,0.006-2.344,0.006c-0.044-0.01-0.09-0.02-0.135-0.027c0-1.02,0.004-2.041,0.004-3.058
		c0-1.04-0.004-2.081-0.006-3.121l0.006-0.012c0.01,0.07,0.029,0.14,0.029,0.207c0.003,1.921,0.003,3.842,0.003,5.764
		c0,0.062,0,0.127,0,0.201c0.048,0.006,0.079,0.016,0.108,0.016c0.698,0,1.396,0,2.094-0.004
		C16.601,19.018,16.643,18.998,16.683,18.99z"/>
	<path fill-rule="evenodd" clip-rule="evenodd" fill="#E56200" d="M22.555,4.469c-0.068,0.021-0.139,0.055-0.209,0.056
		C22.234,4.528,22.118,4.5,22.004,4.5c-1.742-0.001-3.486-0.003-5.229,0c-0.352,0-0.704,0.02-1.055,0.031
		c0-0.125,0.002-0.248,0.002-0.374c2.199,0.002,4.399,0.002,6.601,0.003c0.07,0,0.142,0.003,0.216,0.005
		C22.544,4.267,22.548,4.368,22.555,4.469z"/>
	<path fill-rule="evenodd" clip-rule="evenodd" fill="#FDFDFD" d="M13.028,5.79c0.425,0,0.848,0,1.286,0
		c0.006,0.054,0.013,0.096,0.013,0.138c0,2.031,0,4.06,0,6.09c0,0.039-0.007,0.077-0.007,0.116c-2.058,0-4.119,0-6.176,0
		c-0.003-0.049-0.009-0.1-0.009-0.147c0-2.007,0-4.016,0-6.025c0-0.05,0-0.097,0-0.171c0.443,0,0.872,0,1.303,0
		c0.507,0.003,1.013,0.008,1.522,0.006C11.647,5.796,12.336,5.792,13.028,5.79z M13.886,9.334c-1.771,0-3.534,0-5.303,0
		c0,0.788,0,1.56,0,2.334c1.772,0,3.533,0,5.303,0C13.886,10.894,13.886,10.128,13.886,9.334z M11.475,6.239
		c0,0.887,0,1.761,0,2.637c0.81,0,1.604,0,2.401,0c0-0.885,0-1.76,0-2.637C13.068,6.239,12.274,6.239,11.475,6.239z M8.578,8.873
		c0.815,0,1.613,0,2.414,0c0-0.883,0-1.754,0-2.631c-0.81,0-1.608,0-2.414,0C8.578,7.123,8.578,7.99,8.578,8.873z"/>
	<path fill-rule="evenodd" clip-rule="evenodd" fill="#F48B00" d="M13.028,5.79c-0.692,0.003-1.381,0.006-2.068,0.006
		C10.451,5.797,9.945,5.792,9.438,5.79c0-0.896-0.001-1.795,0-2.692c0-0.064,0.014-0.128,0.022-0.193
		c0.001,0.049,0.003,0.099,0.003,0.148c-0.003,0.748,0.453,1.407,1.15,1.665c0.708,0.259,1.489,0.053,1.975-0.519
		c0.316-0.375,0.433-0.813,0.413-1.294c0.009,0.065,0.022,0.129,0.022,0.193C13.028,3.995,13.028,4.891,13.028,5.79z"/>
	<path fill-rule="evenodd" clip-rule="evenodd" fill="#F48B00" d="M8.144,12.133c2.057,0,4.119,0,6.176,0
		c0,0.233,0.004,0.466,0.004,0.701l-0.006,0.012c-2.06,0-4.117,0-6.174,0L8.14,12.834C8.141,12.599,8.143,12.366,8.144,12.133z"/>
	<path fill-rule="evenodd" clip-rule="evenodd" fill="#FDF9DC" d="M13.002,2.904c0.02,0.481-0.097,0.92-0.413,1.294
		c-0.486,0.571-1.268,0.778-1.975,0.519C9.916,4.459,9.46,3.799,9.463,3.052c0-0.049-0.002-0.099-0.003-0.148
		c0.12-1.019,0.927-1.614,1.756-1.623C12.142,1.271,12.858,1.927,13.002,2.904z M11.238,4.508c0.813-0.002,1.457-0.646,1.453-1.455
		c0-0.805-0.649-1.45-1.459-1.45c-0.807,0.001-1.461,0.657-1.457,1.458C9.78,3.872,10.428,4.51,11.238,4.508z"/>
	<path fill-rule="evenodd" clip-rule="evenodd" fill="#CFA702" d="M8.143,19.025l-0.016,0.002H8.111
		c0-2.023-0.002-4.046-0.002-6.069c0-0.042,0.02-0.084,0.031-0.125l0.004,0.012C8.144,14.904,8.143,16.965,8.143,19.025z"/>
	<path fill-rule="evenodd" clip-rule="evenodd" fill="#FDFDFD" d="M5.745,12.133c-1.604,0-3.208,0-4.811-0.003
		c-0.001-0.679-0.005-1.36-0.005-2.042c-0.001-1.352,0-2.704,0-4.055c0-0.072,0-0.142,0-0.225c1.608,0,3.206,0,4.814,0
		c0.003,0.043,0.01,0.086,0.01,0.128c0,2.028,0,4.056,0,6.082C5.753,12.056,5.747,12.094,5.745,12.133z M5.31,9.332
		c-0.042-0.003-0.067-0.01-0.095-0.01c-1.236,0-2.47,0.003-3.706-0.003c-0.122,0-0.147,0.048-0.147,0.157
		c0.004,0.688,0.001,1.373,0.003,2.062c0,0.045,0.008,0.093,0.011,0.135c1.32,0,2.625,0,3.933,0C5.31,10.887,5.31,10.119,5.31,9.332
		z M5.301,8.88c0-0.89,0-1.765,0-2.638c-0.589,0-1.162,0-1.738,0c0,0.884,0,1.756,0,2.638C4.145,8.88,4.717,8.88,5.301,8.88z
		 M1.374,8.873c0.585,0,1.162,0,1.734,0c0-0.885,0-1.757,0-2.631c-0.583,0-1.155,0-1.734,0C1.374,7.126,1.374,7.997,1.374,8.873z"/>
	<path fill-rule="evenodd" clip-rule="evenodd" fill="#6F310A" d="M8.143,19.025c0-2.061,0.001-4.122,0.001-6.179
		c2.057,0,4.115,0,6.174,0c0.002,1.04,0.006,2.081,0.006,3.121c0,1.017-0.004,2.039-0.004,3.058
		c-0.183,0.006-0.364,0.018-0.544,0.016c-0.042,0-0.093-0.055-0.115-0.098c-0.02-0.031-0.003-0.086-0.003-0.131
		c0-1.725-0.003-3.453,0.003-5.179c0-0.147-0.031-0.198-0.191-0.198c-1.482,0.007-2.964,0.007-4.45,0
		c-0.165,0-0.217,0.045-0.217,0.214c0.006,1.723,0.003,3.445,0.003,5.167c0,0.225,0,0.221-0.214,0.209
		C8.442,19.018,8.292,19.025,8.143,19.025z"/>
	<path fill-rule="evenodd" clip-rule="evenodd" fill="#421008" d="M14.455,19.053c0.781,0,1.562-0.004,2.344-0.006
		c2.087,0,4.175,0,6.265,0c0.054,0,0.108,0.006,0.163,0.014c0,0.162,0,0.326,0,0.492c-0.01,0-0.02,0-0.028,0
		c0-0.115-0.007-0.229,0-0.34c0.003-0.096-0.035-0.131-0.129-0.125c-0.041,0.004-0.086,0-0.131,0c-2.759,0-5.52,0-8.278,0
		C14.594,19.088,14.521,19.066,14.455,19.053z"/>
	<path fill-rule="evenodd" clip-rule="evenodd" fill="#FDFDFD" d="M21.498,12.138c-1.172-0.003-2.344-0.003-3.515-0.005
		c-0.419,0-0.843,0.002-1.262,0.005c-0.006-0.047-0.025-0.095-0.025-0.144c0-2.052,0.003-4.107,0.003-6.161
		c0-0.006,0.003-0.011,0.01-0.027c1.597,0,3.197,0,4.82,0c0,0.054,0,0.108,0,0.161c0,1.981,0,3.965-0.002,5.946
		C21.527,11.988,21.508,12.065,21.498,12.138z M17.147,11.646c0.062,0.013,0.121,0.039,0.179,0.039c1.188,0.003,2.373,0.003,3.557,0
		c0.058,0,0.119-0.003,0.189-0.007c0-0.791,0-1.565,0-2.346c-1.31,0-2.608,0-3.925,0c0,0.765,0,1.523,0,2.279
		C17.147,11.623,17.147,11.633,17.147,11.646z M18.89,8.883c0-0.895,0-1.769,0-2.641c-0.589,0-1.16,0-1.732,0
		c0,0.888,0,1.762,0,2.641C17.739,8.883,18.31,8.883,18.89,8.883z M21.091,6.241c-0.592,0-1.165,0-1.738,0c0,0.886,0,1.764,0,2.649
		c0.552,0,1.089-0.003,1.623,0c0.091,0,0.119-0.037,0.119-0.119C21.091,7.931,21.091,7.09,21.091,6.241z"/>
	<path fill-rule="evenodd" clip-rule="evenodd" fill="#81D7DE" d="M13.886,9.334c0,0.794,0,1.56,0,2.334c-1.771,0-3.531,0-5.303,0
		c0-0.775,0-1.546,0-2.334C10.352,9.334,12.115,9.334,13.886,9.334z"/>
	<path fill-rule="evenodd" clip-rule="evenodd" fill="#81D7DE" d="M11.475,6.239c0.799,0,1.593,0,2.401,0c0,0.877,0,1.752,0,2.637
		c-0.797,0-1.591,0-2.401,0C11.475,8,11.475,7.126,11.475,6.239z"/>
	<path fill-rule="evenodd" clip-rule="evenodd" fill="#81D7DE" d="M8.578,8.873c0-0.883,0-1.75,0-2.631c0.805,0,1.604,0,2.414,0
		c0,0.877,0,1.748,0,2.631C10.191,8.873,9.393,8.873,8.578,8.873z"/>
	<path fill-rule="evenodd" clip-rule="evenodd" fill="#63AFB7" d="M11.238,4.508C10.428,4.51,9.78,3.872,9.775,3.062
		c-0.005-0.8,0.65-1.457,1.457-1.458c0.81,0,1.459,0.645,1.459,1.45C12.695,3.862,12.052,4.506,11.238,4.508z M11.13,1.98
		c0,0.23,0.005,0.44-0.007,0.649c-0.003,0.073-0.042,0.154-0.089,0.21c-0.119,0.134-0.135,0.301-0.023,0.417
		c0.096,0.104,0.314,0.135,0.403,0.024c0.105-0.128,0.225-0.116,0.355-0.116c0.132,0,0.266-0.006,0.396,0.002
		c0.161,0.01,0.181-0.064,0.135-0.205c-0.212,0-0.419,0.002-0.631,0c-0.191,0-0.333-0.146-0.336-0.341c0-0.213,0-0.427,0-0.642
		C11.254,1.98,11.204,1.98,11.13,1.98z"/>
	<path fill-rule="evenodd" clip-rule="evenodd" fill="#63AFB7" d="M5.31,9.332c0,0.787,0,1.555,0,2.34c-1.309,0-2.613,0-3.933,0
		c-0.003-0.042-0.011-0.09-0.011-0.135c-0.001-0.689,0.001-1.374-0.003-2.062c0-0.109,0.025-0.157,0.147-0.157
		c1.236,0.006,2.47,0.003,3.706,0.003C5.243,9.321,5.268,9.328,5.31,9.332z"/>
	<path fill-rule="evenodd" clip-rule="evenodd" fill="#63AFB7" d="M5.301,8.88c-0.584,0-1.157,0-1.738,0c0-0.882,0-1.754,0-2.638
		c0.576,0,1.149,0,1.738,0C5.301,7.115,5.301,7.99,5.301,8.88z"/>
	<path fill-rule="evenodd" clip-rule="evenodd" fill="#63AFB7" d="M1.374,8.873c0-0.876,0-1.747,0-2.631c0.579,0,1.151,0,1.734,0
		c0,0.874,0,1.746,0,2.631C2.536,8.873,1.959,8.873,1.374,8.873z"/>
	<path fill-rule="evenodd" clip-rule="evenodd" fill="#63AFB7" d="M17.147,11.646c0-0.012,0-0.022,0-0.035
		c0.016-0.038,0.042-0.077,0.042-0.115c0-0.659-0.004-1.315-0.011-1.976c0-0.098,0.026-0.137,0.132-0.137
		c1.2,0.003,2.401,0.003,3.602,0c0.08,0,0.125,0.019,0.125,0.112c-0.004,0.71,0,1.421,0,2.151
		C19.724,11.646,18.438,11.646,17.147,11.646z"/>
	<path fill-rule="evenodd" clip-rule="evenodd" fill="#63AFB7" d="M18.89,8.883c-0.58,0-1.15,0-1.732,0c0-0.879,0-1.753,0-2.641
		c0.572,0,1.144,0,1.732,0C18.89,7.115,18.89,7.988,18.89,8.883z"/>
	<path fill-rule="evenodd" clip-rule="evenodd" fill="#63AFB7" d="M21.091,6.241c0,0.85,0,1.69,0.004,2.53
		c0,0.083-0.028,0.119-0.119,0.119c-0.534-0.003-1.071,0-1.623,0c0-0.886,0-1.763,0-2.649C19.926,6.241,20.499,6.241,21.091,6.241z"
		/>
	<path fill-rule="evenodd" clip-rule="evenodd" fill="#5EADB3" d="M17.147,11.646c1.29,0,2.576,0,3.89,0c0-0.729-0.004-1.44,0-2.151
		c0-0.093-0.045-0.112-0.125-0.112c-1.2,0.003-2.401,0.003-3.602,0c-0.105,0-0.132,0.039-0.132,0.137
		c0.007,0.661,0.011,1.316,0.011,1.976c0,0.039-0.026,0.077-0.042,0.115c0-0.755,0-1.514,0-2.279c1.316,0,2.615,0,3.925,0
		c0,0.781,0,1.555,0,2.346c-0.07,0.003-0.132,0.007-0.189,0.007c-1.184,0.003-2.368,0.003-3.557,0
		C17.269,11.684,17.209,11.658,17.147,11.646z"/>
	<path fill-rule="evenodd" clip-rule="evenodd" fill="#3F494B" d="M11.13,1.98c0.074,0,0.125,0,0.204,0c0,0.214,0,0.429,0,0.642
		c0.003,0.195,0.145,0.341,0.336,0.341c0.212,0.002,0.419,0,0.631,0c0.046,0.141,0.026,0.215-0.135,0.205
		c-0.131-0.008-0.265-0.002-0.396-0.002c-0.131,0-0.25-0.012-0.355,0.116c-0.089,0.11-0.307,0.08-0.403-0.024
		c-0.112-0.117-0.096-0.283,0.023-0.417c0.047-0.056,0.086-0.137,0.089-0.21C11.135,2.42,11.13,2.21,11.13,1.98z"/>
</g>
</svg>
