<?xml version="1.0" encoding="utf-8"?>
<!-- Generator: Adobe Illustrator 16.0.0, SVG Export Plug-In . SVG Version: 6.00 Build 0)  -->
<!DOCTYPE svg PUBLIC "-//W3C//DTD SVG 1.1//EN" "http://www.w3.org/Graphics/SVG/1.1/DTD/svg11.dtd">
<svg version="1.1" id="Layer_1" xmlns="http://www.w3.org/2000/svg" xmlns:xlink="http://www.w3.org/1999/xlink" x="0px" y="0px"
	 width="27.984px" height="38.875px" viewBox="0 0 27.984 38.875" enable-background="new 0 0 27.984 38.875" xml:space="preserve">
<ellipse opacity="0.1" fill="#1E1100" enable-background="new    " cx="13.992" cy="37.596" rx="11.188" ry="1.279"/>
<path fill="#58B7B7" d="M10.069,26.949c-2.028-0.399-3.979-1.178-5.764-2.241l-3.005,1.571c2.059,1.449,4.361,2.553,6.809,3.188
	c0.627,0.165,1.578,0.161,1.888,0.789l1.043,2.035l2.278,4.508c0.074,0.148,0.343,0.953,0.573,0.771s0.361-0.681,0.488-0.938
	l1.074-2.153l1.195-2.375l0.566-1.115c0.15-0.305,0.305-0.785,0.551-1.014c0.26-0.242,0.785-0.246,1.117-0.312
	c0.375-0.076,0.732-0.182,1.096-0.297l2.283-0.846c1.5-0.642,2.891-1.43,4.229-2.354c0.068-0.047,0.127-0.104,0.193-0.151
	l-3.262-1.36C19.401,27.02,14.653,27.835,10.069,26.949z"/>
<g>
	<path opacity="0.15" fill="#FFFFFF" enable-background="new    " d="M5.925,25.374l-2.229,2.224l1.201,0.562l2.159-2.287
		L5.925,25.374z"/>
	<path opacity="0.15" fill="#FFFFFF" enable-background="new    " d="M8.006,26.234l-1.639,2.519l0.404,0.146l2.057-2.402
		L8.006,26.234z"/>
	<path opacity="0.15" fill="#FFFFFF" enable-background="new    " d="M22.11,25.619l2.18,2.175l-1.168,0.603l-2.143-2.265
		L22.11,25.619z"/>
	<path opacity="0.15" fill="#FFFFFF" enable-background="new    " d="M13.096,27.232l3.251-0.129l-4.354,6.082l-0.488-0.949
		L13.096,27.232L13.096,27.232z"/>
	<path opacity="0.15" fill="#FFFFFF" enable-background="new    " d="M19.967,26.369l1.727,2.496l-0.434,0.182l-1.979-2.416
		L19.967,26.369z"/>
</g>
<g>
	<path fill-rule="evenodd" clip-rule="evenodd" fill="#FFA105" stroke="#F48B00" stroke-width="0.75" stroke-miterlimit="10" d="
		M4.826,21.522c0.01-0.085,0.025-0.171,0.032-0.258c0.177-2.081,0.969-3.895,2.37-5.438c0.957-1.052,2.104-1.832,3.427-2.356
		c0.077-0.03,0.135-0.03,0.21,0.015c0.814,0.489,1.693,0.78,2.641,0.854c1.311,0.101,2.525-0.195,3.652-0.869
		c0.037-0.021,0.096-0.027,0.133-0.013c2.854,1.167,4.715,3.229,5.566,6.192c0.16,0.559,0.244,1.136,0.283,1.714
		c0.002,0.022,0.012,0.046,0.018,0.068c0,0.189,0,0.377,0,0.568c-6.111,0-12.223,0-18.333,0C4.826,21.841,4.826,21.683,4.826,21.522
		z"/>
	<path fill-rule="evenodd" clip-rule="evenodd" fill="#E56200" stroke="#F48B00" stroke-width="0.75" stroke-miterlimit="10" d="
		M14.341,3.665c0.116,0.018,0.232,0.034,0.347,0.054c1.547,0.266,2.686,1.097,3.408,2.486c0.383,0.731,0.531,1.521,0.473,2.34
		c-0.086,1.271-0.615,2.334-1.572,3.17c-0.752,0.656-1.633,1.031-2.632,1.101c-1.507,0.104-2.779-0.407-3.793-1.521
		c-0.649-0.713-1.021-1.563-1.128-2.525c-0.129-1.17,0.144-2.242,0.832-3.194c0.725-1.005,1.708-1.62,2.932-1.841
		c0.14-0.025,0.279-0.047,0.419-0.07C13.864,3.665,14.102,3.665,14.341,3.665z"/>
</g>
</svg>
