<?xml version="1.0" encoding="utf-8"?>
<!-- Generator: Adobe Illustrator 16.0.0, SVG Export Plug-In . SVG Version: 6.00 Build 0)  -->
<!DOCTYPE svg PUBLIC "-//W3C//DTD SVG 1.1//EN" "http://www.w3.org/Graphics/SVG/1.1/DTD/svg11.dtd">
<svg version="1.1" id="Layer_1" xmlns="http://www.w3.org/2000/svg" xmlns:xlink="http://www.w3.org/1999/xlink" x="0px" y="0px"
	 width="22px" height="31.705px" viewBox="0 0 22 31.705" enable-background="new 0 0 22 31.705" xml:space="preserve">
<ellipse opacity="0.1" fill="#1E1100" enable-background="new    " cx="10.984" cy="30.664" rx="9.104" ry="1.042"/>
<g>
	<path fill="#FFA105" d="M10.999,0.061c-4.66,0-8.438,3.778-8.438,8.438c0,4.66,3.778,8.439,8.438,8.439
		c4.661,0,8.44-3.779,8.44-8.439C19.439,3.838,15.66,0.061,10.999,0.061z M10.999,4.514c-2.197,0-3.984,1.787-3.984,3.985
		c0,0.388-0.315,0.704-0.703,0.704c-0.388,0-0.704-0.316-0.704-0.704c0-2.973,2.419-5.391,5.391-5.391
		c0.388,0,0.704,0.315,0.704,0.703C11.703,4.199,11.387,4.514,10.999,4.514z"/>
	<path fill="#58B7B7" d="M9.125,18.953v9.182l1.291,1.937c0.278,0.417,0.892,0.417,1.171,0l1.289-1.937v-9.182
		c-0.609,0.112-1.234,0.18-1.876,0.18C10.359,19.133,9.733,19.065,9.125,18.953z"/>
</g>
</svg>
