<?xml version="1.0" encoding="utf-8"?>
<!-- Generator: Adobe Illustrator 16.0.0, SVG Export Plug-In . SVG Version: 6.00 Build 0)  -->
<!DOCTYPE svg PUBLIC "-//W3C//DTD SVG 1.1//EN" "http://www.w3.org/Graphics/SVG/1.1/DTD/svg11.dtd">
<svg version="1.1" id="Layer_1" xmlns="http://www.w3.org/2000/svg" xmlns:xlink="http://www.w3.org/1999/xlink" x="0px" y="0px"
	 width="50px" height="50px" viewBox="0 0 50 50" enable-background="new 0 0 50 50" xml:space="preserve">
<g id="Layer_1_1_" display="none">
	<circle display="inline" fill="#00A14B" cx="25" cy="25" r="14.198"/>
	<circle display="inline" fill="#00A14B" fill-opacity="0.8" cx="25.001" cy="25" r="16.566"/>
	<circle display="inline" fill="#00A14B" fill-opacity="0.5" cx="25" cy="25" r="18.933"/>
	<circle display="inline" fill="#00A14B" fill-opacity="0.2" cx="24.999" cy="25" r="21.3"/>
	<circle display="inline" fill="#00A14B" fill-opacity="0.2" cx="25" cy="25" r="23.665"/>
	
		<circle display="inline" opacity="0.5" fill="none" stroke="#FFFFFF" stroke-width="1.5" stroke-miterlimit="10" enable-background="new    " cx="25" cy="25" r="11.184"/>
</g>
<g id="Layer_2">
	<g>
		<radialGradient id="SVGID_1_" cx="25.001" cy="25" r="22.4125" gradientUnits="userSpaceOnUse">
			<stop  offset="0" style="stop-color:#FFD97B"/>
			<stop  offset="1" style="stop-color:#FFA800"/>
		</radialGradient>
		<polygon opacity="0.6" fill="url(#SVGID_1_)" stroke="#FFAA00" stroke-miterlimit="10" points="13.021,45.75 1.041,25.001 
			13.021,4.25 36.981,4.25 48.961,25.001 36.981,45.75 		"/>
		<radialGradient id="SVGID_2_" cx="25.001" cy="24.999" r="18.8781" gradientUnits="userSpaceOnUse">
			<stop  offset="0" style="stop-color:#FFD97B"/>
			<stop  offset="1" style="stop-color:#FFA800"/>
		</radialGradient>
		<polygon opacity="0.4" fill="url(#SVGID_2_)" enable-background="new    " points="14.911,42.477 4.82,25.001 14.911,7.522 
			35.093,7.522 45.183,25.001 35.093,42.477 		"/>
		<radialGradient id="SVGID_3_" cx="25.001" cy="25" r="15.9021" gradientUnits="userSpaceOnUse">
			<stop  offset="0" style="stop-color:#FFD97B"/>
			<stop  offset="1" style="stop-color:#FFA800"/>
		</radialGradient>
		<polygon opacity="0.6" fill="url(#SVGID_3_)" enable-background="new    " points="16.501,39.723 8.001,25 16.501,10.277 
			33.502,10.277 42.001,25 33.502,39.723 		"/>
		<radialGradient id="SVGID_4_" cx="25" cy="25" r="12.5728" gradientUnits="userSpaceOnUse">
			<stop  offset="0" style="stop-color:#FFD97B"/>
			<stop  offset="1" style="stop-color:#FFA800"/>
		</radialGradient>
		<polygon opacity="0.5" fill="url(#SVGID_4_)" enable-background="new    " points="18.281,36.641 11.56,25 18.281,13.36 
			31.722,13.36 38.44,25 31.722,36.641 		"/>
		<radialGradient id="SVGID_5_" cx="25.002" cy="25" r="10.692" gradientUnits="userSpaceOnUse">
			<stop  offset="0" style="stop-color:#FFD97B"/>
			<stop  offset="1" style="stop-color:#FFA800"/>
		</radialGradient>
		<linearGradient id="SVGID_6_" gradientUnits="userSpaceOnUse" x1="12.9932" y1="25" x2="37.0098" y2="25">
			<stop  offset="0" style="stop-color:#FF9200"/>
			<stop  offset="1" style="stop-color:#FFB400"/>
		</linearGradient>
		<polygon fill="url(#SVGID_5_)" stroke="url(#SVGID_6_)" stroke-miterlimit="10" points="19.286,34.898 13.571,25 19.286,15.101 
			30.716,15.101 36.433,25 30.716,34.898 		"/>
	</g>
</g>
</svg>
