<?xml version="1.0" encoding="utf-8"?>
<!-- Generator: Adobe Illustrator 16.0.0, SVG Export Plug-In . SVG Version: 6.00 Build 0)  -->
<!DOCTYPE svg PUBLIC "-//W3C//DTD SVG 1.1//EN" "http://www.w3.org/Graphics/SVG/1.1/DTD/svg11.dtd">
<svg version="1.1" id="Layer_1" xmlns="http://www.w3.org/2000/svg" xmlns:xlink="http://www.w3.org/1999/xlink" x="0px" y="0px"
	 width="27.984px" height="38.875px" viewBox="0 0 27.984 38.875" enable-background="new 0 0 27.984 38.875" xml:space="preserve">
<ellipse opacity="0.1" fill="#1E1100" enable-background="new    " cx="13.992" cy="37.298" rx="11.188" ry="1.279"/>
<path fill="#58B7B7" d="M10.07,26.651c-2.028-0.399-3.979-1.178-5.764-2.241l-3.005,1.571c2.059,1.449,4.361,2.553,6.809,3.188
	c0.627,0.165,1.578,0.161,1.888,0.789l1.043,2.035l2.278,4.508c0.074,0.148,0.343,0.953,0.573,0.771s0.361-0.681,0.488-0.938
	l1.073-2.153l1.195-2.375l0.566-1.115c0.15-0.305,0.305-0.785,0.551-1.014c0.26-0.242,0.785-0.246,1.117-0.312
	c0.375-0.076,0.732-0.182,1.096-0.297l2.283-0.846c1.5-0.642,2.891-1.43,4.229-2.354c0.068-0.047,0.127-0.104,0.193-0.151
	l-3.262-1.36C19.401,26.722,14.653,27.537,10.07,26.651z"/>
<g>
	<path opacity="0.15" fill="#FFFFFF" enable-background="new    " d="M5.924,25.076L3.696,27.3l1.201,0.562l2.159-2.287
		L5.924,25.076z"/>
	<path opacity="0.15" fill="#FFFFFF" enable-background="new    " d="M8.005,25.937l-1.639,2.519l0.404,0.146l2.057-2.402
		L8.005,25.937z"/>
	<path opacity="0.15" fill="#FFFFFF" enable-background="new    " d="M22.11,25.321l2.18,2.175l-1.168,0.603l-2.143-2.265
		L22.11,25.321z"/>
	<path opacity="0.15" fill="#FFFFFF" enable-background="new    " d="M13.096,26.935l3.252-0.129l-4.354,6.082l-0.488-0.949
		L13.096,26.935L13.096,26.935z"/>
	<path opacity="0.15" fill="#FFFFFF" enable-background="new    " d="M19.967,26.071l1.727,2.496l-0.434,0.182l-1.979-2.416
		L19.967,26.071z"/>
</g>
<g>
	<g id="vcp3DF.tif">
		<g>
			<path fill="#FFA105" d="M11.67,21.522c-0.039,0.001-0.077,0.004-0.115,0.004c-1.658,0-3.315,0-4.973,0
				c-0.039,0-0.076,0.001-0.115,0.001c-0.131,0-0.263,0-0.406,0c0-0.057,0-0.101,0-0.145c0-2.873,0-5.745,0-8.619
				c0-0.048-0.002-0.096-0.003-0.144c0.28-0.285,0.557-0.572,0.839-0.855c0.32-0.321,0.646-0.638,0.966-0.958
				c0.45-0.451,0.897-0.906,1.348-1.356c0.584-0.584,1.173-1.167,1.759-1.751c0.189-0.189,0.373-0.382,0.563-0.571
				c0.316-0.316,0.635-0.628,0.952-0.944c0.425-0.423,0.848-0.846,1.27-1.27c0.076-0.077,0.147-0.16,0.222-0.245
				c0.043,0.04,0.069,0.062,0.094,0.088c0.577,0.576,1.151,1.15,1.728,1.727c0.24,0.241,0.48,0.483,0.721,0.724
				c0.451,0.45,0.902,0.898,1.352,1.348c0.428,0.428,0.854,0.854,1.281,1.282c0.475,0.475,0.951,0.95,1.426,1.425
				c0.453,0.453,0.906,0.905,1.355,1.359c0.027,0.024,0.049,0.052,0.07,0.079c0,0.042-0.004,0.083-0.004,0.125
				c0,2.854,0,5.71,0,8.564c0,0.042,0,0.082,0,0.129c-0.029,0.003-0.055,0.007-0.08,0.007c-1.803,0-3.607,0-5.412,0
				c-0.02,0-0.039-0.002-0.059-0.004c0-2.563,0-5.126,0-7.689c-1.6,0-3.184,0-4.777,0C11.67,16.4,11.67,18.96,11.67,21.522z
				 M15.379,8.418c-0.905,0-1.802,0-2.696,0c0,0.911,0,1.814,0,2.716c0.903,0,1.796,0,2.696,0
				C15.379,10.227,15.379,9.326,15.379,8.418z"/>
			<polygon opacity="0.1" enable-background="new    " points="21.449,12.779 13.978,5.304 6.057,13.281 6.057,10.837 14.024,2.793 
				23.211,11.976 22.002,11.405 22.037,13.338 			"/>
			<path fill="#CC2314" d="M22.002,12.701c-0.021-0.027-0.043-0.055-0.07-0.08c-0.451-0.453-0.904-0.906-1.357-1.358
				c-0.475-0.476-0.949-0.95-1.424-1.426c-0.428-0.428-0.855-0.854-1.281-1.281c-0.451-0.45-0.902-0.899-1.352-1.348
				c-0.242-0.241-0.48-0.483-0.723-0.724c-0.574-0.577-1.15-1.151-1.727-1.727c-0.023-0.025-0.049-0.047-0.092-0.087
				C13.9,4.753,13.83,4.836,13.754,4.914c-0.423,0.425-0.846,0.847-1.27,1.271c-0.316,0.315-0.637,0.628-0.953,0.944
				c-0.189,0.188-0.373,0.381-0.562,0.571c-0.585,0.583-1.174,1.167-1.76,1.75c-0.451,0.451-0.897,0.906-1.349,1.356
				c-0.32,0.32-0.646,0.637-0.965,0.958c-0.282,0.282-0.559,0.569-0.84,0.854c-0.222,0.232-0.444,0.466-0.667,0.699
				c-0.47-0.472-0.918-0.92-1.37-1.374c3.328-3.315,6.666-6.64,10.009-9.971c0.03,0.028,0.056,0.051,0.08,0.075
				c3.264,3.263,6.526,6.526,9.79,9.791c0.094,0.093,0.094,0.093,0,0.186c-0.398,0.399-0.797,0.798-1.195,1.198
				c-0.023,0.023-0.043,0.053-0.066,0.079c-0.027-0.02-0.061-0.036-0.084-0.06C22.367,13.062,22.186,12.881,22.002,12.701z"/>
			<path fill="#491D05" stroke="#6F310A" stroke-width="0.75" stroke-miterlimit="10" d="M11.67,21.522c0-2.562,0-5.123,0-7.689
				c1.592,0,3.178,0,4.778,0c0,2.562,0,5.126,0,7.689c-0.025,0.001-0.051,0.004-0.076,0.004c-1.543,0-3.083,0-4.625,0
				C11.722,21.526,11.695,21.523,11.67,21.522z"/>
			<path fill="#81D7DE" stroke="#FFFFFF" stroke-width="0.4" stroke-miterlimit="10" d="M15.379,8.418c0,0.907,0,1.809,0,2.716
				c-0.899,0-1.794,0-2.696,0c0-0.902,0-1.805,0-2.716C13.577,8.418,14.474,8.418,15.379,8.418z"/>
		</g>
	</g>
	<rect x="3.928" y="21.252" fill="#491D05" width="20.128" height="0.639"/>
</g>
</svg>
