<?xml version="1.0" encoding="utf-8"?>
<!-- Generator: Adobe Illustrator 16.0.0, SVG Export Plug-In . SVG Version: 6.00 Build 0)  -->
<!DOCTYPE svg PUBLIC "-//W3C//DTD SVG 1.1//EN" "http://www.w3.org/Graphics/SVG/1.1/DTD/svg11.dtd">
<svg version="1.1" id="Layer_1" xmlns="http://www.w3.org/2000/svg" xmlns:xlink="http://www.w3.org/1999/xlink" x="0px" y="0px"
	 width="43.25px" height="45px" viewBox="-7.674 1.271 43.25 45" enable-background="new -7.674 1.271 43.25 45"
	 xml:space="preserve">
<ellipse opacity="0.1" fill="#1E1100" enable-background="new    " cx="13.992" cy="44.304" rx="17.207" ry="1.968"/>
<path fill="#58B7B7" d="M7.959,27.93c-3.12-0.614-6.119-1.812-8.865-3.447l-4.621,2.417c3.166,2.229,6.707,3.926,10.471,4.902
	c0.964,0.253,2.427,0.247,2.903,1.213l1.604,3.13l3.504,6.934c0.114,0.228,0.527,1.466,0.882,1.187s0.556-1.048,0.751-1.443
	l1.65-3.312l1.84-3.653l0.87-1.715c0.231-0.469,0.469-1.207,0.848-1.56c0.399-0.372,1.207-0.378,1.719-0.48
	c0.576-0.117,1.126-0.279,1.685-0.456l3.511-1.301c2.308-0.987,4.446-2.199,6.504-3.619c0.104-0.073,0.195-0.16,0.298-0.233
	L28.495,24.4C22.31,28.038,15.008,29.292,7.959,27.93z"/>
<g>
	<path opacity="0.15" fill="#FFFFFF" enable-background="new    " d="M1.585,25.507l-3.428,3.421l1.848,0.864l3.32-3.518
		L1.585,25.507z"/>
	<path opacity="0.15" fill="#FFFFFF" enable-background="new    " d="M4.785,26.83l-2.521,3.874l0.622,0.224l3.163-3.695
		L4.785,26.83z"/>
	<path opacity="0.15" fill="#FFFFFF" enable-background="new    " d="M26.477,25.884l3.353,3.345l-1.797,0.927l-3.295-3.482
		L26.477,25.884z"/>
	<path opacity="0.15" fill="#FFFFFF" enable-background="new    " d="M12.615,28.364l5.001-0.197l-6.697,9.354l-0.751-1.46
		L12.615,28.364L12.615,28.364z"/>
	<path opacity="0.15" fill="#FFFFFF" enable-background="new    " d="M23.181,27.038l2.655,3.838l-0.666,0.279l-3.044-3.715
		L23.181,27.038z"/>
</g>
<g>
	<g>
		<path fill="#FFA105" d="M0.935,10.138H1.54c0.013,0.004,0.026,0.011,0.04,0.012c0.361,0.023,0.716,0.076,1.068,0.152
			c0.692,0.147,1.363,0.359,1.993,0.688c0.26,0.136,0.508,0.292,0.713,0.503c0.168,0.17,0.274,0.368,0.254,0.618
			C5.604,12.17,5.61,12.23,5.61,12.29v0.094l-0.003,0.067v2.854H-3.12l0-2.842l-0.004-0.08V12.29l0.004-0.253
			c0-0.128,0.028-0.249,0.107-0.35c0.088-0.109,0.182-0.219,0.29-0.31c0.318-0.267,0.688-0.451,1.069-0.606
			c0.785-0.324,1.602-0.534,2.45-0.613c0.045-0.003,0.089-0.011,0.137-0.019L0.935,10.138z M0.887,14.798v-0.211v-0.186v-0.481
			l0.006-0.079v-1.25L0.89,12.413c0.002-0.045,0.012-0.083-0.044-0.083l-0.554,0.003h-0.04H0.155c-0.128,0-0.254,0-0.382,0h-0.459
			l-0.903-0.004c-0.292,0-0.585,0-0.875-0.001c-0.057,0-0.076,0.021-0.073,0.074c0.002,0.054,0,0.105,0,0.16l0.006,1.333
			l-0.001,0.372l0.001,0.16v0.383l-0.002,0.103v0.036c-0.001,0.01,0,0.013,0.001,0.016c0.023,0.002,0.046,0.009,0.072,0.009h1.783
			l0.086-0.002h1.489v-0.173L0.887,14.798z M4.319,12.331H3.135l-0.649-0.003c-0.278,0-0.559,0-0.838-0.001
			c-0.043,0-0.059,0.012-0.057,0.056l0.002,0.229l0.004,0.801v0.778v0.777h3.434v-0.171l-0.003-0.766
			c0.002-0.015,0.007-0.032,0.007-0.047l-0.004-1.495l-0.003-0.153l0.002-0.001l-0.002,0.001l-0.683-0.004c-0.007,0-0.015,0-0.022,0
			H4.319z M-0.29,11.839h3.051l0.004-0.075v-1.117c0-0.064-0.016-0.078-0.079-0.078l-2.904,0.001c-0.021,0-0.043,0.002-0.066,0.003
			v1.267H-0.29z"/>
		<g>
			<path fill="#3F3F41" d="M-4.357,12.821c0.041-0.066,0.095-0.089,0.17-0.085l0.263,0.001v-0.213
				c-0.013-0.117,0.07-0.22,0.186-0.233c0.017-0.001,0.034-0.001,0.049,0h0.569v0.094l-0.563-0.003
				c-0.075,0-0.133,0.036-0.138,0.098c-0.008,0.084-0.001,0.17-0.001,0.258h0.279c0.115,0,0.157,0.042,0.157,0.156v2.242
				c0,0.118-0.042,0.158-0.162,0.158h-0.277l0.001,0.247c0.003,0.062,0.053,0.104,0.115,0.109l0.065,0.002l-0.083,0.09
				c-0.116-0.008-0.205-0.107-0.196-0.224c0-0.006,0-0.013,0.001-0.018v-0.197c-0.089,0-0.173-0.005-0.263,0
				c-0.078,0.003-0.141-0.016-0.185-0.082l0.002-2.396L-4.357,12.821z M5.609,12.29h0.56c0.147,0,0.23,0.083,0.231,0.229v0.218
				l0.272-0.001c0.075-0.005,0.132,0.02,0.17,0.085v2.386c-0.034,0.071-0.089,0.096-0.164,0.094H6.401v0.2
				c0,0.144-0.057,0.214-0.196,0.244l-0.086-0.09l0.08-0.003c0.056-0.005,0.106-0.044,0.11-0.099c0.006-0.084,0-0.166,0-0.254H6.025
				c-0.107-0.001-0.152-0.047-0.152-0.155v-2.253c0-0.115,0.042-0.155,0.159-0.155h0.279v-0.216c0-0.093-0.045-0.139-0.141-0.139
				l-0.563,0.003V12.29H5.609z"/>
			<path fill="#F48B00" d="M6.204,15.745l0.427,0.526c0.096,0.126,0.149,0.274,0.149,0.437l0,2.847c0,0.017-0.017,0.039-0.025,0.059
				l-0.086-0.004H-4.203l-0.067,0.004c-0.01-0.012-0.025-0.021-0.026-0.036C-4.3,19.553-4.298,19.525-4.298,19.5v-2.767
				c-0.002-0.176,0.056-0.348,0.166-0.487l0.41-0.5l0.085-0.09c0.021-0.017,0.041-0.034,0.062-0.052
				c0.135-0.124,0.272-0.244,0.454-0.3h8.724l0.288,0.162c0.082,0.055,0.151,0.131,0.225,0.19l0.086,0.09H6.204z M5.119,19.05
				c0.048,0.02,0.094,0.057,0.143,0.06h0.782c0.125,0,0.231-0.098,0.26-0.224c0.025-0.106-0.032-0.216-0.141-0.282
				c-0.058-0.014-0.112-0.042-0.171-0.042c-0.227-0.006-0.452-0.006-0.679,0c-0.055,0-0.115,0.013-0.164,0.039
				c-0.183,0.092-0.198,0.344-0.034,0.451L5.119,19.05z M-3.676,19.073c0.041,0.015,0.077,0.038,0.116,0.038h0.783
				c0.123,0,0.227-0.1,0.256-0.224c0.025-0.104-0.031-0.222-0.14-0.282c-0.049-0.015-0.1-0.042-0.151-0.045
				c-0.238-0.003-0.478-0.003-0.718,0c-0.138,0.003-0.253,0.094-0.284,0.216c-0.031,0.119,0.019,0.229,0.132,0.301L-3.676,19.073z
				 M4.419,17.396c-0.016,0-0.033-0.003-0.049-0.003l-0.071-0.003h-6.115l-0.067,0.003h-0.049c-0.081,0.008-0.133,0.049-0.153,0.119
				c-0.017,0.07,0.004,0.12,0.072,0.167l0.068,0.027l0.036,0.005l0.068,0.004h6.156l0.068-0.004h0.022h0.039
				c0.088-0.026,0.143-0.09,0.133-0.166c-0.008-0.078-0.065-0.138-0.158-0.146V17.396L4.419,17.396z M-1.959,18.396
				c-0.083,0.017-0.137,0.083-0.133,0.159c0.004,0.064,0.066,0.138,0.14,0.15c0.026,0.003,0.052,0.003,0.076,0.003h6.246
				c0.127,0,0.208-0.064,0.207-0.161c-0.001-0.099-0.082-0.161-0.208-0.161h-6.206c-0.031,0-0.062,0.003-0.092,0.004
				c-0.011,0.001-0.021,0.003-0.031,0.005H-1.959z M4.332,17.21l0.099-0.003c0.087-0.015,0.143-0.065,0.146-0.149
				c0.004-0.083-0.052-0.146-0.134-0.163c-0.021-0.005-0.044-0.007-0.066-0.007H-1.89c-0.025,0-0.049,0.002-0.072,0.008
				c-0.08,0.02-0.133,0.088-0.13,0.16c0.003,0.073,0.069,0.15,0.146,0.15l0.075,0.003c0,0,0.045,0.004,0.068,0.004h6.068
				L4.332,17.21z M1.237,18.208h3.188c0.089-0.011,0.152-0.08,0.152-0.16c0-0.078-0.067-0.15-0.151-0.159
				c-0.023-0.003-0.046-0.003-0.067-0.003h-6.242c-0.019,0-0.037,0-0.056,0.003c-0.086,0.009-0.152,0.08-0.153,0.159
				c-0.001,0.082,0.061,0.145,0.146,0.156c0.022,0.003,0.047,0.003,0.069,0.003H1.237z M1.243,16.714H4.37
				c0.021,0,0.042,0.001,0.063-0.002c0.077-0.01,0.137-0.072,0.146-0.146c0.008-0.074-0.044-0.144-0.123-0.165
				c-0.032-0.009-0.065-0.009-0.098-0.009h-6.243c-0.125,0-0.208,0.064-0.208,0.161c0,0.098,0.082,0.161,0.209,0.161H1.243z
				 M5.658,16.735c-0.135-0.001-0.26,0.029-0.379,0.094c-0.395,0.21-0.497,0.704-0.209,1.026c0.261,0.294,0.725,0.347,1.045,0.12
				c0.296-0.21,0.382-0.591,0.194-0.889C6.159,16.847,5.932,16.745,5.658,16.735z M-3.167,16.736
				c-0.134-0.002-0.258,0.028-0.375,0.089c-0.43,0.227-0.507,0.764-0.154,1.095c0.322,0.282,0.812,0.258,1.106-0.056
				c0.234-0.263,0.227-0.643-0.019-0.896C-2.753,16.817-2.957,16.733-3.167,16.736L-3.167,16.736z M4.969,15.316
				c-0.268,0.31-0.538,0.594-0.897,0.752l0.451,0.055c0.136,0.025,0.257,0.102,0.336,0.215c0.008,0.011,0.028,0.025,0.038,0.022
				c0.01-0.003,0.026-0.021,0.029-0.036c0.078-0.25,0.109-0.508,0.086-0.77C5.006,15.479,4.986,15.407,4.969,15.316L4.969,15.316z
				 M-1.565,16.08c-0.379-0.156-0.639-0.456-0.911-0.744c-0.089,0.137-0.068,0.87,0.07,1.033
				C-2.189,16.088-1.887,16.064-1.565,16.08L-1.565,16.08z"/>
			<path fill="#58B7B7" d="M4.343,12.331l0.683,0.004l0.003,0.153l0.003,1.495c0,0.015-0.005,0.032-0.007,0.049
				c-0.014,0.003-0.031,0.006-0.046,0.012l-0.538,0.238c-0.134,0.053-0.272,0.091-0.41,0.132l-0.447,0.111L2.84,14.657l-0.632,0.074
				l-0.246,0.021l-0.367,0.015v-0.567h0.023l0.123-0.079l0.452-0.307l0.516-0.352l0.494-0.339l0.417-0.279l0.557-0.382l0.15-0.114
				l0.021-0.007L4.343,12.331z M-2.542,14.81v-0.27c0.015-0.007,0.037-0.009,0.05-0.019l0.358-0.281l1.445-1.124l0.864-0.668
				l0.116-0.098c0-0.008,0-0.012,0.002-0.019l0.553-0.003c0.057,0,0.047,0.039,0.044,0.066l0.004,0.189v1.25
				c0,0.027-0.003,0.054-0.005,0.08l-1.265,0.871c0.002,0.005,0.005,0.012,0.01,0.02h0.633l-0.052,0.057l-0.123,0.105h-0.691
				l0.194-0.16h-2.137V14.81z"/>
			<path fill="#51A8A5" d="M1.595,14.76l0.368-0.015l0.245-0.021l0.633-0.075l0.744-0.131c0.151-0.03,0.297-0.07,0.448-0.112
				l0.409-0.131l0.539-0.238c0.013-0.006,0.031-0.009,0.045-0.012l0.003,0.764v0.172H1.595V14.76L1.595,14.76z"/>
			<path fill="#58B7B7" d="M-2.542,13.895l-0.006-1.492c-0.003-0.055,0.017-0.075,0.074-0.075l0.875,0.001l0.902,0.004
				c0,0.009,0.001,0.021-0.003,0.026l-0.384,0.33l-0.613,0.509L-2.542,13.895z M1.597,13.415l-0.004-0.802l-0.002-0.23
				c-0.003-0.043,0.013-0.055,0.057-0.055h0.838l0.649,0.003c0,0.008,0.002,0.02,0,0.023l-0.198,0.132l-0.729,0.509l-0.48,0.338
				c-0.043,0.028-0.091,0.053-0.136,0.079L1.597,13.415z"/>
			<path fill="#6EBCB9" d="M1.597,13.415l0.136-0.082l0.479-0.338l0.73-0.51l0.197-0.132c0.004-0.001,0.001-0.014,0-0.022h0.618
				c-0.014,0.016-0.025,0.033-0.041,0.043l-1.014,0.72l-0.527,0.375l-0.258,0.188L1.6,13.869l0.002-0.461L1.597,13.415z
				 M-2.542,13.895l1.456-1.211l0.385-0.329c0.005-0.005,0.002-0.018,0.003-0.028h0.462l-0.185,0.176l-0.342,0.277l-0.421,0.35
				l-0.405,0.339l-0.588,0.491l-0.374,0.3l0.001-0.371L-2.542,13.895z"/>
			<path fill="#58B7B7" d="M1.595,13.871l0.315-0.21l0.259-0.188l0.527-0.375l1.016-0.727c0.016-0.011,0.027-0.028,0.04-0.044h0.42
				c-0.003,0.005-0.005,0.014-0.008,0.017l-0.857,0.571l-0.49,0.337l-0.535,0.356l-0.501,0.345l-0.187,0.135l-0.004,0.001l0-0.224
				L1.595,13.871z M-2.545,14.267l0.373-0.301l0.59-0.491l0.403-0.339l0.421-0.349l0.343-0.279c0.066-0.055,0.125-0.117,0.186-0.175
				h0.382c0,0.006,0,0.012,0.001,0.017c-0.022,0.011-0.046,0.017-0.066,0.031l-0.591,0.461l-0.549,0.425l-0.784,0.612l-0.433,0.333
				l-0.274,0.215L-2.545,14.267L-2.545,14.267z"/>
			<path fill="#6EBCB9" d="M0.266,14.81h-0.634c-0.003-0.006-0.007-0.013-0.008-0.022l1.263-0.868v0.481
				c-0.033,0.016-0.066,0.031-0.096,0.051l-0.337,0.241c-0.048,0.037-0.093,0.078-0.139,0.118H0.266L0.266,14.81z"/>
			<path fill="#6ABCBD" d="M-2.542,14.427l0.274-0.216l0.431-0.333l0.786-0.611l0.549-0.426l0.591-0.46
				c0.018-0.013,0.043-0.02,0.065-0.029l0.027-0.017c0.014,0.011,0.016,0.022,0.018,0.035c0.013-0.013,0.016-0.024,0.018-0.035
				h0.037l0.037,0.016l-0.115,0.098l-0.866,0.668l-0.547,0.427l-0.898,0.697l-0.357,0.281c-0.014,0.009-0.034,0.01-0.05,0.018
				L-2.542,14.427L-2.542,14.427z"/>
			<path fill="#51A8A5" d="M-2.542,14.81h2.137l-0.193,0.16l-0.086,0.003h-1.785c-0.024,0-0.046-0.007-0.071-0.009
				c0-0.004-0.001-0.011-0.002-0.015v-0.03L-2.542,14.81L-2.542,14.81z"/>
			<path fill="#6ABCBD" d="M1.599,14.092l0.187-0.135l0.5-0.345l0.535-0.356l0.49-0.337l0.851-0.57
				c0.003-0.004,0.005-0.012,0.008-0.017h0.149c-0.048,0.046-0.096,0.086-0.149,0.123l-0.555,0.381l-0.418,0.28l-0.494,0.338
				l-0.516,0.353l-0.453,0.305l-0.123,0.08l-0.012-0.1V14.092z"/>
			<path fill="#58B7B7" d="M0.315,14.81l0.139-0.118l0.337-0.241c0.03-0.019,0.065-0.035,0.096-0.051v0.186
				c-0.121,0.042-0.215,0.123-0.329,0.21h0.14c-0.011,0.017-0.018,0.038-0.034,0.048L0.487,14.97H0.316l0.196-0.158
				c-0.004-0.006-0.007-0.012-0.009-0.018L0.315,14.81L0.315,14.81z"/>
			<path fill="#51A8A5" d="M0.488,14.971l0.178-0.124c0.015-0.011,0.022-0.031,0.033-0.047l0.189,0v0.172L0.488,14.971L0.488,14.971
				z"/>
			<path fill="#6ABCBD" d="M0.895,14.798l-0.189,0.001H0.567c0.111-0.089,0.206-0.17,0.33-0.21v0.21L0.895,14.798z"/>
			<path fill="#51A8A5" d="M0.315,14.81l0.188-0.016c0.002,0.006,0.005,0.013,0.008,0.017L0.315,14.97H0.091l0.123-0.104
				c0.018-0.019,0.034-0.039,0.053-0.056H0.315L0.315,14.81z"/>
			<g>
				<path fill="#6EBCB9" d="M1.599,14.092l0.013,0.099l-0.017,0.002v-0.1L1.599,14.092z M0.216,12.334L0.209,12.37
					c-0.014-0.011-0.015-0.024-0.017-0.035H0.216L0.216,12.334z"/>
				<path fill="#6EBCB9" d="M0.29,12.35l-0.039-0.017h0.041C0.29,12.339,0.29,12.344,0.29,12.35L0.29,12.35z M0.181,12.333
					L0.155,12.35c0-0.005,0-0.011,0-0.017H0.181z M4.321,12.339c0.007-0.008,0.014-0.008,0.022-0.008
					C4.337,12.335,4.329,12.338,4.321,12.339z M5.027,12.336L5.027,12.336L5.027,12.336z M-2.545,14.949
					c0,0.004,0.001,0.01,0.001,0.015C-2.547,14.951-2.545,14.951-2.545,14.949z"/>
			</g>
			<path fill="#0C0E11" d="M-1.182,21.193l-0.001,1.132c0,0.068-0.016,0.13-0.094,0.154l-0.232,0.01h-1.496
				c-0.047,0-0.096-0.004-0.145-0.007c-0.066-0.03-0.095-0.064-0.095-0.15v-1.096l-0.002-0.07l0.33,0.024h1.735V21.193z
				 M3.762,22.482c-0.077-0.033-0.099-0.077-0.091-0.179c0.005-0.019,0.017-0.04,0.017-0.064l0.001-1.052H5.73v1.138
				c0,0.083-0.021,0.12-0.095,0.15l-0.146,0.01c-0.497,0-0.994,0-1.489,0c-0.079,0-0.159-0.006-0.239-0.01L3.762,22.482z"/>
			<path fill="#1A1E20" d="M6.766,19.667c-0.027-0.041-0.068-0.041-0.107-0.041H-4.175c-0.041,0-0.081,0-0.105,0.041
				c-0.005,0.064-0.017,0.117-0.014,0.176c0.016,0.3,0.113,0.577,0.257,0.838c0.027,0.034,0.066,0.062,0.074,0.101
				c0.022,0.093,0.12,0.112,0.159,0.184l0.029,0.017c0.029-0.008,0.05-0.026,0.065-0.04l0.023,0.1
				c0.006,0.004,0.011,0.005,0.014,0.008l0.003,0.004h0.005c0.006,0.002,0.012,0.005,0.016,0.008c0.015,0.006,0.02,0.01,0.026,0.015
				l0.145,0.05l0.226,0.05l0.33,0.023H3.66c0.009,0,0.015,0.001,0.023,0.001h2.041l0.208-0.01c0.202,0,0.343-0.098,0.449-0.267
				c0.228-0.375,0.413-0.764,0.382-1.217l-0.006-0.038L6.766,19.667z M2.137,20.767c-0.003,0.003-0.006,0.01-0.01,0.013l-0.02-0.022
				l-0.491-0.005c-0.026,0-0.052-0.003-0.079-0.003l-0.391,0.003c-0.022,0-0.044,0.002-0.065,0.005
				c-0.016,0.007-0.033,0.022-0.048,0.022H0.476c-0.016,0-0.032-0.016-0.047-0.022H0.384l-0.006,0.031l-0.038-0.031
				c-0.006-0.005-0.014-0.008-0.02-0.011l-0.001-0.003c0-0.005,0-0.008-0.003-0.011c0.004-0.005,0.007-0.009,0.009-0.015
				l-0.002-0.705c0-0.012,0.014-0.022,0.018-0.034c0.026,0.003,0.038,0.006,0.05,0.009c0.013-0.002,0.029-0.006,0.042-0.006H2.03
				c0.014,0,0.028,0.004,0.042,0.006h0.074c0.005,0.003,0.011,0.007,0.014,0.014v0.026l0.003,0.591l0.004,0.097
				c0,0-0.014,0.043-0.046,0.031C2.124,20.761,2.132,20.762,2.137,20.767L2.137,20.767L2.137,20.767z"/>
			<path fill="#4A3D25" d="M6.766,19.667c-0.027-0.041-0.068-0.041-0.107-0.041H-4.175c-0.041,0-0.081,0-0.105,0.041
				c0.002-0.02,0.007-0.038,0.01-0.057l0.067-0.003L6.756,19.61c0.001,0.02,0.006,0.038,0.008,0.057H6.766z"/>
			<path fill="#1D2123" d="M-3.766,20.995L-3.7,20.95l0.022,0.097L-3.766,20.995L-3.766,20.995z M-3.804,20.972l0.029,0.02
				L-3.804,20.972z M-3.679,21.042c0.004,0.004,0.009,0.005,0.015,0.008C-3.67,21.047-3.675,21.046-3.679,21.042z M-3.655,21.054
				l0.014,0.009C-3.645,21.059-3.65,21.056-3.655,21.054z M-3.631,21.065c0.006,0.002,0.011,0.008,0.016,0.011
				C-3.62,21.073-3.625,21.067-3.631,21.065z"/>
			<path fill="#0E0F11" d="M1.236,18.208c-1.038,0-2.076,0-3.113,0c-0.022,0-0.047,0-0.068-0.003
				c-0.085-0.012-0.147-0.078-0.146-0.156c0-0.077,0.067-0.15,0.153-0.159c0.017-0.003,0.037-0.003,0.056-0.003l6.308,0.003
				c0.084,0.009,0.15,0.081,0.15,0.159c0,0.08-0.065,0.15-0.152,0.16c-0.029,0.001-0.057,0-0.086,0H1.241H1.236z M-1.946,17.208
				c-0.076,0-0.143-0.079-0.146-0.15c-0.003-0.07,0.051-0.14,0.13-0.16c0.023-0.006,0.047-0.008,0.072-0.008h6.267
				c0.021,0,0.044,0,0.066,0.007c0.082,0.019,0.137,0.088,0.134,0.163c-0.003,0.074-0.065,0.134-0.146,0.149l-0.1,0.003
				l-0.068,0.004h-6.067c-0.023,0-0.044-0.003-0.069-0.004L-1.946,17.208L-1.946,17.208z M1.241,16.714h-3.125
				c-0.127,0-0.208-0.062-0.208-0.161c0-0.097,0.082-0.161,0.207-0.161h6.242c0.033,0,0.066,0,0.097,0.009
				c0.079,0.021,0.13,0.092,0.123,0.165c-0.006,0.072-0.068,0.136-0.146,0.146c-0.019,0.004-0.04,0.002-0.062,0.002H1.241z"/>
			<path fill="#101012" d="M-1.927,18.391l0.091-0.004h6.205c0.127,0,0.208,0.062,0.208,0.161c0.001,0.097-0.078,0.161-0.207,0.161
				h-6.248c-0.023,0-0.049,0-0.075-0.003c-0.074-0.012-0.136-0.08-0.14-0.15c-0.004-0.075,0.05-0.143,0.133-0.159
				c0.027,0.003,0.051,0.01,0.077,0.01h6.223c-0.024-0.01-0.048-0.01-0.071-0.01h-6.105C-1.865,18.397-1.899,18.392-1.927,18.391
				L-1.927,18.391z"/>
			<path fill="#0D0E11" d="M-1.885,17.394l0.068-0.003h6.114l0.071,0.003h0.048c0.088,0.008,0.151,0.063,0.158,0.143
				c0.009,0.08-0.044,0.143-0.133,0.167H4.403H4.382c-0.026-0.006-0.052-0.018-0.079-0.018H-0.98c-0.287,0-0.576-0.001-0.866,0
				c-0.02,0-0.042,0.012-0.064,0.018L-1.946,17.7l-0.068-0.027c-0.068-0.046-0.088-0.099-0.071-0.167
				c0.018-0.067,0.071-0.112,0.151-0.118h0.049V17.394z"/>
			<path fill="#E5E5E5" d="M5.656,16.735c0.275,0.009,0.503,0.112,0.651,0.351c0.186,0.3,0.102,0.678-0.196,0.889
				c-0.321,0.227-0.784,0.174-1.044-0.12c-0.287-0.329-0.184-0.816,0.208-1.026C5.394,16.766,5.524,16.733,5.656,16.735z
				 M5.651,17.975c0.191,0.006,0.374-0.083,0.492-0.235c0.13-0.17,0.144-0.402,0.032-0.587c-0.164-0.25-0.493-0.348-0.768-0.228
				c-0.281,0.121-0.419,0.408-0.316,0.681C5.17,17.82,5.383,17.977,5.651,17.975L5.651,17.975z M-3.167,16.737
				c0.21-0.003,0.414,0.081,0.559,0.232c0.244,0.252,0.253,0.634,0.019,0.896c-0.294,0.314-0.784,0.337-1.107,0.055
				c-0.353-0.328-0.276-0.868,0.155-1.093C-3.424,16.765-3.302,16.733-3.167,16.737z M-2.573,17.443l-0.009-0.108
				c-0.048-0.271-0.31-0.461-0.571-0.461c-0.191-0.007-0.373,0.076-0.494,0.224c-0.167,0.195-0.158,0.473,0.005,0.667
				c0.198,0.233,0.547,0.273,0.794,0.122C-2.676,17.781-2.583,17.634-2.573,17.443L-2.573,17.443z"/>
			<path fill="#BF383D" d="M-3.676,19.073c-0.119-0.07-0.168-0.18-0.133-0.299c0.037-0.122,0.148-0.212,0.284-0.215H-2.8
				c0.051,0.003,0.101,0.028,0.152,0.043l-0.057,0.108c-0.079,0.177-0.211,0.303-0.399,0.338c-0.15,0.027-0.31,0.012-0.465,0.018
				l-0.095,0.006H-3.676z M5.117,19.05c-0.165-0.105-0.15-0.357,0.033-0.451c0.05-0.026,0.109-0.038,0.164-0.041h0.679
				c0.059,0.003,0.112,0.03,0.171,0.045c-0.013,0.014-0.028,0.03-0.037,0.048c-0.028,0.056-0.046,0.124-0.086,0.174
				c-0.123,0.153-0.281,0.254-0.487,0.25L5.117,19.05z"/>
			<path fill="#FFA105" d="M4.968,15.317l0.043,0.238c0.022,0.261-0.009,0.519-0.086,0.77c-0.004,0.014-0.017,0.033-0.031,0.037
				c-0.012,0.003-0.03-0.011-0.037-0.023c-0.079-0.112-0.2-0.19-0.336-0.214c-0.149-0.029-0.304-0.038-0.452-0.055
				C4.43,15.912,4.7,15.629,4.968,15.317L4.968,15.317z M-1.566,16.081c-0.329-0.015-0.625,0.009-0.84,0.29
				c-0.131-0.162-0.16-0.895-0.069-1.033c0.263,0.288,0.531,0.588,0.91,0.745V16.081z"/>
			<path fill="#B03238" d="M5.117,19.05l0.438,0.022c0.206,0.007,0.365-0.093,0.487-0.248c0.04-0.049,0.057-0.117,0.086-0.173
				c0.008-0.018,0.024-0.034,0.037-0.049c0.108,0.064,0.166,0.174,0.141,0.282C6.276,19.017,6.17,19.11,6.044,19.11
				c-0.26,0.004-0.521,0.004-0.78-0.003c-0.049,0-0.096-0.038-0.146-0.065L5.117,19.05L5.117,19.05z M-3.676,19.073l0.094-0.006
				c0.155-0.006,0.315,0.009,0.464-0.018c0.188-0.035,0.321-0.161,0.399-0.338c0.017-0.04,0.038-0.071,0.056-0.108
				c0.109,0.062,0.165,0.177,0.141,0.282c-0.03,0.125-0.134,0.223-0.264,0.226h-0.789c-0.04,0-0.078-0.024-0.116-0.038H-3.676z"/>
			<path fill="#2B2214" d="M-1.91,17.703c0.021-0.006,0.043-0.018,0.066-0.018h6.148c0.025,0,0.052,0.012,0.079,0.018l-0.068,0.003
				h-6.159C-1.864,17.706-1.887,17.705-1.91,17.703L-1.91,17.703z"/>
			<path fill="#00040A" d="M-1.927,18.391l0.091,0.005h6.179c-0.021,0.01-0.041,0.01-0.064,0.01c-2.052,0-4.107,0-6.16,0
				c-0.026,0-0.051-0.007-0.077-0.01L-1.927,18.391L-1.927,18.391z M4.331,17.21l0.1-0.003L4.331,17.21z"/>
			<path fill="#2B2214" d="M-2.015,17.681l0.068,0.028L-2.015,17.681z"/>
			<path fill="#00040A" d="M-1.946,17.208l0.075,0.003L-1.946,17.208z"/>
			<path fill="#2B2214" d="M4.404,17.703H4.45H4.404z"/>
			<path fill="#00040A" d="M-1.885,17.394h-0.049H-1.885z M4.419,17.394c-0.016,0-0.033,0-0.049,0H4.419L4.419,17.394z M3.66,21.193
				c0.01,0,0.016,0,0.023,0v1.055c0,0.021-0.014,0.04-0.018,0.064l-0.002-0.75L3.66,21.199V21.193L3.66,21.193z"/>
			<path fill="#FBFBFA" d="M2.16,20c-0.005-0.006-0.011-0.01-0.014-0.015L2.16,20z"/>
			<path fill="#101012" d="M0.316,20.732c0.001,0.003,0.001,0.006,0.001,0.011C0.318,20.738,0.318,20.735,0.316,20.732z"/>
			<path fill="#1D2123" d="M0.426,20.755h0.657c-0.016,0.009-0.033,0.024-0.048,0.024h-0.56c-0.015,0-0.031-0.016-0.047-0.024H0.426
				z M0.341,20.755c0.008-0.003,0.016-0.007,0.026-0.009c0.014,0.003,0.014,0.006,0.018,0.009l-0.006,0.033L0.341,20.755
				L0.341,20.755z"/>
			<path fill="#0E0F11" d="M2.107,20.755c0.019,0.003,0.026,0.007,0.031,0.012c-0.002,0.003-0.006,0.01-0.009,0.013l-0.02-0.024
				H2.107L2.107,20.755z"/>
			<path fill="#CFD2D4" d="M5.652,17.977c-0.268,0-0.481-0.156-0.562-0.37c-0.102-0.272,0.035-0.559,0.316-0.681
				c0.275-0.12,0.605-0.02,0.768,0.228c0.111,0.185,0.098,0.417-0.032,0.587C6.026,17.892,5.843,17.981,5.652,17.977z M6.002,17.083
				c-0.213-0.191-0.583-0.16-0.759,0.063c-0.166,0.21-0.108,0.529,0.115,0.655c0.139,0.1,0.293,0.121,0.456,0.071
				c0.18-0.052,0.305-0.172,0.342-0.36C6.193,17.352,6.132,17.185,6.002,17.083L6.002,17.083z M-2.574,17.443
				c-0.009,0.191-0.102,0.341-0.273,0.443c-0.247,0.152-0.597,0.113-0.794-0.122c-0.165-0.194-0.17-0.472-0.005-0.667
				c0.121-0.148,0.303-0.23,0.494-0.223c0.261,0.005,0.522,0.188,0.571,0.461C-2.576,17.369-2.576,17.399-2.574,17.443
				L-2.574,17.443z M-3.469,17.805c0.244,0.165,0.575,0.099,0.739-0.143c0.006-0.009,0.01-0.017,0.014-0.025
				c0.107-0.194,0.045-0.456-0.133-0.57c-0.162-0.145-0.465-0.146-0.653,0C-3.753,17.265-3.735,17.642-3.469,17.805z"/>
			<path fill="#58B7B7" d="M5.356,17.802c-0.223-0.126-0.279-0.444-0.113-0.655c0.176-0.223,0.546-0.256,0.759-0.063
				c-0.007,0.013-0.016,0.029-0.017,0.043c-0.005,0.106-0.012,0.211-0.065,0.301c-0.047,0.078-0.101,0.155-0.165,0.216
				C5.646,17.75,5.503,17.787,5.356,17.802L5.356,17.802z"/>
			<path fill="#51A8A5" d="M5.356,17.802c0.147-0.015,0.288-0.052,0.399-0.156c0.064-0.063,0.116-0.14,0.165-0.215
				c0.053-0.093,0.062-0.201,0.065-0.304c0.001-0.014,0.012-0.029,0.017-0.042c0.133,0.112,0.188,0.259,0.153,0.429
				c-0.04,0.189-0.164,0.307-0.342,0.359C5.651,17.922,5.495,17.904,5.356,17.802z"/>
			<path fill="#58B7B7" d="M-3.469,17.805c-0.267-0.164-0.284-0.548-0.032-0.739c0.189-0.146,0.494-0.144,0.653,0l-0.002,0.092
				c0.002,0.231-0.096,0.416-0.29,0.533c-0.096,0.066-0.218,0.075-0.329,0.111L-3.469,17.805z"/>
			<path fill="#51A8A5" d="M-3.469,17.805c0.11-0.036,0.232-0.053,0.329-0.111c0.194-0.119,0.292-0.303,0.289-0.535l0.003-0.091
				c0.178,0.115,0.24,0.376,0.133,0.57c-0.151,0.253-0.479,0.336-0.731,0.183c-0.008-0.005-0.016-0.011-0.022-0.015V17.805z"/>
		</g>
	</g>
	<g>
		<path fill="#FFA105" d="M13.207,10.138h0.604c0.014,0.004,0.027,0.011,0.04,0.012c0.36,0.023,0.716,0.076,1.068,0.152
			c0.692,0.147,1.364,0.359,1.994,0.688c0.261,0.136,0.507,0.292,0.712,0.503c0.169,0.17,0.275,0.368,0.255,0.618
			c-0.004,0.059,0.002,0.119,0.002,0.178v0.094l-0.002,0.067l-0.001,2.854H9.152l-0.001-2.842l-0.003-0.08V12.29l0.003-0.253
			c0-0.128,0.027-0.249,0.108-0.35c0.087-0.109,0.181-0.219,0.289-0.31c0.319-0.267,0.689-0.451,1.069-0.606
			c0.787-0.324,1.602-0.534,2.45-0.613c0.046-0.003,0.091-0.011,0.137-0.019L13.207,10.138z M13.159,14.798v-0.211v-0.186v-0.481
			l0.006-0.079v-1.25l-0.003-0.178c0.002-0.045,0.012-0.083-0.045-0.083l-0.553,0.003h-0.042h-0.097c-0.127,0-0.254,0-0.382,0
			h-0.459l-0.903-0.004c-0.292,0-0.585,0-0.875-0.001c-0.057,0-0.076,0.021-0.074,0.074c0.003,0.054,0,0.105,0,0.16l0.007,1.333
			l-0.001,0.372l0.001,0.16v0.383l-0.001,0.103v0.036c-0.001,0.01,0,0.013,0.001,0.016c0.024,0.002,0.046,0.009,0.072,0.009h1.783
			l0.087-0.002h1.489v-0.173L13.159,14.798z M16.591,12.331h-1.185l-0.646-0.003c-0.281,0-0.561,0-0.84-0.001
			c-0.042,0-0.059,0.012-0.057,0.056l0.003,0.229l0.004,0.801v0.778v0.777h3.434v-0.171l-0.002-0.766
			c0-0.015,0.005-0.032,0.005-0.047l-0.003-1.495l-0.002-0.153v-0.001v0.001l-0.685-0.004c-0.007,0-0.016,0-0.022,0H16.591z
			 M11.982,11.839h3.05l0.003-0.075v-1.117c0-0.064-0.015-0.078-0.079-0.078l-2.902,0.001c-0.021,0-0.043,0.002-0.066,0.003v1.267
			H11.982z"/>
		<g>
			<path fill="#3F3F41" d="M7.916,12.821c0.04-0.066,0.094-0.089,0.169-0.085l0.264,0.001v-0.213
				c-0.013-0.117,0.069-0.22,0.185-0.233c0.017-0.001,0.034-0.001,0.049,0h0.569v0.094l-0.563-0.003
				c-0.075,0-0.132,0.036-0.138,0.098c-0.006,0.084-0.001,0.17-0.001,0.258h0.279c0.116,0,0.158,0.042,0.158,0.156v2.242
				c0,0.118-0.043,0.158-0.163,0.158H8.446l0.001,0.247c0.003,0.062,0.054,0.104,0.115,0.109l0.066,0.002l-0.084,0.09
				c-0.116-0.008-0.205-0.107-0.197-0.224c0-0.006,0.001-0.013,0.001-0.018v-0.197c-0.089,0-0.173-0.005-0.263,0
				c-0.078,0.003-0.141-0.016-0.185-0.082l0.001-2.396L7.916,12.821z M17.88,12.29h0.559c0.147,0,0.233,0.083,0.233,0.229v0.218
				l0.272-0.001c0.074-0.005,0.132,0.02,0.169,0.085v2.386c-0.034,0.071-0.089,0.096-0.163,0.094h-0.278v0.2
				c0,0.144-0.057,0.214-0.197,0.244l-0.085-0.09l0.079-0.003c0.056-0.005,0.107-0.044,0.11-0.099c0.006-0.084,0-0.166,0-0.254
				h-0.282c-0.108-0.001-0.153-0.047-0.153-0.155v-2.253c0-0.115,0.042-0.155,0.16-0.155h0.278v-0.216
				c0-0.093-0.046-0.139-0.141-0.139l-0.562,0.003V12.29L17.88,12.29z"/>
			<path fill="#F48B00" d="M18.475,15.745l0.429,0.526c0.099,0.126,0.148,0.274,0.148,0.437v2.847c0,0.017-0.018,0.039-0.025,0.059
				l-0.087-0.004H8.068l-0.066,0.004c-0.009-0.012-0.025-0.021-0.027-0.036c-0.003-0.024-0.001-0.053-0.001-0.078v-2.767
				c-0.002-0.176,0.056-0.348,0.166-0.487l0.411-0.5l0.085-0.09c0.021-0.017,0.042-0.034,0.062-0.052
				c0.137-0.124,0.273-0.244,0.455-0.3h8.725l0.285,0.162c0.084,0.055,0.151,0.131,0.228,0.19L18.475,15.745L18.475,15.745z
				 M17.39,19.05c0.049,0.02,0.097,0.057,0.144,0.06h0.781c0.127,0,0.233-0.098,0.264-0.224c0.022-0.106-0.033-0.216-0.142-0.282
				c-0.06-0.014-0.112-0.042-0.173-0.042c-0.224-0.006-0.452-0.006-0.678,0c-0.056,0-0.117,0.013-0.164,0.039
				c-0.183,0.092-0.199,0.344-0.033,0.451L17.39,19.05z M8.596,19.073c0.041,0.015,0.078,0.038,0.116,0.038h0.784
				c0.122,0,0.227-0.1,0.256-0.224c0.025-0.104-0.032-0.222-0.141-0.282c-0.049-0.015-0.1-0.042-0.15-0.045
				c-0.239-0.003-0.479-0.003-0.719,0c-0.138,0.003-0.253,0.094-0.284,0.216c-0.031,0.119,0.02,0.229,0.131,0.301L8.596,19.073z
				 M16.692,17.396c-0.017,0-0.033-0.003-0.048-0.003l-0.074-0.003h-6.114l-0.068,0.003h-0.049c-0.08,0.008-0.133,0.049-0.152,0.119
				c-0.018,0.07,0.004,0.12,0.072,0.167l0.067,0.027l0.037,0.005l0.068,0.004h6.156l0.067-0.004h0.023h0.04
				c0.087-0.026,0.141-0.09,0.132-0.166c-0.009-0.078-0.065-0.138-0.157-0.146V17.396L16.692,17.396z M10.314,18.396
				c-0.084,0.017-0.138,0.083-0.134,0.159c0.003,0.064,0.065,0.138,0.14,0.15c0.026,0.003,0.05,0.003,0.075,0.003h6.247
				c0.127,0,0.207-0.064,0.206-0.161c0-0.099-0.079-0.161-0.208-0.161h-6.207c-0.029,0-0.062,0.003-0.091,0.004
				c-0.011,0.001-0.021,0.003-0.031,0.005H10.314z M16.606,17.21l0.098-0.003c0.087-0.015,0.142-0.065,0.146-0.149
				c0.005-0.083-0.053-0.146-0.133-0.163c-0.021-0.005-0.046-0.007-0.068-0.007h-6.266c-0.025,0-0.049,0.002-0.073,0.008
				c-0.079,0.02-0.132,0.088-0.129,0.16c0.003,0.073,0.069,0.15,0.146,0.15L10.4,17.21c0,0,0.045,0.004,0.069,0.004h6.068
				L16.606,17.21z M13.509,18.208h3.187c0.089-0.011,0.153-0.08,0.153-0.16c0-0.078-0.068-0.15-0.151-0.159
				c-0.022-0.003-0.045-0.003-0.069-0.003h-6.241c-0.019,0-0.037,0-0.055,0.003c-0.086,0.009-0.151,0.08-0.152,0.159
				c-0.001,0.082,0.062,0.145,0.146,0.156c0.022,0.003,0.047,0.003,0.069,0.003H13.509z M13.515,16.714h3.128
				c0.021,0,0.04,0.001,0.061-0.002c0.076-0.01,0.139-0.072,0.146-0.146c0.01-0.074-0.044-0.144-0.124-0.165
				c-0.031-0.009-0.062-0.009-0.096-0.009h-6.244c-0.124,0-0.208,0.064-0.206,0.161c0,0.098,0.081,0.161,0.208,0.161H13.515z
				 M17.931,16.735c-0.137-0.001-0.26,0.029-0.38,0.094c-0.396,0.21-0.496,0.704-0.209,1.026c0.259,0.294,0.724,0.347,1.044,0.12
				c0.297-0.21,0.383-0.591,0.195-0.889C18.431,16.847,18.205,16.745,17.931,16.735z M9.105,16.736
				c-0.135-0.002-0.258,0.028-0.374,0.089c-0.431,0.227-0.507,0.764-0.155,1.095c0.322,0.282,0.813,0.258,1.107-0.056
				c0.233-0.263,0.226-0.643-0.019-0.896C9.518,16.817,9.315,16.733,9.105,16.736L9.105,16.736z M17.242,15.316
				c-0.271,0.31-0.539,0.594-0.897,0.752l0.448,0.055c0.139,0.025,0.258,0.102,0.337,0.215c0.01,0.011,0.026,0.025,0.037,0.022
				c0.01-0.003,0.027-0.021,0.031-0.036c0.077-0.25,0.108-0.508,0.085-0.77C17.278,15.479,17.256,15.407,17.242,15.316
				L17.242,15.316z M10.707,16.08c-0.379-0.156-0.639-0.456-0.911-0.744c-0.088,0.137-0.068,0.87,0.071,1.033
				C10.083,16.088,10.385,16.064,10.707,16.08L10.707,16.08z"/>
			<path fill="#58B7B7" d="M16.615,12.331l0.682,0.004l0.004,0.153l0.003,1.495c0,0.015-0.003,0.032-0.007,0.049
				c-0.014,0.003-0.031,0.006-0.046,0.012l-0.537,0.238c-0.135,0.053-0.273,0.091-0.411,0.132l-0.448,0.111l-0.743,0.132
				l-0.631,0.074l-0.247,0.021l-0.366,0.015v-0.567h0.022l0.124-0.079l0.452-0.307l0.515-0.352l0.494-0.339l0.417-0.279l0.558-0.382
				l0.15-0.114l0.021-0.007L16.615,12.331z M9.73,14.81v-0.27c0.016-0.007,0.037-0.009,0.05-0.019l0.358-0.281l1.445-1.124
				l0.865-0.668l0.115-0.098c0.001-0.008,0.001-0.012,0.002-0.019l0.554-0.003c0.055,0,0.046,0.039,0.043,0.066l0.004,0.189v1.25
				c0,0.027-0.003,0.054-0.005,0.08l-1.264,0.871c0.001,0.005,0.004,0.012,0.009,0.02h0.633l-0.051,0.057l-0.123,0.105h-0.692
				l0.194-0.16H9.73V14.81z"/>
			<path fill="#51A8A5" d="M13.868,14.76l0.367-0.015l0.246-0.021l0.632-0.075l0.744-0.131c0.151-0.03,0.299-0.07,0.449-0.112
				l0.41-0.131l0.537-0.238c0.013-0.006,0.03-0.009,0.045-0.012l0.003,0.764v0.172h-3.433V14.76L13.868,14.76z"/>
			<path fill="#58B7B7" d="M9.73,13.895l-0.006-1.492c-0.002-0.055,0.017-0.075,0.074-0.075l0.875,0.001l0.902,0.004
				c0,0.009,0.001,0.021-0.003,0.026l-0.385,0.33l-0.612,0.509L9.73,13.895z M13.869,13.415l-0.004-0.802l-0.003-0.23
				c-0.002-0.043,0.013-0.055,0.057-0.055h0.84l0.646,0.003c0,0.008,0.003,0.02,0,0.023l-0.199,0.132l-0.729,0.509l-0.48,0.338
				c-0.043,0.028-0.09,0.053-0.135,0.079L13.869,13.415z"/>
			<path fill="#6EBCB9" d="M13.869,13.415l0.136-0.082l0.48-0.338l0.728-0.51l0.197-0.132c0.005-0.001,0.002-0.014,0-0.022h0.619
				c-0.015,0.016-0.026,0.033-0.043,0.043l-1.013,0.72l-0.528,0.375l-0.257,0.188l-0.316,0.211l0.001-0.461L13.869,13.415z
				 M9.73,13.895l1.457-1.211l0.384-0.329c0.005-0.005,0.003-0.018,0.004-0.028h0.462l-0.185,0.176l-0.342,0.277l-0.421,0.35
				l-0.405,0.339l-0.589,0.491l-0.374,0.3l0.002-0.371L9.73,13.895z"/>
			<path fill="#58B7B7" d="M13.868,13.871l0.314-0.21l0.261-0.188l0.525-0.375l1.016-0.727c0.017-0.011,0.027-0.028,0.043-0.044
				h0.42c-0.006,0.005-0.006,0.014-0.011,0.017l-0.856,0.571l-0.491,0.337l-0.534,0.356l-0.5,0.345l-0.186,0.135l-0.004,0.001
				l-0.001-0.224L13.868,13.871z M9.727,14.267l0.374-0.301l0.589-0.491l0.404-0.339l0.421-0.349l0.343-0.279
				c0.066-0.055,0.125-0.117,0.186-0.175h0.382c0,0.006,0,0.012,0.001,0.017c-0.021,0.011-0.046,0.017-0.065,0.031l-0.591,0.461
				l-0.549,0.425l-0.785,0.612l-0.433,0.333l-0.274,0.215L9.727,14.267L9.727,14.267z"/>
			<path fill="#6EBCB9" d="M12.538,14.81h-0.634c-0.003-0.006-0.007-0.013-0.008-0.022l1.263-0.868v0.481
				c-0.032,0.016-0.066,0.031-0.096,0.051l-0.337,0.241c-0.047,0.037-0.092,0.078-0.139,0.118H12.538L12.538,14.81z"/>
			<path fill="#6ABCBD" d="M9.73,14.427l0.274-0.216l0.431-0.333l0.786-0.611l0.549-0.426l0.591-0.46
				c0.017-0.013,0.043-0.02,0.066-0.029l0.026-0.017c0.014,0.011,0.017,0.022,0.018,0.035c0.014-0.013,0.016-0.024,0.017-0.035
				h0.037l0.038,0.016l-0.116,0.098l-0.866,0.668l-0.546,0.427l-0.899,0.697l-0.356,0.281c-0.015,0.009-0.033,0.01-0.05,0.018
				v-0.112H9.73z"/>
			<path fill="#51A8A5" d="M9.73,14.81h2.137l-0.194,0.16l-0.085,0.003H9.802c-0.024,0-0.045-0.007-0.071-0.009
				c0-0.004-0.001-0.011-0.003-0.015v-0.03L9.73,14.81L9.73,14.81z"/>
			<path fill="#6ABCBD" d="M13.871,14.092l0.187-0.135l0.499-0.345l0.537-0.356l0.488-0.337l0.853-0.57
				c0.003-0.004,0.003-0.012,0.007-0.017h0.149c-0.049,0.046-0.096,0.086-0.149,0.123l-0.556,0.381l-0.417,0.28l-0.494,0.338
				l-0.516,0.353l-0.453,0.305l-0.123,0.08l-0.012-0.1V14.092z"/>
			<path fill="#58B7B7" d="M12.587,14.81l0.139-0.118l0.337-0.241c0.03-0.019,0.065-0.035,0.096-0.051v0.186
				c-0.121,0.042-0.216,0.123-0.328,0.21h0.139c-0.011,0.017-0.017,0.038-0.034,0.048l-0.177,0.125h-0.171l0.196-0.158
				c-0.004-0.006-0.007-0.012-0.008-0.018L12.587,14.81L12.587,14.81z"/>
			<path fill="#51A8A5" d="M12.759,14.971l0.178-0.124c0.015-0.011,0.022-0.031,0.034-0.047l0.188,0v0.172L12.759,14.971
				L12.759,14.971z"/>
			<path fill="#6ABCBD" d="M13.167,14.798l-0.189,0.001h-0.138c0.11-0.089,0.206-0.17,0.329-0.21v0.21L13.167,14.798z"/>
			<path fill="#51A8A5" d="M12.587,14.81l0.188-0.016c0.002,0.006,0.005,0.013,0.009,0.017l-0.197,0.159h-0.224l0.123-0.104
				c0.018-0.019,0.034-0.039,0.052-0.056H12.587L12.587,14.81z"/>
			<g>
				<path fill="#6EBCB9" d="M13.871,14.092l0.013,0.099l-0.017,0.002v-0.1L13.871,14.092z M12.488,12.334l-0.007,0.035
					c-0.014-0.011-0.015-0.024-0.019-0.035H12.488L12.488,12.334z"/>
				<path fill="#6EBCB9" d="M12.561,12.35l-0.039-0.017h0.04C12.561,12.339,12.561,12.344,12.561,12.35L12.561,12.35z
					 M12.452,12.333l-0.025,0.017c-0.001-0.005-0.001-0.011-0.001-0.017H12.452z M16.594,12.339
					c0.006-0.008,0.013-0.008,0.021-0.008C16.609,12.335,16.601,12.338,16.594,12.339z M17.298,12.336l0.003-0.001L17.298,12.336z
					 M9.727,14.949c0,0.004,0.001,0.01,0.001,0.015C9.725,14.951,9.726,14.951,9.727,14.949z"/>
			</g>
			<path fill="#0C0E11" d="M11.09,21.193l-0.001,1.132c-0.001,0.068-0.017,0.13-0.094,0.154l-0.233,0.01H9.266
				c-0.048,0-0.096-0.004-0.146-0.007c-0.066-0.03-0.094-0.064-0.094-0.15v-1.096l-0.003-0.07l0.331,0.024h1.735V21.193z
				 M16.033,22.482c-0.077-0.033-0.101-0.077-0.09-0.179c0.006-0.019,0.016-0.04,0.016-0.064l0.003-1.052h2.039v1.138
				c0,0.083-0.021,0.12-0.097,0.15l-0.144,0.01c-0.497,0-0.992,0-1.489,0c-0.079,0-0.16-0.006-0.238-0.01V22.482z"/>
			<path fill="#1A1E20" d="M19.037,19.667c-0.026-0.041-0.067-0.041-0.106-0.041H8.097c-0.041,0-0.082,0-0.104,0.041
				c-0.006,0.064-0.018,0.117-0.015,0.176c0.016,0.3,0.113,0.577,0.257,0.838c0.027,0.034,0.066,0.062,0.074,0.101
				c0.022,0.093,0.12,0.112,0.16,0.184l0.029,0.017c0.028-0.008,0.05-0.026,0.065-0.04l0.023,0.1
				c0.006,0.004,0.011,0.005,0.015,0.008l0.003,0.004h0.005c0.007,0.002,0.012,0.005,0.016,0.008
				c0.015,0.006,0.021,0.01,0.026,0.015l0.145,0.05l0.225,0.05l0.331,0.023h6.582c0.009,0,0.015,0.001,0.021,0.001h2.042l0.21-0.01
				c0.202,0,0.343-0.098,0.447-0.267c0.229-0.375,0.414-0.764,0.382-1.217l-0.005-0.038L19.037,19.667z M14.41,20.767
				c-0.004,0.003-0.008,0.01-0.012,0.013l-0.018-0.022l-0.492-0.005c-0.024,0-0.051-0.003-0.078-0.003l-0.392,0.003
				c-0.021,0-0.045,0.002-0.065,0.005c-0.016,0.007-0.033,0.022-0.048,0.022h-0.559c-0.015,0-0.032-0.016-0.047-0.022h-0.044
				l-0.006,0.031l-0.038-0.031c-0.006-0.005-0.013-0.008-0.02-0.011l-0.001-0.003c0-0.005,0-0.008-0.002-0.011
				c0.004-0.005,0.007-0.009,0.009-0.015l-0.002-0.705c0-0.012,0.013-0.022,0.018-0.034c0.026,0.003,0.038,0.006,0.05,0.009
				c0.013-0.002,0.029-0.006,0.042-0.006h1.596c0.015,0,0.03,0.004,0.042,0.006h0.073c0.006,0.003,0.012,0.007,0.015,0.014v0.026
				l0.003,0.591l0.004,0.097c0,0-0.015,0.043-0.047,0.031c0.003,0.015,0.01,0.016,0.017,0.021l0,0H14.41z"/>
			<path fill="#4A3D25" d="M19.037,19.667c-0.026-0.041-0.067-0.041-0.106-0.041H8.097c-0.041,0-0.082,0-0.104,0.041
				c0.001-0.02,0.006-0.038,0.01-0.057l0.066-0.003l10.959,0.003C19.03,19.63,19.033,19.648,19.037,19.667L19.037,19.667z"/>
			<path fill="#1D2123" d="M8.505,20.995l0.066-0.045l0.023,0.097L8.505,20.995L8.505,20.995z M8.468,20.972l0.029,0.02
				L8.468,20.972z M8.593,21.042c0.005,0.004,0.009,0.005,0.014,0.008C8.601,21.047,8.597,21.046,8.593,21.042z M8.616,21.054
				l0.015,0.009C8.627,21.059,8.622,21.056,8.616,21.054z M8.64,21.065c0.006,0.002,0.01,0.008,0.016,0.011
				C8.651,21.073,8.646,21.067,8.64,21.065z"/>
			<path fill="#0E0F11" d="M13.508,18.208c-1.039,0-2.076,0-3.114,0c-0.022,0-0.046,0-0.068-0.003
				c-0.085-0.012-0.147-0.078-0.146-0.156c0.001-0.077,0.067-0.15,0.153-0.159c0.017-0.003,0.037-0.003,0.055-0.003l6.308,0.003
				c0.085,0.009,0.152,0.081,0.152,0.159c0,0.08-0.067,0.15-0.152,0.16c-0.03,0.001-0.059,0-0.086,0h-3.096H13.508z M10.325,17.208
				c-0.075,0-0.143-0.079-0.146-0.15c-0.004-0.07,0.051-0.14,0.129-0.16c0.023-0.006,0.047-0.008,0.073-0.008h6.266
				c0.021,0,0.044,0,0.068,0.007c0.08,0.019,0.135,0.088,0.133,0.163c-0.004,0.074-0.065,0.134-0.147,0.149l-0.098,0.003
				l-0.068,0.004h-6.068c-0.023,0-0.044-0.003-0.069-0.004L10.325,17.208L10.325,17.208z M13.514,16.714h-3.126
				c-0.126,0-0.208-0.062-0.208-0.161c-0.001-0.097,0.082-0.161,0.207-0.161h6.241c0.034,0,0.067,0,0.098,0.009
				c0.078,0.021,0.129,0.092,0.123,0.165c-0.006,0.072-0.068,0.136-0.146,0.146c-0.021,0.004-0.039,0.002-0.062,0.002H13.514z"/>
			<path fill="#101012" d="M10.344,18.391l0.092-0.004h6.205c0.127,0,0.207,0.062,0.207,0.161c0.002,0.097-0.079,0.161-0.205,0.161
				h-6.249c-0.024,0-0.05,0-0.075-0.003c-0.075-0.012-0.137-0.08-0.141-0.15c-0.003-0.075,0.049-0.143,0.133-0.159
				c0.026,0.003,0.052,0.01,0.077,0.01h6.224c-0.024-0.01-0.05-0.01-0.072-0.01h-6.104C10.406,18.397,10.374,18.392,10.344,18.391
				L10.344,18.391z"/>
			<path fill="#0D0E11" d="M10.387,17.394l0.068-0.003h6.114l0.071,0.003h0.049c0.087,0.008,0.148,0.063,0.159,0.143
				c0.007,0.08-0.045,0.143-0.134,0.167h-0.039h-0.021c-0.028-0.006-0.053-0.018-0.08-0.018h-5.281c-0.288,0-0.576-0.001-0.865,0
				c-0.021,0-0.042,0.012-0.065,0.018L10.325,17.7l-0.067-0.027c-0.069-0.046-0.09-0.099-0.072-0.167
				c0.018-0.067,0.072-0.112,0.151-0.118h0.05V17.394z"/>
			<path fill="#E5E5E5" d="M17.929,16.735c0.273,0.009,0.502,0.112,0.65,0.351c0.187,0.3,0.104,0.678-0.195,0.889
				c-0.321,0.227-0.784,0.174-1.045-0.12c-0.285-0.329-0.184-0.816,0.209-1.026C17.665,16.766,17.795,16.733,17.929,16.735z
				 M17.922,17.975c0.19,0.006,0.375-0.083,0.491-0.235c0.132-0.17,0.145-0.402,0.034-0.587c-0.164-0.25-0.496-0.348-0.77-0.228
				c-0.28,0.121-0.421,0.408-0.315,0.681C17.441,17.82,17.654,17.977,17.922,17.975L17.922,17.975z M9.105,16.737
				c0.21-0.003,0.413,0.081,0.559,0.232c0.244,0.252,0.253,0.634,0.019,0.896c-0.293,0.314-0.784,0.337-1.106,0.055
				c-0.354-0.328-0.277-0.868,0.154-1.093C8.847,16.765,8.97,16.733,9.105,16.737z M9.699,17.443l-0.01-0.108
				c-0.048-0.271-0.31-0.461-0.57-0.461c-0.191-0.007-0.373,0.076-0.494,0.224c-0.166,0.195-0.157,0.473,0.005,0.667
				c0.198,0.233,0.547,0.273,0.793,0.122C9.595,17.781,9.689,17.634,9.699,17.443L9.699,17.443z"/>
			<path fill="#BF383D" d="M8.596,19.073c-0.119-0.07-0.168-0.18-0.132-0.299c0.037-0.122,0.147-0.212,0.284-0.215h0.725
				c0.05,0.003,0.101,0.028,0.151,0.043l-0.056,0.108c-0.08,0.177-0.211,0.303-0.4,0.338c-0.15,0.027-0.309,0.012-0.465,0.018
				l-0.095,0.006H8.596z M17.39,19.05c-0.166-0.105-0.15-0.357,0.032-0.451c0.049-0.026,0.108-0.038,0.164-0.041h0.678
				c0.061,0.003,0.112,0.03,0.173,0.045c-0.015,0.014-0.027,0.03-0.038,0.048c-0.028,0.056-0.044,0.124-0.086,0.174
				c-0.121,0.153-0.28,0.254-0.484,0.25L17.39,19.05z"/>
			<path fill="#FFA105" d="M17.24,15.317l0.042,0.238c0.022,0.261-0.009,0.519-0.086,0.77c-0.003,0.014-0.016,0.033-0.03,0.037
				c-0.013,0.003-0.028-0.011-0.037-0.023c-0.079-0.112-0.199-0.19-0.335-0.214c-0.149-0.029-0.304-0.038-0.451-0.055
				C16.701,15.912,16.972,15.629,17.24,15.317L17.24,15.317z M10.706,16.081c-0.33-0.015-0.625,0.009-0.84,0.29
				c-0.132-0.162-0.16-0.895-0.071-1.033c0.264,0.288,0.532,0.588,0.911,0.745V16.081z"/>
			<path fill="#B03238" d="M17.39,19.05l0.438,0.022c0.205,0.007,0.363-0.093,0.484-0.248c0.042-0.049,0.056-0.117,0.086-0.173
				c0.011-0.018,0.023-0.034,0.038-0.049c0.108,0.064,0.164,0.174,0.142,0.282c-0.03,0.132-0.137,0.226-0.264,0.226
				c-0.258,0.004-0.521,0.004-0.779-0.003c-0.048,0-0.097-0.038-0.146-0.065V19.05L17.39,19.05z M8.596,19.073l0.094-0.006
				c0.156-0.006,0.315,0.009,0.464-0.018c0.188-0.035,0.322-0.161,0.4-0.338c0.017-0.04,0.037-0.071,0.055-0.108
				c0.109,0.062,0.165,0.177,0.141,0.282c-0.029,0.125-0.134,0.223-0.265,0.226H8.697c-0.039,0-0.078-0.024-0.116-0.038H8.596z"/>
			<path fill="#2B2214" d="M10.363,17.703c0.021-0.006,0.042-0.018,0.065-0.018h6.148c0.027,0,0.053,0.012,0.081,0.018l-0.07,0.003
				h-6.159c-0.02,0-0.043-0.001-0.066-0.003H10.363z"/>
			<path fill="#00040A" d="M10.344,18.391l0.092,0.005h6.179c-0.021,0.01-0.043,0.01-0.063,0.01c-2.055,0-4.109,0-6.162,0
				c-0.026,0-0.052-0.007-0.077-0.01L10.344,18.391L10.344,18.391z M16.604,17.21l0.098-0.003L16.604,17.21z"/>
			<path fill="#2B2214" d="M10.257,17.681l0.067,0.028L10.257,17.681z"/>
			<path fill="#00040A" d="M10.325,17.208L10.4,17.21L10.325,17.208z"/>
			<path fill="#2B2214" d="M16.675,17.703h0.048H16.675z"/>
			<path fill="#00040A" d="M10.387,17.394h-0.05H10.387z M16.692,17.394c-0.017,0-0.033,0-0.048,0H16.692L16.692,17.394z
				 M15.932,21.193c0.009,0,0.015,0,0.021,0v1.055c0,0.021-0.013,0.04-0.016,0.064l-0.005-0.75l-0.001-0.363V21.193L15.932,21.193z"
				/>
			<path fill="#FBFBFA" d="M14.434,20c-0.006-0.006-0.012-0.01-0.017-0.015L14.434,20z"/>
			<path fill="#101012" d="M12.588,20.732c0.002,0.003,0.002,0.006,0.002,0.011C12.59,20.738,12.59,20.735,12.588,20.732z"/>
			<path fill="#1D2123" d="M12.697,20.755h0.657c-0.016,0.009-0.033,0.024-0.048,0.024h-0.561c-0.014,0-0.031-0.016-0.047-0.024
				H12.697z M12.612,20.755c0.009-0.003,0.016-0.007,0.027-0.009c0.014,0.003,0.014,0.006,0.017,0.009l-0.006,0.033L12.612,20.755
				L12.612,20.755z"/>
			<path fill="#0E0F11" d="M14.38,20.755c0.016,0.003,0.024,0.007,0.03,0.012c-0.003,0.003-0.008,0.01-0.011,0.013L14.38,20.755
				L14.38,20.755L14.38,20.755z"/>
			<path fill="#CFD2D4" d="M17.925,17.977c-0.27,0-0.483-0.156-0.562-0.37c-0.103-0.272,0.036-0.559,0.315-0.681
				c0.273-0.12,0.605-0.02,0.77,0.228c0.11,0.185,0.098,0.417-0.034,0.587C18.297,17.892,18.115,17.981,17.925,17.977z
				 M18.272,17.083c-0.212-0.191-0.582-0.16-0.757,0.063c-0.164,0.21-0.108,0.529,0.112,0.655c0.142,0.1,0.295,0.121,0.458,0.071
				c0.178-0.052,0.304-0.172,0.341-0.36C18.465,17.352,18.404,17.185,18.272,17.083L18.272,17.083z M9.698,17.443
				c-0.01,0.191-0.102,0.341-0.273,0.443c-0.246,0.152-0.596,0.113-0.793-0.122c-0.164-0.194-0.17-0.472-0.005-0.667
				c0.121-0.148,0.303-0.23,0.494-0.223c0.261,0.005,0.522,0.188,0.57,0.461C9.696,17.369,9.696,17.399,9.698,17.443L9.698,17.443z
				 M8.802,17.805c0.245,0.165,0.575,0.099,0.74-0.143c0.006-0.009,0.01-0.017,0.014-0.025c0.107-0.194,0.045-0.456-0.133-0.57
				c-0.162-0.145-0.464-0.146-0.653,0C8.519,17.265,8.537,17.642,8.802,17.805z"/>
			<path fill="#58B7B7" d="M17.627,17.802c-0.223-0.126-0.276-0.444-0.112-0.655c0.175-0.223,0.545-0.256,0.757-0.063
				c-0.005,0.013-0.014,0.029-0.015,0.043c-0.006,0.106-0.012,0.211-0.065,0.301c-0.046,0.078-0.101,0.155-0.165,0.216
				C17.917,17.75,17.776,17.787,17.627,17.802L17.627,17.802z"/>
			<path fill="#51A8A5" d="M17.627,17.802c0.148-0.015,0.29-0.052,0.399-0.156c0.064-0.063,0.117-0.14,0.165-0.215
				c0.054-0.093,0.062-0.201,0.065-0.304c0.001-0.014,0.01-0.029,0.015-0.042c0.136,0.112,0.19,0.259,0.154,0.429
				c-0.04,0.189-0.163,0.307-0.341,0.359C17.922,17.922,17.767,17.904,17.627,17.802z"/>
			<path fill="#58B7B7" d="M8.802,17.805c-0.266-0.164-0.284-0.548-0.031-0.739c0.188-0.146,0.493-0.144,0.652,0l-0.002,0.092
				c0.002,0.231-0.095,0.416-0.289,0.533c-0.097,0.066-0.219,0.075-0.329,0.111L8.802,17.805z"/>
			<path fill="#51A8A5" d="M8.802,17.805c0.111-0.036,0.232-0.053,0.329-0.111c0.195-0.119,0.292-0.303,0.29-0.535l0.003-0.091
				c0.178,0.115,0.24,0.376,0.133,0.57c-0.151,0.253-0.479,0.336-0.731,0.183c-0.008-0.005-0.016-0.011-0.023-0.015V17.805z"/>
		</g>
	</g>
	<g>
		<path fill="#FFA105" d="M25.477,10.138h0.606c0.013,0.004,0.025,0.011,0.04,0.012c0.36,0.023,0.716,0.076,1.068,0.152
			c0.692,0.147,1.362,0.359,1.993,0.688c0.261,0.136,0.507,0.292,0.713,0.503c0.168,0.17,0.275,0.368,0.255,0.618
			c-0.006,0.059,0,0.119,0,0.178v0.094l-0.001,0.067l-0.002,2.854h-8.726l-0.001-2.842l-0.003-0.08V12.29l0.003-0.253
			c0-0.128,0.028-0.249,0.107-0.35c0.087-0.109,0.182-0.219,0.288-0.31c0.319-0.267,0.69-0.451,1.069-0.606
			c0.785-0.324,1.604-0.534,2.451-0.613c0.045-0.003,0.091-0.011,0.137-0.019L25.477,10.138z M25.431,14.798v-0.211v-0.186v-0.481
			l0.005-0.079v-1.25l-0.003-0.178c0.003-0.045,0.012-0.083-0.043-0.083l-0.555,0.003h-0.041h-0.098c-0.128,0-0.254,0-0.38,0h-0.461
			l-0.901-0.004c-0.294,0-0.586,0-0.877-0.001c-0.057,0-0.075,0.021-0.074,0.074c0.004,0.054,0,0.105,0,0.16l0.01,1.333
			l-0.003,0.372l0.003,0.16v0.383l-0.004,0.103v0.036c0,0.01,0.001,0.013,0.001,0.016c0.023,0.002,0.046,0.009,0.072,0.009h1.783
			l0.086-0.002h1.488v-0.173L25.431,14.798z M28.864,12.331h-1.186l-0.646-0.003c-0.281,0-0.56,0-0.839-0.001
			c-0.044,0-0.06,0.012-0.059,0.056l0.003,0.229l0.003,0.801v0.778v0.777h3.434v-0.171l-0.001-0.766
			c0.001-0.015,0.006-0.032,0.006-0.047l-0.005-1.495l-0.001-0.153l0.001-0.001l-0.001,0.001l-0.686-0.004
			C28.881,12.331,28.872,12.331,28.864,12.331L28.864,12.331z M24.253,11.839h3.051l0.005-0.075v-1.117
			c0-0.064-0.017-0.078-0.08-0.078l-2.903,0.001c-0.021,0-0.043,0.002-0.066,0.003v1.267H24.253z"/>
		<g>
			<path fill="#3F3F41" d="M20.187,12.821c0.039-0.066,0.095-0.089,0.169-0.085l0.265,0.001v-0.213
				c-0.014-0.117,0.07-0.22,0.185-0.233c0.017-0.001,0.033-0.001,0.05,0h0.568v0.094l-0.564-0.003c-0.074,0-0.13,0.036-0.136,0.098
				c-0.008,0.084-0.002,0.17-0.002,0.258H21c0.116,0,0.156,0.042,0.156,0.156v2.242c0,0.118-0.042,0.158-0.162,0.158h-0.277
				l0.003,0.247c0.003,0.062,0.053,0.104,0.115,0.109l0.064,0.002l-0.084,0.09c-0.117-0.008-0.205-0.107-0.196-0.224
				c0-0.006,0.001-0.013,0.001-0.018v-0.197c-0.089,0-0.173-0.005-0.263,0c-0.078,0.003-0.14-0.016-0.186-0.082l0.002-2.396
				L20.187,12.821z M30.152,12.29h0.56c0.147,0,0.232,0.083,0.232,0.229v0.218l0.271-0.001c0.076-0.005,0.134,0.02,0.171,0.085
				v2.386c-0.034,0.071-0.089,0.096-0.163,0.094h-0.278v0.2c0,0.144-0.059,0.214-0.198,0.244l-0.084-0.09l0.078-0.003
				c0.057-0.005,0.106-0.044,0.111-0.099c0.007-0.084,0-0.166,0-0.254h-0.284c-0.108-0.001-0.151-0.047-0.151-0.155v-2.253
				c0-0.115,0.04-0.155,0.159-0.155h0.279v-0.216c0-0.093-0.047-0.139-0.142-0.139l-0.562,0.003V12.29L30.152,12.29z"/>
			<path fill="#F48B00" d="M30.747,15.745l0.429,0.526c0.096,0.126,0.148,0.274,0.148,0.437l-0.001,2.847
				c0,0.017-0.019,0.039-0.024,0.059l-0.089-0.004H20.34l-0.066,0.004c-0.01-0.012-0.025-0.021-0.025-0.036
				c-0.005-0.024-0.003-0.053-0.003-0.078v-2.767c-0.002-0.176,0.057-0.348,0.166-0.487l0.41-0.5l0.086-0.09
				c0.02-0.017,0.041-0.034,0.06-0.052c0.138-0.124,0.273-0.244,0.456-0.3h8.724l0.288,0.162c0.082,0.055,0.15,0.131,0.227,0.19
				L30.747,15.745L30.747,15.745z M29.66,19.05c0.051,0.02,0.099,0.057,0.147,0.06h0.779c0.126,0,0.233-0.098,0.262-0.224
				c0.024-0.106-0.031-0.216-0.141-0.282c-0.059-0.014-0.111-0.042-0.172-0.042c-0.226-0.006-0.454-0.006-0.678,0
				c-0.056,0-0.117,0.013-0.165,0.039c-0.183,0.092-0.197,0.344-0.035,0.451L29.66,19.05z M20.868,19.073
				c0.04,0.015,0.076,0.038,0.113,0.038h0.785c0.121,0,0.227-0.1,0.256-0.224c0.026-0.104-0.029-0.222-0.139-0.282
				c-0.05-0.015-0.102-0.042-0.151-0.045c-0.239-0.003-0.479-0.003-0.718,0c-0.14,0.003-0.255,0.094-0.286,0.216
				c-0.03,0.119,0.021,0.229,0.133,0.301L20.868,19.073z M28.964,17.396c-0.018,0-0.033-0.003-0.049-0.003l-0.073-0.003h-6.114
				l-0.067,0.003h-0.05c-0.082,0.008-0.134,0.049-0.153,0.119c-0.016,0.07,0.004,0.12,0.071,0.167l0.07,0.027l0.034,0.005
				l0.069,0.004h6.156l0.067-0.004h0.022h0.039c0.088-0.026,0.141-0.09,0.134-0.166c-0.007-0.078-0.066-0.138-0.157-0.146V17.396
				L28.964,17.396z M22.585,18.396c-0.085,0.017-0.137,0.083-0.134,0.159c0.003,0.064,0.066,0.138,0.141,0.15
				c0.024,0.003,0.05,0.003,0.075,0.003h6.246c0.125,0,0.208-0.064,0.206-0.161c0-0.099-0.081-0.161-0.207-0.161h-6.206
				c-0.031,0-0.062,0.003-0.095,0.004c-0.007,0.001-0.018,0.003-0.029,0.005H22.585z M28.876,17.21l0.098-0.003
				c0.089-0.015,0.144-0.065,0.147-0.149s-0.053-0.146-0.135-0.163c-0.02-0.005-0.044-0.007-0.068-0.007h-6.265
				c-0.026,0-0.048,0.002-0.073,0.008c-0.08,0.02-0.132,0.088-0.129,0.16c0.001,0.073,0.069,0.15,0.147,0.15l0.071,0.003
				c0,0,0.045,0.004,0.069,0.004h6.069L28.876,17.21z M25.781,18.208h3.188c0.089-0.011,0.153-0.08,0.153-0.16
				c0-0.078-0.069-0.15-0.151-0.159c-0.023-0.003-0.047-0.003-0.069-0.003h-6.24c-0.02,0-0.038,0-0.055,0.003
				c-0.088,0.009-0.154,0.08-0.154,0.159c-0.003,0.082,0.062,0.145,0.147,0.156c0.021,0.003,0.045,0.003,0.066,0.003H25.781z
				 M25.786,16.714h3.129c0.02,0,0.041,0.001,0.061-0.002c0.076-0.01,0.14-0.072,0.146-0.146c0.008-0.074-0.044-0.144-0.123-0.165
				c-0.031-0.009-0.064-0.009-0.096-0.009H22.66c-0.125,0-0.209,0.064-0.209,0.161c0.001,0.098,0.08,0.161,0.209,0.161H25.786z
				 M30.202,16.735c-0.137-0.001-0.262,0.029-0.381,0.094c-0.394,0.21-0.494,0.704-0.209,1.026c0.26,0.294,0.726,0.347,1.046,0.12
				c0.295-0.21,0.381-0.591,0.194-0.889C30.702,16.847,30.477,16.745,30.202,16.735z M21.377,16.736
				c-0.135-0.002-0.258,0.028-0.375,0.089c-0.432,0.227-0.508,0.764-0.153,1.095c0.323,0.282,0.811,0.258,1.106-0.056
				c0.231-0.263,0.226-0.643-0.02-0.896C21.791,16.817,21.588,16.733,21.377,16.736L21.377,16.736z M29.514,15.316
				c-0.27,0.31-0.54,0.594-0.898,0.752l0.451,0.055c0.136,0.025,0.257,0.102,0.334,0.215c0.009,0.011,0.028,0.025,0.039,0.022
				c0.01-0.003,0.025-0.021,0.03-0.036c0.078-0.25,0.109-0.508,0.084-0.77C29.55,15.479,29.53,15.407,29.514,15.316L29.514,15.316z
				 M22.979,16.08c-0.379-0.156-0.639-0.456-0.908-0.744c-0.091,0.137-0.07,0.87,0.067,1.033
				C22.356,16.088,22.656,16.064,22.979,16.08L22.979,16.08z"/>
			<path fill="#58B7B7" d="M28.885,12.331l0.682,0.004l0.006,0.153l0.003,1.495c0,0.015-0.003,0.032-0.009,0.049
				c-0.013,0.003-0.029,0.006-0.044,0.012l-0.536,0.238c-0.135,0.053-0.275,0.091-0.412,0.132l-0.449,0.111l-0.743,0.132
				l-0.63,0.074l-0.247,0.021l-0.365,0.015v-0.567h0.021l0.125-0.079l0.451-0.307l0.516-0.352l0.494-0.339l0.417-0.279l0.556-0.382
				l0.15-0.114l0.023-0.007L28.885,12.331z M22.002,14.81v-0.27c0.017-0.007,0.036-0.009,0.05-0.019l0.356-0.281l1.445-1.124
				l0.865-0.668l0.114-0.098c0.002-0.008,0.002-0.012,0.003-0.019l0.554-0.003c0.056,0,0.046,0.039,0.043,0.066l0.004,0.189v1.25
				c0,0.027-0.003,0.054-0.004,0.08l-1.265,0.871c0.001,0.005,0.005,0.012,0.009,0.02h0.634l-0.053,0.057l-0.122,0.105h-0.691
				l0.194-0.16h-2.137V14.81z"/>
			<path fill="#51A8A5" d="M26.14,14.76l0.368-0.015l0.244-0.021l0.632-0.075l0.743-0.131c0.153-0.03,0.301-0.07,0.45-0.112
				l0.409-0.131l0.537-0.238c0.014-0.006,0.03-0.009,0.046-0.012l0.004,0.764v0.172H26.14V14.76L26.14,14.76z"/>
			<path fill="#58B7B7" d="M22.002,13.895l-0.008-1.492c-0.001-0.055,0.019-0.075,0.076-0.075l0.874,0.001l0.902,0.004
				c0,0.009,0.001,0.021-0.003,0.026l-0.387,0.33l-0.61,0.509L22.002,13.895z M26.14,13.415l-0.003-0.802l-0.003-0.23
				c-0.001-0.043,0.014-0.055,0.059-0.055h0.839l0.646,0.003c0,0.008,0.004,0.02,0,0.023l-0.198,0.132l-0.729,0.509l-0.481,0.338
				c-0.041,0.028-0.09,0.053-0.133,0.079L26.14,13.415z"/>
			<path fill="#6EBCB9" d="M26.14,13.415l0.137-0.082l0.48-0.338l0.729-0.51l0.199-0.132c0.002-0.001,0-0.014,0-0.022h0.614
				c-0.013,0.016-0.023,0.033-0.04,0.043l-1.016,0.72l-0.525,0.375l-0.258,0.188l-0.315,0.211l0.001-0.461L26.14,13.415z
				 M22.002,13.895l1.455-1.211l0.385-0.329c0.006-0.005,0.002-0.018,0.005-0.028h0.461l-0.185,0.176l-0.343,0.277l-0.422,0.35
				l-0.404,0.339l-0.589,0.491l-0.372,0.3V13.89L22.002,13.895z"/>
			<path fill="#58B7B7" d="M26.14,13.871l0.314-0.21l0.259-0.188l0.526-0.375l1.017-0.727c0.017-0.011,0.025-0.028,0.04-0.044h0.421
				c-0.006,0.005-0.006,0.014-0.01,0.017l-0.855,0.571l-0.489,0.337l-0.536,0.356l-0.502,0.345l-0.185,0.135l-0.004,0.001
				l-0.002-0.224L26.14,13.871z M21.999,14.267l0.372-0.301l0.59-0.491l0.403-0.339l0.422-0.349l0.343-0.279
				c0.065-0.055,0.124-0.117,0.185-0.175h0.381c0,0.006,0,0.012,0.002,0.017c-0.021,0.011-0.045,0.017-0.064,0.031l-0.594,0.461
				l-0.547,0.425l-0.783,0.612l-0.433,0.333L22,14.427L21.999,14.267L21.999,14.267z"/>
			<path fill="#6EBCB9" d="M24.81,14.81h-0.633c-0.004-0.006-0.008-0.013-0.009-0.022l1.263-0.868v0.481
				c-0.033,0.016-0.067,0.031-0.098,0.051l-0.338,0.241c-0.047,0.037-0.092,0.078-0.136,0.118H24.81L24.81,14.81z"/>
			<path fill="#6ABCBD" d="M22.002,14.427l0.274-0.216l0.432-0.333l0.785-0.611l0.547-0.426l0.592-0.46
				c0.02-0.013,0.043-0.02,0.067-0.029l0.027-0.017c0.014,0.011,0.016,0.022,0.017,0.035c0.013-0.013,0.016-0.024,0.018-0.035h0.037
				l0.037,0.016l-0.114,0.098l-0.867,0.668l-0.547,0.427l-0.898,0.697l-0.355,0.281c-0.015,0.009-0.032,0.01-0.051,0.018V14.427
				L22.002,14.427z"/>
			<path fill="#51A8A5" d="M22.002,14.81h2.137l-0.194,0.16l-0.086,0.003h-1.784c-0.024,0-0.047-0.007-0.072-0.009
				c0-0.004,0-0.011-0.002-0.015v-0.03L22.002,14.81L22.002,14.81z"/>
			<path fill="#6ABCBD" d="M26.143,14.092l0.187-0.135l0.5-0.345l0.536-0.356l0.489-0.337l0.851-0.57
				c0.003-0.004,0.003-0.012,0.008-0.017h0.15c-0.05,0.046-0.098,0.086-0.15,0.123l-0.555,0.381l-0.418,0.28l-0.493,0.338
				l-0.516,0.353l-0.454,0.305l-0.123,0.08l-0.012-0.1V14.092z"/>
			<path fill="#58B7B7" d="M24.86,14.81l0.136-0.118l0.338-0.241c0.03-0.019,0.064-0.035,0.098-0.051v0.186
				c-0.121,0.042-0.216,0.123-0.33,0.21h0.142c-0.013,0.017-0.019,0.038-0.035,0.048l-0.176,0.125H24.86l0.196-0.158
				c-0.006-0.006-0.009-0.012-0.009-0.018L24.86,14.81L24.86,14.81z"/>
			<path fill="#51A8A5" d="M25.031,14.971l0.178-0.124c0.015-0.011,0.022-0.031,0.034-0.047l0.188,0v0.172L25.031,14.971
				L25.031,14.971z"/>
			<path fill="#6ABCBD" d="M25.439,14.798l-0.189,0.001h-0.14c0.111-0.089,0.206-0.17,0.33-0.21L25.439,14.798L25.439,14.798z"/>
			<path fill="#51A8A5" d="M24.86,14.81l0.188-0.016c0,0.006,0.003,0.013,0.007,0.017L24.86,14.97h-0.225l0.123-0.104
				c0.019-0.019,0.033-0.039,0.052-0.056H24.86L24.86,14.81z"/>
			<g>
				<path fill="#6EBCB9" d="M26.143,14.092l0.014,0.099l-0.017,0.002v-0.1L26.143,14.092z M24.759,12.334l-0.007,0.035
					c-0.013-0.011-0.015-0.024-0.019-0.035H24.759L24.759,12.334z"/>
				<path fill="#6EBCB9" d="M24.833,12.35l-0.039-0.017h0.039C24.833,12.339,24.833,12.344,24.833,12.35L24.833,12.35z
					 M24.725,12.333l-0.025,0.017c-0.003-0.005-0.003-0.011-0.003-0.017H24.725z M28.865,12.339
					c0.006-0.008,0.014-0.008,0.021-0.008C28.879,12.335,28.872,12.338,28.865,12.339z M29.57,12.336l0.003-0.001L29.57,12.336z
					 M21.999,14.949c0,0.004,0.001,0.01,0.001,0.015C21.996,14.951,21.997,14.951,21.999,14.949z"/>
			</g>
			<path fill="#0C0E11" d="M23.362,21.193l-0.002,1.132c-0.001,0.068-0.015,0.13-0.093,0.154l-0.234,0.01h-1.495
				c-0.046,0-0.096-0.004-0.146-0.007c-0.062-0.03-0.091-0.064-0.091-0.15l-0.002-1.096l-0.003-0.07l0.331,0.024h1.735V21.193z
				 M28.306,22.482c-0.078-0.033-0.099-0.077-0.09-0.179c0.006-0.019,0.015-0.04,0.015-0.064l0.001-1.052h2.041v1.138
				c0,0.083-0.022,0.12-0.096,0.15l-0.146,0.01c-0.496,0-0.993,0-1.488,0c-0.078,0-0.159-0.006-0.238-0.01L28.306,22.482z"/>
			<path fill="#1A1E20" d="M31.309,19.667c-0.026-0.041-0.067-0.041-0.107-0.041H20.37c-0.043,0-0.083,0-0.106,0.041
				c-0.007,0.064-0.018,0.117-0.015,0.176c0.015,0.3,0.112,0.577,0.257,0.838c0.028,0.034,0.064,0.062,0.076,0.101
				c0.019,0.093,0.117,0.112,0.158,0.184l0.027,0.017c0.03-0.008,0.051-0.026,0.067-0.04l0.022,0.1
				c0.004,0.004,0.01,0.005,0.014,0.008l0.003,0.004h0.006c0.006,0.002,0.013,0.005,0.016,0.008c0.015,0.006,0.021,0.01,0.027,0.015
				l0.144,0.05l0.224,0.05l0.33,0.023h6.583c0.01,0,0.016,0.001,0.024,0.001h2.039l0.21-0.01c0.202,0,0.344-0.098,0.448-0.267
				c0.228-0.375,0.414-0.764,0.38-1.217l-0.003-0.038L31.309,19.667z M26.682,20.767c-0.004,0.003-0.007,0.01-0.012,0.013
				l-0.019-0.022l-0.492-0.005c-0.023,0-0.051-0.003-0.078-0.003l-0.391,0.003c-0.021,0-0.045,0.002-0.064,0.005
				c-0.017,0.007-0.033,0.022-0.048,0.022H25.02c-0.017,0-0.031-0.016-0.047-0.022H24.93l-0.009,0.031l-0.037-0.031
				c-0.006-0.005-0.015-0.008-0.021-0.011l-0.001-0.003c0-0.005,0-0.008-0.003-0.011c0.004-0.005,0.007-0.009,0.009-0.015
				l-0.002-0.705c0-0.012,0.014-0.022,0.018-0.034c0.025,0.003,0.037,0.006,0.052,0.009c0.012-0.002,0.026-0.006,0.04-0.006h1.599
				c0.012,0,0.027,0.004,0.04,0.006h0.074c0.004,0.003,0.01,0.007,0.013,0.014v0.026l0.005,0.591l0.003,0.097
				c0,0-0.015,0.043-0.045,0.031C26.667,20.761,26.675,20.762,26.682,20.767L26.682,20.767L26.682,20.767z"/>
			<path fill="#4A3D25" d="M31.309,19.667c-0.026-0.041-0.067-0.041-0.107-0.041H20.37c-0.043,0-0.083,0-0.106,0.041
				c0.003-0.02,0.007-0.038,0.012-0.057l0.064-0.003L31.3,19.61c0.002,0.02,0.005,0.038,0.006,0.057H31.309z"/>
			<path fill="#1D2123" d="M20.777,20.995l0.066-0.045l0.022,0.097L20.777,20.995L20.777,20.995z M20.74,20.972l0.027,0.02
				L20.74,20.972z M20.863,21.042c0.006,0.004,0.011,0.005,0.016,0.008C20.873,21.047,20.868,21.046,20.863,21.042z M20.887,21.054
				l0.018,0.009C20.899,21.059,20.894,21.056,20.887,21.054z M20.911,21.065c0.006,0.002,0.012,0.008,0.016,0.011
				C20.924,21.073,20.917,21.067,20.911,21.065z"/>
			<path fill="#0E0F11" d="M25.78,18.208c-1.039,0-2.076,0-3.114,0c-0.021,0-0.048,0-0.066-0.003
				c-0.087-0.012-0.15-0.078-0.147-0.156c0-0.077,0.066-0.15,0.153-0.159c0.016-0.003,0.036-0.003,0.056-0.003l6.308,0.003
				c0.084,0.009,0.151,0.081,0.151,0.159c0,0.08-0.067,0.15-0.151,0.16c-0.031,0.001-0.059,0-0.087,0h-3.096H25.78z M22.599,17.208
				c-0.077,0-0.145-0.079-0.147-0.15c-0.003-0.07,0.052-0.14,0.129-0.16c0.025-0.006,0.047-0.008,0.073-0.008h6.265
				c0.022,0,0.046,0,0.068,0.007c0.082,0.019,0.138,0.088,0.135,0.163c-0.004,0.074-0.066,0.134-0.148,0.149l-0.098,0.003
				l-0.067,0.004H22.74c-0.024,0-0.045-0.003-0.07-0.004L22.599,17.208L22.599,17.208z M25.785,16.714H22.66
				c-0.129,0-0.209-0.062-0.209-0.161c0-0.097,0.08-0.161,0.208-0.161h6.241c0.033,0,0.067,0,0.098,0.009
				c0.077,0.021,0.13,0.092,0.123,0.165c-0.006,0.072-0.069,0.136-0.147,0.146c-0.019,0.004-0.039,0.002-0.061,0.002H25.785z"/>
			<path fill="#101012" d="M22.616,18.391l0.093-0.004h6.204c0.125,0,0.208,0.062,0.208,0.161c0.001,0.097-0.081,0.161-0.206,0.161
				h-6.25c-0.023,0-0.049,0-0.073-0.003c-0.074-0.012-0.138-0.08-0.141-0.15c-0.004-0.075,0.049-0.143,0.134-0.159
				c0.025,0.003,0.051,0.01,0.075,0.01h6.224c-0.022-0.01-0.048-0.01-0.072-0.01h-6.103C22.676,18.397,22.645,18.392,22.616,18.391
				L22.616,18.391z"/>
			<path fill="#0D0E11" d="M22.659,17.394l0.067-0.003h6.113l0.072,0.003h0.049c0.088,0.008,0.148,0.063,0.158,0.143
				c0.009,0.08-0.044,0.143-0.135,0.167h-0.038h-0.021c-0.025-0.006-0.053-0.018-0.079-0.018h-5.283c-0.287,0-0.575-0.001-0.863,0
				c-0.023,0-0.043,0.012-0.066,0.018L22.599,17.7l-0.07-0.027c-0.068-0.046-0.087-0.099-0.071-0.167
				c0.02-0.067,0.071-0.112,0.15-0.118h0.052V17.394z"/>
			<path fill="#E5E5E5" d="M30.199,16.735c0.275,0.009,0.503,0.112,0.652,0.351c0.185,0.3,0.102,0.678-0.195,0.889
				c-0.32,0.227-0.786,0.174-1.047-0.12c-0.283-0.329-0.182-0.816,0.208-1.026C29.937,16.766,30.07,16.733,30.199,16.735z
				 M30.193,17.975c0.192,0.006,0.375-0.083,0.492-0.235c0.133-0.17,0.145-0.402,0.032-0.587c-0.162-0.25-0.493-0.348-0.767-0.228
				c-0.282,0.121-0.421,0.408-0.315,0.681C29.711,17.82,29.925,17.977,30.193,17.975L30.193,17.975z M21.377,16.737
				c0.211-0.003,0.414,0.081,0.559,0.232c0.243,0.252,0.251,0.634,0.017,0.896c-0.294,0.314-0.78,0.337-1.105,0.055
				c-0.354-0.328-0.277-0.868,0.155-1.093C21.119,16.765,21.242,16.733,21.377,16.737z M21.97,17.443l-0.009-0.108
				c-0.047-0.271-0.309-0.461-0.571-0.461c-0.19-0.007-0.372,0.076-0.491,0.224c-0.169,0.195-0.159,0.473,0.004,0.667
				c0.198,0.233,0.545,0.273,0.795,0.122C21.867,17.781,21.961,17.634,21.97,17.443L21.97,17.443z"/>
			<path fill="#BF383D" d="M20.867,19.073c-0.118-0.07-0.169-0.18-0.131-0.299c0.034-0.122,0.145-0.212,0.282-0.215h0.725
				c0.051,0.003,0.101,0.028,0.152,0.043l-0.056,0.108c-0.079,0.177-0.211,0.303-0.399,0.338c-0.152,0.027-0.312,0.012-0.466,0.018
				l-0.095,0.006H20.867z M29.66,19.05c-0.164-0.105-0.149-0.357,0.035-0.451c0.048-0.026,0.107-0.038,0.163-0.041h0.678
				c0.061,0.003,0.112,0.03,0.172,0.045c-0.013,0.014-0.028,0.03-0.038,0.048c-0.027,0.056-0.046,0.124-0.085,0.174
				c-0.123,0.153-0.282,0.254-0.485,0.25L29.66,19.05z"/>
			<path fill="#FFA105" d="M29.511,15.317l0.041,0.238c0.024,0.261-0.007,0.519-0.085,0.77c-0.003,0.014-0.017,0.033-0.029,0.037
				c-0.013,0.003-0.03-0.011-0.038-0.023c-0.076-0.112-0.2-0.19-0.334-0.214c-0.15-0.029-0.307-0.038-0.453-0.055
				C28.973,15.912,29.243,15.629,29.511,15.317L29.511,15.317z M22.979,16.081c-0.329-0.015-0.626,0.009-0.843,0.29
				c-0.131-0.162-0.159-0.895-0.069-1.033c0.265,0.288,0.532,0.588,0.912,0.745V16.081z"/>
			<path fill="#B03238" d="M29.66,19.05l0.439,0.022c0.205,0.007,0.362-0.093,0.485-0.248c0.039-0.049,0.056-0.117,0.085-0.173
				c0.01-0.018,0.025-0.034,0.038-0.049c0.109,0.064,0.165,0.174,0.141,0.282c-0.028,0.132-0.136,0.226-0.262,0.226
				c-0.258,0.004-0.521,0.004-0.779-0.003c-0.048,0-0.097-0.038-0.147-0.065V19.05L29.66,19.05z M20.867,19.073l0.096-0.006
				c0.154-0.006,0.313,0.009,0.464-0.018c0.187-0.035,0.321-0.161,0.398-0.338c0.018-0.04,0.039-0.071,0.055-0.108
				c0.11,0.062,0.166,0.177,0.142,0.282c-0.028,0.125-0.134,0.223-0.263,0.226h-0.792c-0.037,0-0.076-0.024-0.112-0.038H20.867z"/>
			<path fill="#2B2214" d="M22.633,17.703c0.022-0.006,0.043-0.018,0.067-0.018h6.147c0.025,0,0.053,0.012,0.08,0.018l-0.069,0.003
				H22.7C22.678,17.706,22.656,17.705,22.633,17.703L22.633,17.703z"/>
			<path fill="#00040A" d="M22.616,18.391l0.093,0.005h6.176c-0.021,0.01-0.04,0.01-0.062,0.01c-2.054,0-4.106,0-6.16,0
				c-0.026,0-0.052-0.007-0.077-0.01L22.616,18.391L22.616,18.391z M28.875,17.21l0.098-0.003L28.875,17.21z"/>
			<path fill="#2B2214" d="M22.529,17.681l0.067,0.028L22.529,17.681z"/>
			<path fill="#00040A" d="M22.599,17.208l0.071,0.003L22.599,17.208z"/>
			<path fill="#2B2214" d="M28.947,17.703h0.047H28.947z"/>
			<path fill="#00040A" d="M22.659,17.394h-0.052H22.659z M28.964,17.394c-0.018,0-0.035,0-0.049,0H28.964L28.964,17.394z
				 M28.203,21.193c0.01,0,0.016,0,0.024,0v1.055c0,0.021-0.015,0.04-0.018,0.064l-0.003-0.75l-0.004-0.363V21.193L28.203,21.193z"
				/>
			<path fill="#FBFBFA" d="M26.704,20c-0.006-0.006-0.012-0.01-0.015-0.015L26.704,20z"/>
			<path fill="#101012" d="M24.86,20.732c0.001,0.003,0.001,0.006,0.001,0.011C24.861,20.738,24.861,20.735,24.86,20.732z"/>
			<path fill="#1D2123" d="M24.97,20.755h0.656c-0.017,0.009-0.033,0.024-0.048,0.024h-0.56
				C25.001,20.779,24.989,20.764,24.97,20.755L24.97,20.755z M24.884,20.755c0.008-0.003,0.016-0.007,0.025-0.009
				c0.016,0.003,0.016,0.006,0.021,0.009l-0.008,0.033L24.884,20.755L24.884,20.755z"/>
			<path fill="#0E0F11" d="M26.651,20.755c0.019,0.003,0.025,0.007,0.031,0.012c-0.003,0.003-0.007,0.01-0.01,0.013L26.651,20.755
				L26.651,20.755L26.651,20.755z"/>
			<path fill="#CFD2D4" d="M30.196,17.977c-0.27,0-0.482-0.156-0.561-0.37c-0.103-0.272,0.035-0.559,0.315-0.681
				c0.273-0.12,0.604-0.02,0.767,0.228c0.112,0.185,0.101,0.417-0.032,0.587C30.568,17.892,30.388,17.981,30.196,17.977z
				 M30.545,17.083c-0.213-0.191-0.583-0.16-0.761,0.063c-0.163,0.21-0.107,0.529,0.115,0.655c0.14,0.1,0.293,0.121,0.456,0.071
				c0.18-0.052,0.307-0.172,0.343-0.36C30.736,17.352,30.674,17.185,30.545,17.083L30.545,17.083z M21.97,17.443
				c-0.009,0.191-0.103,0.341-0.272,0.443c-0.25,0.152-0.597,0.113-0.795-0.122c-0.163-0.194-0.171-0.472-0.004-0.667
				c0.119-0.148,0.301-0.23,0.491-0.223c0.263,0.005,0.524,0.188,0.571,0.461C21.967,17.369,21.967,17.399,21.97,17.443
				L21.97,17.443z M21.073,17.805c0.246,0.165,0.578,0.099,0.74-0.143c0.006-0.009,0.011-0.017,0.016-0.025
				c0.107-0.194,0.045-0.456-0.133-0.57c-0.161-0.145-0.466-0.146-0.655,0C20.791,17.265,20.808,17.642,21.073,17.805z"/>
			<path fill="#58B7B7" d="M29.9,17.802c-0.224-0.126-0.278-0.444-0.115-0.655c0.178-0.223,0.548-0.256,0.761-0.063
				c-0.006,0.013-0.017,0.029-0.017,0.043c-0.006,0.106-0.012,0.211-0.066,0.301c-0.045,0.078-0.101,0.155-0.165,0.216
				C30.189,17.75,30.047,17.787,29.9,17.802L29.9,17.802z"/>
			<path fill="#51A8A5" d="M29.9,17.802c0.147-0.015,0.289-0.052,0.397-0.156c0.064-0.063,0.117-0.14,0.165-0.215
				c0.055-0.093,0.062-0.201,0.066-0.304c0-0.014,0.011-0.029,0.017-0.042c0.134,0.112,0.188,0.259,0.153,0.429
				c-0.04,0.189-0.163,0.307-0.343,0.359C30.193,17.922,30.038,17.904,29.9,17.802z"/>
			<path fill="#58B7B7" d="M21.073,17.805c-0.265-0.164-0.281-0.548-0.029-0.739c0.189-0.146,0.494-0.144,0.654,0l-0.004,0.092
				c0.004,0.231-0.095,0.416-0.289,0.533c-0.097,0.066-0.218,0.075-0.329,0.111L21.073,17.805z"/>
			<path fill="#51A8A5" d="M21.073,17.805c0.112-0.036,0.234-0.053,0.33-0.111c0.195-0.119,0.293-0.303,0.291-0.535l0.002-0.091
				c0.178,0.115,0.24,0.376,0.133,0.57c-0.15,0.253-0.479,0.336-0.732,0.183c-0.007-0.005-0.014-0.011-0.023-0.015V17.805z"/>
		</g>
	</g>
	<g>
		<g>
			<rect x="-5.786" y="5.305" fill="#1C1C1C" width="0.417" height="17.177"/>
			<g>
				<rect x="-5.877" y="20.482" fill="#FF363D" width="0.266" height="2.074"/>
				<rect x="-5.612" y="20.482" fill="#D62B2F" width="0.266" height="2.074"/>
			</g>
			<g>
				<rect x="-6.088" y="7.311" fill="#6F310A" width="0.485" height="14.318"/>
				<rect x="-5.603" y="7.311" fill="#9E4310" width="0.468" height="14.318"/>
			</g>
			<path fill="#3D3D3D" d="M-5.86,22.365h0.496c0.126,0,0.229,0.102,0.229,0.228l0,0h-0.953l0,0
				C-6.088,22.467-5.986,22.365-5.86,22.365z"/>
		</g>
		<g>
			<rect x="32.45" y="5.347" fill="#1C1C1C" width="0.418" height="17.123"/>
			<g>
				<rect x="32.362" y="20.472" fill="#FF363D" width="0.266" height="2.071"/>
				<rect x="32.627" y="20.472" fill="#D62B2F" width="0.266" height="2.071"/>
			</g>
			<g>
				<rect x="32.151" y="7.269" fill="#9E4310" width="0.483" height="14.348"/>
				<rect x="32.634" y="7.269" fill="#6F310A" width="0.469" height="14.348"/>
			</g>
			<path fill="#3D3D3D" d="M32.376,22.35h0.498c0.125,0,0.229,0.103,0.229,0.231l0,0h-0.952l0,0
				C32.151,22.452,32.253,22.35,32.376,22.35z"/>
		</g>
		<g>
			<path fill="#CC2314" d="M35.163,4.144V3.984H-7.179v0.159c0,0.178,0.117,0.346,0.321,0.496h41.701
				C35.045,4.49,35.163,4.322,35.163,4.144z"/>
			<path fill="#E56200" d="M-6.858,4.64c0.524,0.388,1.638,0.657,2.932,0.657h35.836c1.295,0,2.409-0.269,2.934-0.657H-6.858z"/>
		</g>
		<g>
			<polygon fill="#6F310A" points="11.821,4.974 9.196,5.81 18.058,5.81 20.684,4.974 			"/>
			<polygon fill="#6F310A" points="-6.088,4.974 -6.088,5.81 9.196,5.81 11.821,4.974 			"/>
			<polygon fill="#6F310A" points="33.103,4.974 20.684,4.974 18.058,5.81 33.103,5.81 			"/>
		</g>
	</g>
</g>
</svg>
