<?xml version="1.0" encoding="utf-8"?>
<!-- Generator: Adobe Illustrator 16.0.0, SVG Export Plug-In . SVG Version: 6.00 Build 0)  -->
<!DOCTYPE svg PUBLIC "-//W3C//DTD SVG 1.1//EN" "http://www.w3.org/Graphics/SVG/1.1/DTD/svg11.dtd">
<svg version="1.1" id="Layer_1" xmlns="http://www.w3.org/2000/svg" xmlns:xlink="http://www.w3.org/1999/xlink" x="0px" y="0px"
	 width="65px" height="65px" viewBox="0 0 65 65" enable-background="new 0 0 65 65" xml:space="preserve">
<g id="Layer_1_1_" display="none">
	<circle display="inline" fill="#00A14B" cx="25" cy="25" r="14.198"/>
	<circle display="inline" fill="#00A14B" fill-opacity="0.8" cx="25.001" cy="25" r="16.566"/>
	<circle display="inline" fill="#00A14B" fill-opacity="0.5" cx="25" cy="25" r="18.933"/>
	<circle display="inline" fill="#00A14B" fill-opacity="0.2" cx="24.999" cy="25" r="21.3"/>
	<circle display="inline" fill="#00A14B" fill-opacity="0.2" cx="25" cy="25" r="23.665"/>
	
		<circle display="inline" opacity="0.5" fill="none" stroke="#FFFFFF" stroke-width="1.5" stroke-miterlimit="10" enable-background="new    " cx="25" cy="25" r="11.184"/>
</g>
<g id="Layer_2_1_">
	<g>
		<radialGradient id="SVGID_1_" cx="32.5" cy="32.5" r="28.8945" gradientUnits="userSpaceOnUse">
			<stop  offset="0" style="stop-color:#FFD97B"/>
			<stop  offset="1" style="stop-color:#FFA800"/>
		</radialGradient>
		<polygon opacity="0.6" fill="url(#SVGID_1_)" stroke="#FFAA00" stroke-miterlimit="10" points="17.055,59.251 1.61,32.502 
			17.055,5.749 47.945,5.749 63.39,32.502 47.945,59.251 		"/>
		<radialGradient id="SVGID_2_" cx="32.5005" cy="32.499" r="24.3372" gradientUnits="userSpaceOnUse">
			<stop  offset="0" style="stop-color:#FFD97B"/>
			<stop  offset="1" style="stop-color:#FFA800"/>
		</radialGradient>
		<polygon opacity="0.4" fill="url(#SVGID_2_)" enable-background="new    " points="19.491,55.03 6.482,32.502 19.491,9.968 
			45.51,9.968 58.519,32.502 45.51,55.03 		"/>
		<radialGradient id="SVGID_3_" cx="32.5" cy="32.5" r="20.5014" gradientUnits="userSpaceOnUse">
			<stop  offset="0" style="stop-color:#FFD97B"/>
			<stop  offset="1" style="stop-color:#FFA800"/>
		</radialGradient>
		<polygon opacity="0.6" fill="url(#SVGID_3_)" enable-background="new    " points="21.542,51.48 10.583,32.5 21.542,13.519 
			43.459,13.519 54.417,32.5 43.459,51.48 		"/>
		<radialGradient id="SVGID_4_" cx="32.499" cy="32.5005" r="16.2083" gradientUnits="userSpaceOnUse">
			<stop  offset="0" style="stop-color:#FFD97B"/>
			<stop  offset="1" style="stop-color:#FFA800"/>
		</radialGradient>
		<polygon opacity="0.5" fill="url(#SVGID_4_)" enable-background="new    " points="23.836,47.507 15.172,32.5 23.836,17.494 
			41.164,17.494 49.826,32.5 41.164,47.507 		"/>
		<radialGradient id="SVGID_5_" cx="32.5005" cy="32.5" r="13.7842" gradientUnits="userSpaceOnUse">
			<stop  offset="0" style="stop-color:#FFD97B"/>
			<stop  offset="1" style="stop-color:#FFA800"/>
		</radialGradient>
		<linearGradient id="SVGID_6_" gradientUnits="userSpaceOnUse" x1="17.186" y1="32.5" x2="47.8145" y2="32.5">
			<stop  offset="0" style="stop-color:#FF9200"/>
			<stop  offset="1" style="stop-color:#FFB400"/>
		</linearGradient>
		<polygon fill="url(#SVGID_5_)" stroke="url(#SVGID_6_)" stroke-miterlimit="10" points="25.132,45.261 17.764,32.5 25.132,19.739 
			39.867,19.739 47.237,32.5 39.867,45.261 		"/>
	</g>
</g>
</svg>
