<?xml version="1.0" encoding="utf-8"?>
<!-- Generator: Adobe Illustrator 16.0.0, SVG Export Plug-In . SVG Version: 6.00 Build 0)  -->
<!DOCTYPE svg PUBLIC "-//W3C//DTD SVG 1.1//EN" "http://www.w3.org/Graphics/SVG/1.1/DTD/svg11.dtd">
<svg version="1.1" id="Layer_1" xmlns="http://www.w3.org/2000/svg" xmlns:xlink="http://www.w3.org/1999/xlink" x="0px" y="0px"
	 width="31.917px" height="38.1px" viewBox="0 0.669 31.917 38.1" enable-background="new 0 0.669 31.917 38.1"
	 xml:space="preserve">
<g>
	<ellipse opacity="0.1" fill="#1E1100" enable-background="new    " cx="15.942" cy="37.469" rx="9.104" ry="1.042"/>
	<path fill="#FFA105" d="M15.472,6.914h0.927c0.02,0.006,0.041,0.016,0.061,0.018c0.552,0.035,1.097,0.115,1.636,0.232
		c1.059,0.227,2.086,0.551,3.051,1.054c0.398,0.208,0.777,0.447,1.092,0.771c0.26,0.262,0.422,0.563,0.391,0.947
		c-0.008,0.091,0.002,0.182,0.002,0.272v0.145l-0.004,0.104v4.368H9.266l-0.002-4.35l-0.005-0.123v-0.144l0.004-0.388
		c0-0.196,0.043-0.382,0.166-0.535c0.135-0.167,0.278-0.336,0.443-0.475c0.487-0.408,1.054-0.688,1.638-0.928
		c1.202-0.495,2.452-0.816,3.75-0.937c0.07-0.006,0.139-0.021,0.209-0.03L15.472,6.914z M15.4,14.047v-0.323l-0.001-0.283
		l0.001-0.736l0.008-0.121v-1.915l-0.005-0.272c0.003-0.068,0.018-0.127-0.068-0.126l-0.847,0.004l-0.062,0.001h-0.149
		c-0.196,0-0.39,0-0.584-0.001h-0.706l-1.381-0.006c-0.447,0-0.895,0.002-1.34-0.002c-0.088,0-0.117,0.03-0.113,0.114
		c0.004,0.083,0.001,0.161,0.001,0.245l0.01,2.04l-0.002,0.567l0.002,0.244v0.587l-0.004,0.157v0.058
		c-0.001,0.014,0.001,0.02,0.003,0.023c0.037,0.004,0.07,0.015,0.109,0.015h2.731l0.133-0.005h2.278v-0.264L15.4,14.047z
		 M20.654,10.271H18.84l-0.993-0.005c-0.428,0-0.854,0.001-1.283-0.001c-0.064,0-0.09,0.02-0.088,0.085L16.48,10.7l0.006,1.229
		v1.191v1.188h5.258v-0.262l-0.006-1.173c0.004-0.023,0.012-0.048,0.012-0.073l-0.006-2.288l-0.006-0.233l0.004-0.002l-0.004,0.001
		l-1.047-0.006c-0.01-0.001-0.022-0.001-0.034-0.001H20.654z M13.598,9.518h4.669l0.006-0.113V7.694
		c0-0.098-0.023-0.121-0.121-0.121l-4.443,0.002c-0.032,0-0.066,0.004-0.101,0.006v1.938H13.598z"/>
	<g>
		<path fill="#3F3F41" d="M7.373,11.021c0.061-0.101,0.144-0.136,0.259-0.131l0.403,0.002v-0.326
			c-0.02-0.179,0.107-0.338,0.284-0.358c0.025-0.002,0.05-0.002,0.075,0h0.87l-0.001,0.145l-0.861-0.004
			c-0.116,0-0.202,0.055-0.21,0.148c-0.01,0.131-0.002,0.262-0.002,0.396h0.426c0.178,0,0.242,0.063,0.242,0.238v3.434
			c0,0.18-0.066,0.242-0.249,0.242H8.186l0.002,0.376c0.004,0.095,0.081,0.159,0.175,0.166l0.101,0.003l-0.129,0.138
			c-0.178-0.012-0.313-0.164-0.301-0.343c0-0.009,0.001-0.019,0.003-0.026v-0.303c-0.137,0-0.265-0.007-0.403,0.001
			c-0.119,0.006-0.215-0.024-0.282-0.125l0.001-3.669L7.373,11.021z M22.626,10.207h0.857c0.225,0,0.354,0.128,0.354,0.351v0.333
			l0.418-0.001c0.113-0.006,0.201,0.03,0.26,0.131v3.652c-0.053,0.108-0.135,0.148-0.25,0.145h-0.426v0.306
			c0,0.222-0.088,0.329-0.303,0.375l-0.131-0.139l0.121-0.005c0.086-0.006,0.162-0.067,0.17-0.15c0.01-0.127,0-0.255,0-0.389h-0.436
			c-0.164-0.002-0.232-0.07-0.232-0.237v-3.449c0-0.175,0.064-0.237,0.244-0.237h0.428v-0.33c0-0.144-0.07-0.213-0.217-0.213
			l-0.859,0.005L22.626,10.207L22.626,10.207z"/>
		<path fill="#F48B00" d="M23.539,15.498l0.654,0.805c0.146,0.191,0.229,0.419,0.229,0.668l-0.002,4.359
			c0,0.03-0.025,0.061-0.037,0.089l-0.133-0.005H7.606l-0.103,0.005c-0.014-0.016-0.037-0.03-0.039-0.051
			c-0.006-0.04-0.003-0.083-0.003-0.124v-4.235c-0.003-0.27,0.086-0.533,0.254-0.745l0.629-0.766l0.129-0.138
			c0.033-0.025,0.064-0.053,0.094-0.08c0.209-0.189,0.418-0.373,0.696-0.457h13.357l0.439,0.245c0.125,0.084,0.23,0.201,0.344,0.292
			l0.133,0.139L23.539,15.498z M21.876,20.559c0.074,0.03,0.146,0.087,0.221,0.092l1.197,0.002c0.191-0.002,0.354-0.151,0.398-0.344
			c0.037-0.164-0.049-0.334-0.215-0.434c-0.088-0.022-0.174-0.064-0.264-0.067c-0.346-0.007-0.691-0.007-1.039,0
			c-0.084,0.003-0.178,0.024-0.252,0.062c-0.277,0.141-0.303,0.528-0.051,0.69L21.876,20.559z M8.415,20.594
			c0.061,0.021,0.117,0.058,0.177,0.058h1.199c0.188-0.002,0.348-0.153,0.393-0.344c0.039-0.161-0.048-0.34-0.214-0.434
			c-0.076-0.022-0.153-0.064-0.232-0.067c-0.366-0.006-0.732-0.007-1.099-0.002c-0.212,0.005-0.389,0.146-0.436,0.331
			c-0.047,0.186,0.03,0.354,0.202,0.46L8.415,20.594z M20.806,18.024c-0.023,0-0.05-0.002-0.074-0.002l-0.109-0.005h-9.36
			l-0.105,0.005h-0.076c-0.123,0.013-0.204,0.074-0.232,0.182c-0.028,0.106,0.006,0.184,0.109,0.256l0.104,0.041l0.055,0.005
			l0.104,0.005h9.424l0.104-0.005h0.033h0.061c0.137-0.037,0.219-0.137,0.204-0.254c-0.013-0.117-0.101-0.207-0.241-0.219V18.024
			L20.806,18.024z M11.042,19.555c-0.128,0.027-0.209,0.127-0.204,0.243c0.006,0.102,0.101,0.212,0.216,0.231
			c0.038,0.004,0.076,0.006,0.114,0.005h9.562c0.194,0,0.317-0.099,0.316-0.248c-0.001-0.15-0.124-0.246-0.318-0.246h-9.5
			c-0.047,0-0.095,0.005-0.141,0.007c-0.016,0.001-0.03,0.005-0.047,0.007L11.042,19.555z M20.673,17.741l0.151-0.005
			c0.133-0.022,0.218-0.102,0.224-0.229s-0.08-0.222-0.205-0.249c-0.033-0.008-0.068-0.011-0.104-0.01h-9.592
			c-0.038,0-0.075,0.003-0.111,0.012c-0.121,0.03-0.202,0.135-0.198,0.246s0.107,0.229,0.224,0.229l0.114,0.005
			c0,0,0.068,0.005,0.104,0.005h9.29L20.673,17.741z M15.935,19.268l4.879-0.002c0.136-0.014,0.233-0.121,0.233-0.241
			c0-0.121-0.104-0.232-0.231-0.245c-0.034-0.003-0.069-0.002-0.104-0.002h-9.554c-0.03,0-0.057-0.001-0.085,0.002
			c-0.131,0.015-0.232,0.121-0.234,0.244c-0.002,0.122,0.094,0.224,0.224,0.241c0.034,0.004,0.071,0.002,0.105,0.002L15.935,19.268z
			 M15.944,16.98h4.788c0.031,0,0.063,0.003,0.097-0.003c0.116-0.015,0.212-0.11,0.224-0.224c0.014-0.113-0.066-0.22-0.188-0.252
			c-0.049-0.013-0.1-0.013-0.148-0.013h-9.559c-0.191,0-0.318,0.098-0.317,0.247c0.001,0.148,0.124,0.244,0.319,0.244H15.944z
			 M22.705,17.013c-0.209-0.001-0.4,0.046-0.582,0.144c-0.605,0.322-0.76,1.079-0.32,1.571c0.398,0.451,1.109,0.53,1.6,0.183
			c0.453-0.323,0.584-0.903,0.299-1.361C23.47,17.184,23.123,17.028,22.705,17.013z M9.193,17.014
			c-0.205-0.004-0.395,0.044-0.574,0.138c-0.659,0.345-0.776,1.169-0.236,1.673c0.494,0.434,1.244,0.396,1.694-0.083
			c0.357-0.403,0.346-0.984-0.028-1.371C9.826,17.139,9.516,17.01,9.193,17.014L9.193,17.014z M21.648,14.841
			c-0.41,0.477-0.823,0.91-1.373,1.152l0.689,0.083c0.207,0.039,0.393,0.156,0.514,0.328c0.014,0.017,0.043,0.039,0.059,0.034
			c0.016-0.004,0.041-0.031,0.047-0.055c0.119-0.383,0.166-0.775,0.131-1.179C21.705,15.091,21.673,14.98,21.648,14.841
			L21.648,14.841z M11.646,16.01c-0.58-0.238-0.978-0.697-1.393-1.139c-0.137,0.21-0.104,1.333,0.107,1.58
			c0.331-0.428,0.793-0.465,1.286-0.443V16.01z"/>
		<path fill="#58B7B7" d="M20.689,10.272l1.045,0.006l0.006,0.234l0.006,2.288c0,0.025-0.008,0.05-0.012,0.075
			c-0.021,0.006-0.047,0.01-0.07,0.02l-0.822,0.363c-0.205,0.081-0.418,0.142-0.629,0.202l-0.686,0.171l-1.139,0.201l-0.967,0.113
			l-0.377,0.031l-0.561,0.024v-0.868h0.035l0.188-0.121l0.691-0.47l0.789-0.538l0.756-0.519l0.641-0.428l0.854-0.584l0.229-0.174
			l0.033-0.01L20.689,10.272z M10.149,14.068v-0.415c0.025-0.011,0.057-0.013,0.076-0.028l0.549-0.43l2.211-1.722l1.324-1.023
			l0.176-0.148c0.003-0.011,0.003-0.019,0.004-0.029l0.847-0.005c0.086,0,0.071,0.058,0.068,0.102l0.005,0.288v1.915
			c0,0.041-0.004,0.081-0.007,0.121l-1.936,1.331c0.003,0.01,0.008,0.02,0.013,0.031h0.97l-0.08,0.086l-0.187,0.162h-1.059
			l0.298-0.245h-3.272V14.068z"/>
		<path fill="#51A8A5" d="M16.484,13.99l0.562-0.024l0.375-0.032l0.97-0.112l1.139-0.202c0.23-0.044,0.457-0.107,0.687-0.171
			l0.627-0.202l0.825-0.363c0.02-0.01,0.047-0.013,0.068-0.02l0.006,1.173v0.262h-5.258V13.99L16.484,13.99z"/>
		<path fill="#58B7B7" d="M10.149,12.666l-0.01-2.285c-0.003-0.085,0.027-0.115,0.114-0.114l1.34,0.002l1.381,0.006
			c-0.001,0.014,0.002,0.033-0.005,0.041L12.38,10.82l-0.938,0.781L10.149,12.666z M16.486,11.93l-0.006-1.229l-0.004-0.351
			c-0.004-0.066,0.021-0.085,0.088-0.085l1.283,0.001l0.991,0.005c0.001,0.013,0.005,0.03,0,0.035l-0.303,0.202l-1.116,0.78
			l-0.734,0.518c-0.066,0.044-0.14,0.081-0.207,0.121L16.486,11.93z"/>
		<path fill="#6EBCB9" d="M16.486,11.93l0.209-0.124l0.734-0.518l1.115-0.78l0.303-0.202c0.006-0.003,0.002-0.021,0-0.035h0.943
			c-0.021,0.023-0.037,0.051-0.062,0.067l-1.554,1.101l-0.807,0.575l-0.396,0.288l-0.482,0.323l0.003-0.706L16.486,11.93z
			 M10.149,12.666l2.229-1.854l0.59-0.505c0.007-0.007,0.004-0.026,0.006-0.042h0.706l-0.283,0.269l-0.524,0.427l-0.645,0.534
			l-0.619,0.52l-0.902,0.751l-0.571,0.46l0.002-0.566L10.149,12.666z"/>
		<path fill="#58B7B7" d="M16.484,12.629l0.48-0.323l0.396-0.288l0.807-0.573l1.557-1.113c0.023-0.018,0.041-0.044,0.062-0.068
			h0.644c-0.007,0.008-0.009,0.021-0.015,0.024l-1.312,0.875l-0.75,0.517l-0.817,0.544l-0.767,0.528l-0.285,0.207l-0.006,0.001
			l-0.002-0.341L16.484,12.629z M10.146,13.235l0.57-0.461l0.902-0.752l0.619-0.52l0.645-0.534l0.524-0.426
			c0.101-0.084,0.19-0.178,0.284-0.269l0.584,0.001c0,0.009,0,0.018,0.002,0.025c-0.032,0.018-0.07,0.024-0.1,0.047l-0.905,0.706
			l-0.841,0.65l-1.201,0.938l-0.661,0.51l-0.42,0.329L10.146,13.235L10.146,13.235z"/>
		<path fill="#6EBCB9" d="M14.449,14.068h-0.97c-0.005-0.011-0.01-0.021-0.013-0.033l1.935-1.33l-0.001,0.736
			c-0.05,0.024-0.101,0.047-0.147,0.078l-0.517,0.367c-0.073,0.056-0.141,0.12-0.213,0.181L14.449,14.068L14.449,14.068z"/>
		<path fill="#6ABCBD" d="M10.149,13.479l0.42-0.329l0.661-0.51l1.203-0.937l0.84-0.651l0.905-0.705
			c0.027-0.021,0.065-0.029,0.101-0.045l0.041-0.025c0.022,0.017,0.025,0.035,0.027,0.055c0.02-0.021,0.024-0.038,0.026-0.056h0.057
			l0.058,0.025l-0.177,0.148l-1.325,1.023l-0.837,0.653l-1.375,1.068l-0.547,0.429c-0.02,0.016-0.05,0.018-0.076,0.028v-0.173
			H10.149z"/>
		<path fill="#51A8A5" d="M10.149,14.068h3.272l-0.296,0.243l-0.133,0.006H10.26c-0.037,0-0.07-0.011-0.109-0.015
			c0-0.007-0.002-0.017-0.003-0.022v-0.045L10.149,14.068L10.149,14.068z"/>
		<path fill="#6ABCBD" d="M16.49,12.967l0.285-0.207l0.766-0.527l0.82-0.545l0.75-0.517l1.301-0.875
			c0.006-0.005,0.008-0.016,0.013-0.024h0.229c-0.075,0.071-0.148,0.132-0.229,0.188l-0.851,0.584l-0.64,0.427l-0.756,0.52
			l-0.789,0.539l-0.693,0.469l-0.188,0.121l-0.019-0.154V12.967z"/>
		<path fill="#58B7B7" d="M14.522,14.068l0.213-0.181l0.517-0.368c0.046-0.029,0.098-0.054,0.147-0.078l0.001,0.283
			c-0.186,0.064-0.333,0.189-0.504,0.322h0.212c-0.016,0.025-0.026,0.057-0.05,0.073l-0.272,0.19h-0.262l0.3-0.241
			c-0.006-0.011-0.01-0.02-0.013-0.027L14.522,14.068L14.522,14.068z"/>
		<path fill="#51A8A5" d="M14.789,14.312l0.272-0.188c0.023-0.017,0.034-0.047,0.05-0.073l0.29-0.001v0.264L14.789,14.312
			L14.789,14.312z"/>
		<path fill="#6ABCBD" d="M15.412,14.048l-0.29,0.001H14.91c0.169-0.134,0.315-0.259,0.504-0.322v0.322L15.412,14.048z"/>
		<path fill="#51A8A5" d="M14.522,14.068l0.288-0.025c0.003,0.01,0.007,0.02,0.013,0.027l-0.3,0.241h-0.342l0.187-0.16
			c0.028-0.027,0.052-0.058,0.08-0.084L14.522,14.068L14.522,14.068z"/>
		<g>
			<path fill="#6EBCB9" d="M16.49,12.967l0.02,0.153l-0.025,0.001v-0.152L16.49,12.967z M14.372,10.277l-0.01,0.055
				c-0.021-0.019-0.023-0.038-0.028-0.055H14.372L14.372,10.277z"/>
			<path fill="#6EBCB9" d="M14.483,10.301l-0.058-0.026l0.06-0.001C14.484,10.283,14.484,10.291,14.483,10.301L14.483,10.301z
				 M14.318,10.275l-0.04,0.026c-0.002-0.009-0.002-0.017-0.002-0.026H14.318z M20.656,10.284c0.01-0.013,0.021-0.013,0.033-0.013
				C20.679,10.278,20.667,10.282,20.656,10.284z M21.736,10.281l0.002-0.003L21.736,10.281z M10.146,14.28
				c0.001,0.007,0.003,0.016,0.003,0.022C10.142,14.283,10.145,14.282,10.146,14.28z"/>
		</g>
		<path fill="#0C0E11" d="M12.232,23.838l-0.003,1.733c-0.001,0.104-0.025,0.198-0.144,0.234l-0.356,0.02H9.441
			c-0.074-0.002-0.148-0.013-0.224-0.018c-0.101-0.043-0.144-0.097-0.144-0.226l-0.001-1.678l-0.003-0.105l0.506,0.035h2.657V23.838
			z M19.8,25.809c-0.117-0.05-0.152-0.116-0.139-0.27c0.008-0.03,0.025-0.063,0.025-0.098l0.002-1.613h3.123v1.74
			c0,0.131-0.033,0.187-0.146,0.23l-0.223,0.015c-0.76,0.003-1.521,0.003-2.278,0c-0.121,0-0.244-0.011-0.366-0.016L19.8,25.809z"/>
		<path fill="#1A1E20" d="M24.398,21.503c-0.041-0.059-0.104-0.059-0.164-0.059H7.65c-0.063,0-0.123,0-0.161,0.059
			c-0.01,0.101-0.026,0.182-0.022,0.272c0.024,0.458,0.173,0.882,0.393,1.279c0.041,0.054,0.101,0.099,0.113,0.153
			c0.034,0.143,0.184,0.173,0.245,0.283l0.044,0.025c0.044-0.015,0.078-0.04,0.101-0.062l0.034,0.148
			c0.008,0.008,0.016,0.012,0.023,0.016l0.005,0.004h0.008c0.01,0.007,0.017,0.01,0.024,0.016c0.022,0.008,0.03,0.015,0.039,0.021
			l0.222,0.078l0.343,0.075l0.506,0.035h10.077c0.015,0,0.022,0.003,0.035,0.003h3.125l0.32-0.015
			c0.309-0.004,0.523-0.15,0.686-0.408c0.35-0.575,0.633-1.17,0.584-1.867l-0.008-0.056L24.398,21.503z M17.314,23.185
			c-0.006,0.008-0.01,0.016-0.018,0.02l-0.027-0.033l-0.752-0.008c-0.039,0-0.082-0.002-0.122-0.004l-0.598,0.004
			c-0.034,0-0.068,0.004-0.101,0.008c-0.024,0.012-0.05,0.035-0.073,0.035h-0.855c-0.023,0-0.048-0.023-0.072-0.035h-0.067
			l-0.01,0.047l-0.057-0.047c-0.01-0.006-0.021-0.01-0.032-0.014l-0.002-0.005c0-0.009,0-0.015-0.003-0.021
			c0.005-0.007,0.01-0.013,0.013-0.021l-0.004-1.078c0-0.018,0.021-0.036,0.028-0.054c0.039,0.005,0.057,0.009,0.076,0.013
			c0.02-0.002,0.044-0.008,0.064-0.008h2.445c0.021,0,0.043,0.006,0.062,0.008h0.112c0.008,0.007,0.017,0.015,0.021,0.023v0.038
			l0.006,0.904l0.006,0.147c0,0-0.021,0.067-0.069,0.052c0.006,0.02,0.019,0.022,0.024,0.028l0,0H17.314z"/>
		<path fill="#4A3D25" d="M24.398,21.503c-0.041-0.059-0.104-0.059-0.164-0.059H7.65c-0.063,0-0.123,0-0.161,0.059
			c0.003-0.027,0.01-0.057,0.015-0.086l0.103-0.005l16.777,0.005c0.002,0.03,0.008,0.059,0.012,0.086H24.398z"/>
		<path fill="#1D2123" d="M8.275,23.534l0.101-0.067l0.034,0.149L8.275,23.534L8.275,23.534z M8.218,23.501l0.044,0.027
			L8.218,23.501z M8.409,23.606c0.008,0.007,0.015,0.011,0.023,0.017C8.423,23.617,8.417,23.613,8.409,23.606z M8.444,23.624
			l0.024,0.017C8.461,23.635,8.454,23.631,8.444,23.624z M8.482,23.644c0.008,0.004,0.016,0.012,0.024,0.018
			C8.5,23.656,8.491,23.647,8.482,23.644z"/>
		<path fill="#0E0F11" d="M15.934,19.268c-1.589,0-3.178,0-4.767-0.001c-0.034,0-0.071,0.002-0.105-0.002
			c-0.131-0.021-0.225-0.123-0.224-0.241c0.001-0.119,0.104-0.229,0.234-0.244c0.028-0.003,0.056-0.002,0.085-0.002l9.657,0.002
			c0.129,0.015,0.23,0.124,0.23,0.245c0,0.12-0.102,0.229-0.232,0.241c-0.045,0.005-0.088,0.002-0.131,0.002h-4.739H15.934z
			 M11.062,17.737c-0.116,0-0.219-0.121-0.224-0.229c-0.005-0.107,0.078-0.215,0.198-0.246c0.036-0.009,0.073-0.013,0.111-0.012
			h9.592c0.033,0,0.068,0,0.104,0.01c0.125,0.028,0.209,0.134,0.204,0.249s-0.101,0.206-0.224,0.229l-0.151,0.005l-0.104,0.005
			h-9.29c-0.035,0-0.068-0.003-0.105-0.005L11.062,17.737L11.062,17.737z M15.942,16.98h-4.785c-0.195,0-0.318-0.095-0.319-0.244
			c-0.001-0.15,0.125-0.247,0.317-0.247h9.555c0.051,0,0.102,0,0.148,0.013c0.121,0.032,0.199,0.141,0.189,0.252
			c-0.009,0.111-0.105,0.208-0.224,0.224c-0.03,0.006-0.062,0.003-0.095,0.003H15.942z"/>
		<path fill="#101012" d="M11.09,19.547l0.141-0.007h9.499c0.194,0,0.317,0.095,0.318,0.246c0.001,0.15-0.121,0.248-0.316,0.248
			h-9.564c-0.037,0-0.076,0-0.114-0.005c-0.115-0.018-0.21-0.118-0.216-0.231c-0.006-0.112,0.076-0.216,0.204-0.243
			c0.041,0.005,0.079,0.018,0.118,0.018l9.527,0.001c-0.037-0.019-0.074-0.019-0.11-0.019h-9.345
			C11.185,19.556,11.135,19.55,11.09,19.547L11.09,19.547z"/>
		<path fill="#0D0E11" d="M11.155,18.021l0.105-0.005h9.358l0.109,0.005h0.073c0.136,0.013,0.229,0.099,0.242,0.22
			c0.015,0.121-0.067,0.217-0.204,0.254h-0.059h-0.032c-0.041-0.01-0.081-0.027-0.121-0.027h-8.086c-0.441,0-0.883-0.002-1.324,0
			c-0.033,0-0.066,0.019-0.101,0.027l-0.055-0.005l-0.104-0.04c-0.104-0.073-0.136-0.151-0.109-0.256
			c0.027-0.104,0.109-0.172,0.231-0.182h0.076V18.021z"/>
		<path fill="#E5E5E5" d="M22.701,17.013c0.42,0.015,0.77,0.171,0.996,0.536c0.285,0.46,0.156,1.038-0.299,1.361
			c-0.49,0.35-1.201,0.27-1.6-0.183c-0.439-0.504-0.281-1.25,0.318-1.571C22.298,17.06,22.498,17.011,22.701,17.013z M22.691,18.911
			c0.293,0.008,0.572-0.125,0.752-0.358c0.201-0.261,0.221-0.619,0.051-0.899c-0.25-0.382-0.756-0.532-1.176-0.35
			c-0.432,0.188-0.643,0.625-0.484,1.043C21.955,18.672,22.281,18.912,22.691,18.911L22.691,18.911z M9.192,17.015
			c0.323-0.005,0.633,0.124,0.856,0.357c0.373,0.385,0.387,0.968,0.028,1.371c-0.45,0.479-1.2,0.517-1.694,0.083
			c-0.542-0.502-0.424-1.327,0.236-1.674C8.799,17.059,8.987,17.011,9.192,17.015z M10.103,18.095l-0.014-0.163
			c-0.073-0.417-0.474-0.706-0.874-0.706c-0.292-0.011-0.571,0.115-0.755,0.343c-0.255,0.299-0.242,0.726,0.008,1.02
			c0.302,0.358,0.836,0.42,1.216,0.188C9.944,18.615,10.087,18.389,10.103,18.095L10.103,18.095z"/>
		<path fill="#BF383D" d="M8.414,20.594c-0.182-0.108-0.257-0.275-0.202-0.46c0.055-0.185,0.225-0.326,0.435-0.331l1.109,0.002
			c0.077,0.003,0.154,0.045,0.232,0.067L9.902,20.04c-0.121,0.271-0.324,0.463-0.612,0.517c-0.231,0.043-0.474,0.021-0.711,0.028
			l-0.146,0.01H8.414z M21.875,20.559c-0.252-0.161-0.229-0.548,0.051-0.69c0.076-0.039,0.168-0.062,0.252-0.062h1.039
			c0.088,0.003,0.17,0.045,0.262,0.067c-0.02,0.024-0.043,0.047-0.057,0.075c-0.043,0.087-0.07,0.188-0.131,0.266
			c-0.189,0.237-0.432,0.39-0.746,0.381L21.875,20.559z"/>
		<path fill="#FFA105" d="M21.646,14.842l0.064,0.365c0.035,0.4-0.014,0.794-0.131,1.179c-0.006,0.021-0.027,0.05-0.047,0.056
			c-0.02,0.004-0.045-0.018-0.057-0.034c-0.121-0.173-0.307-0.291-0.514-0.328c-0.229-0.045-0.467-0.06-0.691-0.084
			C20.823,15.753,21.236,15.321,21.646,14.842L21.646,14.842z M11.644,16.011c-0.504-0.022-0.956,0.015-1.286,0.444
			c-0.202-0.248-0.244-1.371-0.107-1.581c0.403,0.439,0.813,0.9,1.393,1.139V16.011z"/>
		<path fill="#B03238" d="M21.875,20.559l0.67,0.035c0.316,0.01,0.559-0.144,0.746-0.381c0.061-0.076,0.086-0.179,0.131-0.266
			c0.014-0.026,0.037-0.051,0.057-0.075c0.166,0.099,0.252,0.269,0.215,0.434c-0.045,0.202-0.207,0.344-0.398,0.344
			c-0.396,0.008-0.797,0.008-1.193-0.003c-0.074-0.002-0.146-0.059-0.225-0.101L21.875,20.559L21.875,20.559z M8.414,20.594
			l0.145-0.01c0.238-0.008,0.482,0.015,0.711-0.028c0.287-0.054,0.492-0.244,0.612-0.517c0.025-0.059,0.057-0.109,0.084-0.167
			c0.167,0.095,0.252,0.272,0.215,0.434c-0.044,0.189-0.204,0.341-0.403,0.344H8.568c-0.06,0-0.119-0.038-0.177-0.058L8.414,20.594z
			"/>
		<path fill="#2B2214" d="M11.118,18.494c0.033-0.01,0.066-0.027,0.101-0.027h9.412c0.04,0,0.08,0.019,0.121,0.027l-0.105,0.005
			h-9.428c-0.032,0-0.066-0.003-0.103-0.005H11.118z"/>
		<path fill="#00040A" d="M11.09,19.547l0.141,0.008h9.458c-0.031,0.019-0.062,0.019-0.098,0.019c-3.143,0-6.287,0-9.431-0.001
			c-0.04,0-0.078-0.013-0.118-0.018L11.09,19.547L11.09,19.547z M20.672,17.741l0.151-0.005L20.672,17.741z"/>
		<path fill="#2B2214" d="M10.957,18.46l0.104,0.041L10.957,18.46z"/>
		<path fill="#00040A" d="M11.062,17.737l0.114,0.005L11.062,17.737z"/>
		<path fill="#2B2214" d="M20.783,18.494h0.07H20.783z"/>
		<path fill="#00040A" d="M11.155,18.021h-0.075H11.155z M20.806,18.021c-0.023,0-0.051-0.001-0.074-0.001L20.806,18.021
			L20.806,18.021z M19.644,23.838c0.016,0,0.023,0.002,0.035,0.002v1.612c0,0.033-0.021,0.064-0.027,0.1l-0.004-1.146l-0.004-0.559
			V23.838L19.644,23.838z"/>
		<path fill="#FBFBFA" d="M17.349,22.013c-0.008-0.01-0.017-0.018-0.021-0.023L17.349,22.013z"/>
		<path fill="#101012" d="M14.524,23.131c0.003,0.008,0.003,0.014,0.003,0.021C14.527,23.142,14.527,23.137,14.524,23.131z"/>
		<path fill="#1D2123" d="M14.693,23.169h1.004c-0.024,0.013-0.05,0.035-0.073,0.035h-0.857c-0.023,0-0.047-0.022-0.072-0.035
			H14.693z M14.562,23.169c0.012-0.006,0.025-0.012,0.041-0.013c0.02,0.003,0.022,0.009,0.027,0.013l-0.01,0.048L14.562,23.169
			L14.562,23.169z"/>
		<path fill="#0E0F11" d="M17.267,23.169c0.027,0.005,0.039,0.011,0.047,0.017c-0.004,0.008-0.01,0.016-0.016,0.02l-0.029-0.034
			L17.267,23.169L17.267,23.169z"/>
		<path fill="#CFD2D4" d="M22.693,18.912c-0.41,0.001-0.736-0.239-0.859-0.564c-0.156-0.417,0.055-0.855,0.484-1.043
			c0.42-0.184,0.928-0.031,1.176,0.35c0.17,0.28,0.15,0.639-0.051,0.899C23.265,18.786,22.986,18.919,22.693,18.912z M23.228,17.547
			c-0.326-0.294-0.893-0.246-1.162,0.098c-0.252,0.32-0.166,0.81,0.176,1.001c0.215,0.154,0.449,0.185,0.697,0.107
			c0.275-0.081,0.469-0.262,0.525-0.549C23.521,17.957,23.427,17.701,23.228,17.547L23.228,17.547z M10.102,18.095
			c-0.015,0.294-0.157,0.522-0.418,0.683c-0.379,0.231-0.915,0.171-1.216-0.188c-0.252-0.295-0.262-0.72-0.008-1.02
			c0.184-0.228,0.464-0.354,0.755-0.343c0.4,0.009,0.801,0.288,0.874,0.706C10.098,17.985,10.098,18.032,10.102,18.095
			L10.102,18.095z M8.73,18.651c0.374,0.252,0.881,0.153,1.133-0.221c0.008-0.012,0.015-0.022,0.022-0.036
			c0.164-0.298,0.068-0.697-0.205-0.873c-0.245-0.222-0.71-0.224-1-0.002C8.297,17.823,8.324,18.401,8.73,18.651z"/>
		<path fill="#58B7B7" d="M22.24,18.646c-0.342-0.19-0.426-0.681-0.174-1.001c0.271-0.342,0.836-0.393,1.162-0.098
			c-0.012,0.021-0.023,0.042-0.025,0.064c-0.008,0.162-0.018,0.322-0.1,0.464c-0.07,0.119-0.154,0.234-0.254,0.33
			C22.683,18.567,22.466,18.623,22.24,18.646L22.24,18.646z"/>
		<path fill="#51A8A5" d="M22.24,18.646c0.227-0.022,0.441-0.08,0.609-0.239c0.1-0.096,0.18-0.212,0.254-0.33
			c0.082-0.142,0.094-0.306,0.1-0.464c0.002-0.022,0.018-0.043,0.025-0.064c0.205,0.171,0.289,0.396,0.234,0.657
			c-0.062,0.288-0.25,0.468-0.523,0.549C22.691,18.829,22.453,18.801,22.24,18.646z"/>
		<path fill="#58B7B7" d="M8.73,18.651c-0.407-0.25-0.434-0.839-0.048-1.132c0.289-0.222,0.756-0.22,1,0.002L9.68,17.663
			c0.003,0.354-0.147,0.637-0.443,0.815c-0.148,0.102-0.334,0.115-0.504,0.17L8.73,18.651z"/>
		<path fill="#51A8A5" d="M8.73,18.651c0.169-0.056,0.355-0.079,0.504-0.169c0.297-0.183,0.447-0.465,0.443-0.816l0.003-0.141
			c0.272,0.173,0.368,0.573,0.205,0.872c-0.232,0.388-0.734,0.512-1.12,0.279c-0.012-0.007-0.024-0.015-0.036-0.022L8.73,18.651z"/>
	</g>
	<path fill="#686868" d="M12.725,28.58c-1.651-0.325-3.237-0.958-4.691-1.824L5.588,27.37c1.675,1.18,3.55,2.741,5.541,3.259
		c0.51,0.134,1.283,0.132,1.535,0.642l0.85,1.656l1.854,3.67c0.062,0.121,0.279,0.774,0.467,0.627
		c0.188-0.146,0.294-0.555,0.397-0.765l0.875-1.752l0.974-1.934l0.461-0.906c0.123-0.248,0.248-0.643,0.449-0.826
		c0.211-0.196,0.639-0.198,0.907-0.254c0.305-0.062,0.596-0.147,0.893-0.242l1.855-0.688c1.223-0.521,2.16-1.343,3.25-2.095
		c-0.227-0.504,0.117-0.221,0.17-0.258l-2.473-0.793C20.316,28.637,16.453,29.302,12.725,28.58z"/>
	<path fill="#686868" d="M15.958,31.439c-8.528,0-15.466-6.721-15.466-14.982c0-8.264,6.938-14.987,15.466-14.987
		c8.527,0,15.467,6.724,15.467,14.986C31.425,24.719,24.486,31.439,15.958,31.439z M15.958,4.071
		c-7.094,0-12.866,5.557-12.866,12.386c0,6.829,5.772,12.383,12.866,12.383c7.096,0,12.867-5.555,12.867-12.383
		C28.826,9.627,23.054,4.071,15.958,4.071z"/>
	<g>
		<path opacity="0.15" fill="#FFFFFF" enable-background="new    " d="M9.048,27.017l-1.814,1.812l0.978,0.457l1.758-1.86
			L9.048,27.017z"/>
		<path opacity="0.15" fill="#FFFFFF" enable-background="new    " d="M10.818,27.971L9.485,30.02l0.329,0.117l1.674-1.955
			L10.818,27.971z"/>
		<path opacity="0.15" fill="#FFFFFF" enable-background="new    " d="M22.125,27.451l1.773,1.771l-0.949,0.49l-1.744-1.845
			L22.125,27.451z"/>
		<path opacity="0.15" fill="#FFFFFF" enable-background="new    " d="M14.791,28.861l2.646-0.105l-3.544,4.949l-0.397-0.771
			L14.791,28.861L14.791,28.861z"/>
		<path opacity="0.15" fill="#FFFFFF" enable-background="new    " d="M20.382,28.156l1.404,2.032l-0.354,0.146l-1.608-1.966
			L20.382,28.156z"/>
	</g>
</g>
</svg>
