<?xml version="1.0" encoding="utf-8"?>
<!-- Generator: Adobe Illustrator 16.0.0, SVG Export Plug-In . SVG Version: 6.00 Build 0)  -->
<!DOCTYPE svg PUBLIC "-//W3C//DTD SVG 1.1//EN" "http://www.w3.org/Graphics/SVG/1.1/DTD/svg11.dtd">
<svg version="1.1" id="Layer_1" xmlns="http://www.w3.org/2000/svg" xmlns:xlink="http://www.w3.org/1999/xlink" x="0px" y="0px"
	 width="33.932px" height="52.18px" viewBox="3.881 -1.584 33.932 52.18" enable-background="new 3.881 -1.584 33.932 52.18"
	 xml:space="preserve">
<g>
	<ellipse opacity="0.1" fill-rule="evenodd" clip-rule="evenodd" cx="20.53" cy="46.032" rx="8.432" ry="2.337"/>
	<path opacity="0.2" fill-rule="evenodd" clip-rule="evenodd" fill="#3A3A3A" d="M22.748,19.601
		c6.954-0.018,12.714,2.479,12.779,5.558c0.071,3.196-5.668,5.797-12.785,5.788c-7-0.008-12.73-2.519-12.775-5.595
		C9.92,22.151,15.567,19.619,22.748,19.601z"/>
	<linearGradient id="SVGID_1_" gradientUnits="userSpaceOnUse" x1="20.7078" y1="32.8962" x2="20.8021" y2="0.8837">
		<stop  offset="0" style="stop-color:#F5C837"/>
		<stop  offset="0.9896" style="stop-color:#ED7800"/>
		<stop  offset="1" style="stop-color:#ED7786"/>
	</linearGradient>
	<path fill-rule="evenodd" clip-rule="evenodd" fill="url(#SVGID_1_)" d="M20.761-1.1c8.713-0.05,15.929,7.046,16.011,15.747
		c0.089,8.971-7.102,16.289-16.017,16.266c-8.769-0.021-15.948-7.09-16.004-15.721C4.692,6.151,11.767-1.049,20.761-1.1z"/>
	<path fill-rule="evenodd" clip-rule="evenodd" fill="#3A3A3A" d="M22.748,44.819c-0.001,1.06-0.861,1.904-1.92,1.888
		c-1.021-0.018-1.871-0.855-1.882-1.856c-0.012-1.036,0.864-1.938,1.894-1.948C21.879,42.891,22.748,43.764,22.748,44.819z"/>
	<path fill-rule="evenodd" clip-rule="evenodd" fill="#63BB83" d="M25.441,35.535c-0.065-1.83-0.908-3.159-2.614-3.868
		c-0.642-0.268-1.309-0.382-1.981-0.376c-0.671-0.006-1.337,0.108-1.98,0.376c-1.706,0.709-2.55,2.038-2.613,3.868
		c-0.016,0.443-0.002,0.887-0.002,1.329c0.422,2.518,1.816,6.347,2.471,7.325c0.243-0.918,1.079-1.639,2.045-1.682
		c-0.3-1.141-1.454-3.977-1.45-4.189c0.013-0.819,0.002-1.638,0.009-2.455c0.005-0.771,0.207-1.246,0.64-1.47
		c0.159-0.099,0.342-0.155,0.538-0.155h0.66c0.153,0,0.298,0.034,0.43,0.096c0.524,0.193,0.768,0.683,0.774,1.529
		c0.006,0.817-0.004,1.636,0.009,2.455c0.003,0.213-1.149,3.046-1.45,4.188c0.98,0.032,1.813,0.74,2.048,1.677
		c0.658-0.988,2.047-4.806,2.467-7.318C25.444,36.422,25.457,35.978,25.441,35.535z"/>
</g>
</svg>
