<?xml version="1.0" encoding="utf-8"?>
<!-- Generator: Adobe Illustrator 16.0.0, SVG Export Plug-In . SVG Version: 6.00 Build 0)  -->
<!DOCTYPE svg PUBLIC "-//W3C//DTD SVG 1.1//EN" "http://www.w3.org/Graphics/SVG/1.1/DTD/svg11.dtd">
<svg version="1.1" id="Layer_1" xmlns="http://www.w3.org/2000/svg" xmlns:xlink="http://www.w3.org/1999/xlink" x="0px" y="0px"
	 width="31.917px" height="37.822px" viewBox="0 0.947 31.917 37.822" enable-background="new 0 0.947 31.917 37.822"
	 xml:space="preserve">
<g>
	<ellipse opacity="0.1" fill="#1E1100" enable-background="new    " cx="15.943" cy="37.63" rx="9.104" ry="1.042"/>
	<path fill="#FFA105" d="M15.472,7.074h0.927c0.02,0.006,0.041,0.016,0.062,0.018c0.552,0.035,1.097,0.115,1.636,0.232
		c1.059,0.227,2.086,0.551,3.051,1.054c0.397,0.208,0.776,0.447,1.092,0.771c0.259,0.262,0.421,0.563,0.39,0.947
		c-0.008,0.091,0.002,0.182,0.002,0.272v0.145l-0.004,0.104v4.368H9.266l-0.002-4.35l-0.005-0.123v-0.144L9.263,9.98
		c0-0.196,0.043-0.382,0.166-0.535C9.564,9.278,9.707,9.109,9.872,8.97c0.487-0.408,1.054-0.688,1.638-0.928
		c1.202-0.495,2.452-0.816,3.75-0.937c0.07-0.006,0.139-0.021,0.209-0.03L15.472,7.074z M15.401,14.207v-0.323L15.4,13.6
		l0.001-0.736l0.008-0.121v-1.915l-0.005-0.272c0.003-0.068,0.018-0.127-0.068-0.126l-0.847,0.004l-0.062,0.001h-0.149
		c-0.196,0-0.39,0-0.584-0.001h-0.706l-1.381-0.006c-0.447,0-0.895,0.002-1.34-0.002c-0.088,0-0.117,0.03-0.113,0.114
		c0.004,0.083,0.001,0.161,0.001,0.245l0.01,2.04l-0.002,0.567l0.002,0.244v0.587l-0.004,0.157v0.058
		c-0.001,0.014,0.001,0.02,0.003,0.023c0.037,0.004,0.07,0.015,0.109,0.015h2.731l0.133-0.005h2.278v-0.264L15.401,14.207z
		 M20.654,10.43h-1.812l-0.993-0.005c-0.429,0-0.854,0.001-1.283-0.001c-0.065,0-0.09,0.02-0.088,0.085l0.004,0.351l0.006,1.229
		v1.191v1.188h5.257v-0.262l-0.006-1.173c0.004-0.023,0.012-0.048,0.012-0.073l-0.006-2.288l-0.006-0.233l0.004-0.002l-0.004,0.001
		l-1.047-0.006c-0.01-0.001-0.021-0.001-0.033-0.001H20.654z M13.598,9.677h4.669l0.006-0.113V7.853
		c0-0.098-0.023-0.121-0.121-0.121l-4.443,0.002c-0.032,0-0.066,0.004-0.101,0.006v1.938H13.598z"/>
	<g>
		<path fill="#3F3F41" d="M7.373,11.18c0.061-0.101,0.144-0.136,0.259-0.131l0.403,0.002v-0.326
			c-0.02-0.179,0.107-0.338,0.284-0.358c0.025-0.002,0.05-0.002,0.075,0h0.87l-0.001,0.145l-0.861-0.004
			c-0.116,0-0.202,0.055-0.21,0.148c-0.01,0.131-0.002,0.262-0.002,0.396h0.426c0.178,0,0.242,0.063,0.242,0.238v3.434
			c0,0.18-0.066,0.242-0.249,0.242H8.186l0.002,0.376c0.004,0.095,0.081,0.159,0.175,0.166l0.101,0.003l-0.129,0.138
			c-0.178-0.012-0.313-0.164-0.301-0.343c0-0.009,0.001-0.019,0.003-0.026v-0.303c-0.137,0-0.265-0.007-0.403,0.001
			c-0.119,0.006-0.215-0.024-0.282-0.125l0.001-3.669L7.373,11.18z M22.626,10.367h0.857c0.225,0,0.354,0.128,0.354,0.351v0.333
			l0.418-0.001c0.113-0.006,0.201,0.03,0.26,0.131v3.652c-0.053,0.108-0.135,0.148-0.25,0.145h-0.426v0.306
			c0,0.222-0.088,0.329-0.303,0.375l-0.131-0.139l0.122-0.005c0.086-0.006,0.162-0.067,0.169-0.15c0.01-0.127,0-0.255,0-0.389
			h-0.435c-0.164-0.002-0.232-0.07-0.232-0.237v-3.449c0-0.175,0.063-0.237,0.244-0.237h0.427v-0.33c0-0.144-0.07-0.213-0.216-0.213
			l-0.86,0.005L22.626,10.367L22.626,10.367z"/>
		<path fill="#F48B00" d="M23.539,15.658l0.654,0.805c0.146,0.191,0.229,0.419,0.229,0.668l-0.002,4.359
			c0,0.031-0.024,0.061-0.037,0.09l-0.133-0.006H7.607L7.504,21.58c-0.014-0.016-0.037-0.031-0.039-0.051
			c-0.006-0.041-0.003-0.084-0.003-0.125v-4.235c-0.003-0.27,0.086-0.533,0.254-0.745l0.629-0.766l0.129-0.138
			c0.033-0.025,0.064-0.053,0.094-0.08c0.209-0.189,0.418-0.373,0.696-0.457h13.356l0.439,0.245c0.125,0.084,0.23,0.201,0.344,0.292
			l0.133,0.139L23.539,15.658z M21.876,20.72c0.074,0.029,0.146,0.086,0.222,0.092l1.196,0.002c0.191-0.002,0.354-0.152,0.398-0.344
			c0.037-0.164-0.049-0.334-0.215-0.434c-0.088-0.023-0.174-0.064-0.264-0.068c-0.346-0.006-0.691-0.006-1.039,0
			c-0.084,0.004-0.178,0.025-0.252,0.062c-0.277,0.141-0.303,0.527-0.051,0.689H21.876z M8.415,20.756
			c0.061,0.02,0.117,0.057,0.177,0.057h1.199c0.188-0.002,0.348-0.152,0.393-0.344c0.039-0.16-0.048-0.34-0.214-0.434
			c-0.076-0.021-0.153-0.064-0.232-0.066c-0.366-0.006-0.732-0.008-1.099-0.002c-0.212,0.004-0.389,0.145-0.436,0.33
			c-0.047,0.186,0.03,0.354,0.202,0.459H8.415z M20.807,18.183c-0.024,0-0.05-0.002-0.074-0.002l-0.11-0.005h-9.359l-0.105,0.005
			h-0.076c-0.123,0.013-0.204,0.074-0.232,0.182c-0.028,0.106,0.006,0.184,0.109,0.256l0.104,0.041l0.055,0.005l0.104,0.005h9.424
			l0.104-0.005h0.033h0.061c0.137-0.037,0.219-0.137,0.205-0.254s-0.102-0.207-0.242-0.219L20.807,18.183L20.807,18.183z
			 M11.043,19.715c-0.128,0.027-0.209,0.127-0.204,0.244c0.006,0.102,0.101,0.213,0.216,0.23c0.038,0.004,0.076,0.006,0.114,0.006
			h9.562c0.194,0,0.317-0.1,0.315-0.248c0-0.151-0.123-0.247-0.317-0.247h-9.5c-0.047,0-0.095,0.005-0.141,0.007
			c-0.016,0.001-0.03,0.005-0.047,0.007L11.043,19.715z M20.673,17.901l0.152-0.005c0.133-0.022,0.217-0.102,0.223-0.229
			c0.007-0.127-0.08-0.222-0.205-0.249c-0.032-0.008-0.067-0.011-0.104-0.01h-9.592c-0.038,0-0.075,0.003-0.111,0.012
			c-0.121,0.03-0.202,0.135-0.198,0.246s0.107,0.229,0.224,0.229l0.114,0.005c0,0,0.068,0.005,0.104,0.005h9.29L20.673,17.901z
			 M15.935,19.427l4.879-0.002c0.137-0.014,0.234-0.121,0.234-0.241c0-0.121-0.104-0.232-0.232-0.245
			c-0.033-0.003-0.068-0.002-0.104-0.002h-9.554c-0.03,0-0.057-0.001-0.085,0.002c-0.131,0.015-0.232,0.121-0.234,0.244
			c-0.002,0.122,0.094,0.224,0.224,0.241c0.034,0.004,0.071,0.002,0.105,0.002L15.935,19.427z M15.945,17.139h4.788
			c0.031,0,0.063,0.003,0.097-0.003c0.116-0.015,0.211-0.11,0.223-0.224c0.014-0.113-0.066-0.22-0.188-0.252
			c-0.049-0.013-0.1-0.013-0.148-0.013h-9.558c-0.191,0-0.318,0.098-0.317,0.247c0.001,0.148,0.124,0.244,0.319,0.244H15.945z
			 M22.705,17.173c-0.209-0.001-0.399,0.046-0.582,0.144c-0.604,0.322-0.76,1.079-0.32,1.571c0.398,0.451,1.109,0.53,1.601,0.183
			c0.453-0.323,0.584-0.903,0.298-1.361C23.471,17.344,23.123,17.187,22.705,17.173z M9.194,17.174
			c-0.205-0.004-0.395,0.044-0.574,0.138c-0.659,0.345-0.776,1.169-0.236,1.673c0.494,0.434,1.244,0.396,1.694-0.083
			c0.357-0.403,0.346-0.984-0.028-1.371C9.826,17.299,9.516,17.17,9.194,17.174L9.194,17.174z M21.648,15.001
			c-0.41,0.477-0.822,0.91-1.373,1.152l0.689,0.083c0.207,0.039,0.393,0.156,0.514,0.328c0.014,0.017,0.043,0.039,0.059,0.034
			c0.016-0.004,0.041-0.031,0.047-0.055c0.119-0.383,0.166-0.775,0.131-1.179C21.705,15.251,21.673,15.139,21.648,15.001
			L21.648,15.001z M11.646,16.17c-0.58-0.238-0.978-0.697-1.393-1.139c-0.137,0.21-0.104,1.333,0.107,1.58
			c0.331-0.428,0.793-0.465,1.286-0.443V16.17z"/>
		<path fill="#58B7B7" d="M20.689,10.431l1.045,0.006l0.006,0.234l0.006,2.288c0,0.025-0.008,0.05-0.012,0.075
			c-0.021,0.006-0.047,0.01-0.07,0.02l-0.822,0.363c-0.204,0.081-0.418,0.142-0.629,0.202l-0.686,0.171l-1.138,0.201l-0.968,0.113
			l-0.377,0.031l-0.561,0.024v-0.868h0.035l0.188-0.121l0.692-0.47l0.789-0.538l0.756-0.519l0.64-0.428l0.854-0.584l0.229-0.174
			l0.033-0.01L20.689,10.431z M10.15,14.227v-0.415c0.025-0.011,0.057-0.013,0.076-0.028l0.549-0.43l2.211-1.722l1.324-1.023
			l0.176-0.148c0.003-0.011,0.003-0.019,0.004-0.029l0.847-0.005c0.086,0,0.071,0.058,0.068,0.102l0.005,0.288v1.915
			c0,0.041-0.004,0.081-0.007,0.121l-1.936,1.331c0.003,0.01,0.008,0.02,0.013,0.031h0.97l-0.08,0.086l-0.187,0.162h-1.059
			l0.298-0.245H10.15V14.227z"/>
		<path fill="#51A8A5" d="M16.484,14.15l0.562-0.024l0.375-0.032l0.969-0.112l1.139-0.202c0.23-0.044,0.457-0.107,0.688-0.171
			l0.627-0.202l0.824-0.363c0.021-0.01,0.047-0.013,0.068-0.02l0.006,1.173v0.262h-5.258V14.15L16.484,14.15z"/>
		<path fill="#58B7B7" d="M10.15,12.826l-0.01-2.285c-0.003-0.085,0.027-0.115,0.114-0.114l1.34,0.002l1.381,0.006
			c-0.001,0.014,0.002,0.033-0.005,0.041l-0.589,0.504l-0.938,0.781L10.15,12.826z M16.486,12.09l-0.006-1.229l-0.004-0.351
			c-0.004-0.066,0.021-0.085,0.088-0.085l1.283,0.001l0.992,0.005c0,0.013,0.004,0.03,0,0.035l-0.303,0.202l-1.117,0.78
			l-0.734,0.518c-0.066,0.044-0.139,0.081-0.207,0.121L16.486,12.09z"/>
		<path fill="#6EBCB9" d="M16.486,12.09l0.209-0.124l0.734-0.518l1.115-0.78l0.303-0.202c0.006-0.003,0.002-0.021,0-0.035h0.943
			c-0.021,0.023-0.037,0.051-0.062,0.067l-1.554,1.101l-0.807,0.575l-0.396,0.288l-0.482,0.323l0.004-0.706L16.486,12.09z
			 M10.15,12.826l2.229-1.854l0.59-0.505c0.007-0.007,0.004-0.026,0.006-0.042h0.706l-0.283,0.269l-0.524,0.427l-0.645,0.534
			l-0.619,0.52l-0.902,0.751l-0.571,0.46l0.002-0.566L10.15,12.826z"/>
		<path fill="#58B7B7" d="M16.484,12.789l0.48-0.323l0.397-0.288l0.806-0.573l1.557-1.113c0.023-0.018,0.041-0.044,0.062-0.068
			h0.643c-0.006,0.008-0.008,0.021-0.014,0.024l-1.312,0.875l-0.75,0.517l-0.817,0.544l-0.768,0.528l-0.285,0.207l-0.005,0.001
			l-0.002-0.341L16.484,12.789z M10.147,13.394l0.57-0.461l0.902-0.752l0.619-0.52l0.645-0.534l0.524-0.426
			c0.101-0.084,0.19-0.178,0.284-0.269l0.584,0.001c0,0.009,0,0.018,0.002,0.025c-0.032,0.018-0.07,0.024-0.1,0.047l-0.905,0.706
			l-0.841,0.65l-1.201,0.938l-0.661,0.51l-0.42,0.329L10.147,13.394L10.147,13.394z"/>
		<path fill="#6EBCB9" d="M14.449,14.227h-0.97c-0.005-0.011-0.01-0.021-0.013-0.033l1.935-1.33L15.4,13.6
			c-0.05,0.024-0.101,0.047-0.147,0.078l-0.517,0.367c-0.073,0.056-0.141,0.12-0.213,0.181L14.449,14.227L14.449,14.227z"/>
		<path fill="#6ABCBD" d="M10.15,13.638l0.42-0.329l0.661-0.51l1.203-0.937l0.84-0.651l0.905-0.705
			c0.027-0.021,0.065-0.029,0.101-0.045l0.041-0.025c0.022,0.017,0.025,0.035,0.027,0.055c0.02-0.021,0.024-0.038,0.026-0.056h0.057
			l0.058,0.025l-0.177,0.148l-1.325,1.023l-0.837,0.653l-1.375,1.068l-0.547,0.429c-0.02,0.016-0.05,0.018-0.076,0.028v-0.173H10.15
			z"/>
		<path fill="#51A8A5" d="M10.15,14.227h3.272l-0.296,0.243l-0.133,0.006h-2.732c-0.037,0-0.07-0.011-0.109-0.015
			c0-0.007-0.002-0.017-0.003-0.022v-0.045L10.15,14.227L10.15,14.227z"/>
		<path fill="#6ABCBD" d="M16.49,13.127l0.285-0.207l0.766-0.527l0.82-0.545l0.75-0.517l1.301-0.875
			c0.006-0.005,0.008-0.016,0.014-0.024h0.229c-0.074,0.071-0.148,0.132-0.229,0.188l-0.85,0.584l-0.641,0.427l-0.756,0.52
			l-0.789,0.539l-0.693,0.469l-0.188,0.121l-0.02-0.154V13.127z"/>
		<path fill="#58B7B7" d="M14.523,14.227l0.213-0.181l0.517-0.368c0.046-0.029,0.098-0.054,0.147-0.078l0.001,0.283
			c-0.186,0.064-0.333,0.189-0.504,0.322h0.212c-0.016,0.025-0.026,0.057-0.05,0.073l-0.272,0.19h-0.262l0.3-0.241
			c-0.006-0.011-0.01-0.02-0.013-0.027L14.523,14.227L14.523,14.227z"/>
		<path fill="#51A8A5" d="M14.789,14.471l0.272-0.188c0.023-0.017,0.034-0.047,0.05-0.073l0.29-0.001v0.264L14.789,14.471
			L14.789,14.471z"/>
		<path fill="#6ABCBD" d="M15.412,14.208l-0.29,0.001H14.91c0.169-0.134,0.315-0.259,0.504-0.322v0.322L15.412,14.208z"/>
		<path fill="#51A8A5" d="M14.523,14.227l0.288-0.025c0.003,0.01,0.007,0.02,0.013,0.027l-0.3,0.241h-0.342l0.187-0.16
			c0.028-0.027,0.052-0.058,0.08-0.084L14.523,14.227L14.523,14.227z"/>
		<g>
			<path fill="#6EBCB9" d="M16.49,13.127l0.02,0.153l-0.024,0.001v-0.152L16.49,13.127z M14.372,10.436l-0.01,0.055
				c-0.021-0.019-0.023-0.038-0.028-0.055H14.372L14.372,10.436z"/>
			<path fill="#6EBCB9" d="M14.484,10.461l-0.058-0.026l0.06-0.001C14.485,10.443,14.485,10.451,14.484,10.461L14.484,10.461z
				 M14.319,10.434l-0.04,0.026c-0.002-0.009-0.002-0.017-0.002-0.026H14.319z M20.656,10.444c0.01-0.013,0.021-0.013,0.033-0.013
				C20.68,10.437,20.667,10.442,20.656,10.444z M21.736,10.44l0.002-0.003L21.736,10.44z M10.146,14.439
				c0.001,0.007,0.003,0.016,0.003,0.022C10.142,14.443,10.145,14.442,10.146,14.439z"/>
		</g>
		<path fill="#0C0E11" d="M12.233,23.998l-0.003,1.734c-0.001,0.104-0.025,0.197-0.144,0.234l-0.356,0.02H9.442
			c-0.074-0.002-0.148-0.014-0.224-0.018c-0.101-0.043-0.144-0.098-0.144-0.227l-0.001-1.678L9.07,23.959l0.506,0.035h2.657V23.998z
			 M19.8,25.97c-0.116-0.051-0.151-0.117-0.139-0.27c0.008-0.031,0.025-0.064,0.025-0.098l0.002-1.613h3.123v1.74
			c0,0.131-0.033,0.186-0.146,0.23l-0.223,0.014c-0.76,0.004-1.521,0.004-2.277,0c-0.121,0-0.244-0.01-0.367-0.016L19.8,25.97z"/>
		<path fill="#1A1E20" d="M24.398,21.664c-0.041-0.059-0.104-0.059-0.164-0.059H7.651c-0.063,0-0.123,0-0.161,0.059
			c-0.01,0.1-0.026,0.182-0.022,0.271c0.024,0.459,0.173,0.883,0.393,1.279c0.041,0.055,0.101,0.1,0.113,0.154
			c0.034,0.143,0.184,0.172,0.245,0.283l0.044,0.025c0.044-0.016,0.078-0.041,0.101-0.062l0.034,0.148
			c0.008,0.008,0.016,0.012,0.023,0.016l0.005,0.004h0.008c0.01,0.008,0.017,0.01,0.024,0.016c0.022,0.008,0.03,0.016,0.039,0.021
			l0.222,0.078l0.343,0.074l0.506,0.035h10.077c0.015,0,0.022,0.004,0.035,0.004h3.125l0.319-0.016
			c0.31-0.004,0.523-0.15,0.687-0.408c0.349-0.574,0.633-1.17,0.584-1.867l-0.008-0.055L24.398,21.664z M17.314,23.345
			c-0.006,0.008-0.01,0.016-0.018,0.02l-0.027-0.033l-0.752-0.008c-0.039,0-0.081-0.002-0.121-0.004l-0.598,0.004
			c-0.034,0-0.068,0.004-0.101,0.008c-0.024,0.012-0.05,0.035-0.073,0.035h-0.855c-0.023,0-0.048-0.023-0.072-0.035H14.63
			l-0.01,0.047l-0.057-0.047c-0.01-0.006-0.021-0.01-0.032-0.014l-0.002-0.004c0-0.01,0-0.016-0.003-0.021
			c0.005-0.008,0.01-0.014,0.013-0.021l-0.004-1.078c0-0.018,0.021-0.035,0.028-0.053c0.039,0.004,0.057,0.008,0.076,0.012
			c0.02-0.002,0.044-0.008,0.064-0.008h2.445c0.021,0,0.043,0.006,0.062,0.008h0.113c0.008,0.008,0.016,0.016,0.02,0.023v0.039
			l0.007,0.904l0.006,0.146c0,0-0.021,0.068-0.069,0.053c0.006,0.02,0.018,0.021,0.024,0.027l0,0H17.314z"/>
		<path fill="#4A3D25" d="M24.398,21.664c-0.041-0.059-0.104-0.059-0.164-0.059H7.651c-0.063,0-0.123,0-0.161,0.059
			c0.003-0.027,0.01-0.057,0.015-0.086l0.103-0.006l16.776,0.006C24.387,21.607,24.393,21.636,24.398,21.664L24.398,21.664z"/>
		<path fill="#1D2123" d="M8.276,23.695l0.101-0.068l0.034,0.15L8.276,23.695L8.276,23.695z M8.219,23.662l0.044,0.027L8.219,23.662
			z M8.409,23.767c0.008,0.006,0.015,0.01,0.023,0.016C8.424,23.777,8.417,23.773,8.409,23.767z M8.445,23.785l0.024,0.016
			C8.462,23.795,8.454,23.791,8.445,23.785z M8.483,23.804c0.008,0.004,0.016,0.012,0.024,0.018
			C8.5,23.816,8.491,23.808,8.483,23.804z"/>
		<path fill="#0E0F11" d="M15.934,19.427c-1.589,0-3.178,0-4.767-0.001c-0.034,0-0.071,0.002-0.105-0.002
			c-0.131-0.021-0.225-0.123-0.224-0.241c0.001-0.119,0.104-0.229,0.234-0.244c0.028-0.003,0.056-0.002,0.085-0.002l9.657,0.002
			c0.129,0.015,0.23,0.124,0.23,0.245c0,0.12-0.101,0.229-0.232,0.241c-0.045,0.005-0.088,0.002-0.131,0.002h-4.738H15.934z
			 M11.063,17.896c-0.116,0-0.219-0.121-0.224-0.229c-0.005-0.107,0.078-0.215,0.198-0.246c0.036-0.009,0.073-0.013,0.111-0.012
			h9.592c0.033,0,0.068,0,0.104,0.01c0.125,0.028,0.209,0.134,0.205,0.249c-0.006,0.115-0.102,0.206-0.225,0.229l-0.15,0.005
			l-0.104,0.005h-9.29c-0.035,0-0.068-0.003-0.105-0.005L11.063,17.896L11.063,17.896z M15.943,17.139h-4.785
			c-0.195,0-0.318-0.095-0.319-0.244c-0.001-0.15,0.125-0.247,0.317-0.247h9.555c0.052,0,0.103,0,0.148,0.013
			c0.121,0.032,0.2,0.141,0.189,0.252c-0.008,0.111-0.104,0.208-0.223,0.224c-0.031,0.006-0.062,0.003-0.096,0.003H15.943z"/>
		<path fill="#101012" d="M11.091,19.707l0.141-0.007h9.499c0.194,0,0.317,0.094,0.317,0.247c0.002,0.15-0.121,0.248-0.315,0.248
			h-9.565c-0.037,0-0.076,0-0.114-0.006c-0.115-0.018-0.21-0.117-0.216-0.23c-0.006-0.112,0.076-0.217,0.204-0.244
			c0.041,0.005,0.079,0.018,0.118,0.018l9.527,0.001c-0.037-0.019-0.074-0.019-0.109-0.019h-9.346
			C11.185,19.716,11.136,19.71,11.091,19.707L11.091,19.707z"/>
		<path fill="#0D0E11" d="M11.156,18.18l0.105-0.005h9.358l0.109,0.005h0.074c0.135,0.013,0.229,0.099,0.242,0.22
			s-0.068,0.217-0.205,0.254h-0.059H20.75c-0.041-0.01-0.082-0.027-0.121-0.027h-8.086c-0.441,0-0.883-0.002-1.324,0
			c-0.033,0-0.066,0.019-0.101,0.027l-0.055-0.005l-0.104-0.04c-0.104-0.073-0.136-0.151-0.109-0.256
			c0.027-0.104,0.109-0.172,0.231-0.182h0.076V18.18z"/>
		<path fill="#E5E5E5" d="M22.701,17.173c0.42,0.015,0.77,0.171,0.996,0.536c0.285,0.46,0.156,1.038-0.299,1.361
			c-0.49,0.35-1.201,0.27-1.6-0.183c-0.438-0.504-0.281-1.25,0.318-1.571C22.298,17.219,22.498,17.171,22.701,17.173z
			 M22.691,19.071c0.293,0.008,0.572-0.125,0.752-0.358c0.201-0.261,0.221-0.619,0.051-0.899c-0.25-0.382-0.756-0.532-1.176-0.35
			c-0.432,0.188-0.643,0.625-0.484,1.043C21.955,18.832,22.281,19.072,22.691,19.071L22.691,19.071z M9.193,17.175
			c0.323-0.005,0.633,0.124,0.856,0.357c0.373,0.385,0.387,0.968,0.028,1.371c-0.45,0.479-1.2,0.517-1.694,0.083
			c-0.542-0.502-0.424-1.327,0.236-1.674C8.8,17.219,8.988,17.171,9.193,17.175z M10.103,18.255l-0.014-0.163
			c-0.073-0.417-0.474-0.706-0.874-0.706c-0.292-0.011-0.571,0.115-0.755,0.343c-0.255,0.299-0.242,0.726,0.008,1.02
			c0.302,0.358,0.836,0.42,1.216,0.188C9.945,18.775,10.088,18.549,10.103,18.255L10.103,18.255z"/>
		<path fill="#BF383D" d="M8.414,20.756c-0.182-0.109-0.257-0.275-0.202-0.461c0.055-0.184,0.225-0.324,0.435-0.33l1.109,0.002
			c0.077,0.004,0.154,0.045,0.232,0.068l-0.085,0.166c-0.121,0.271-0.324,0.463-0.612,0.516C9.06,20.76,8.817,20.738,8.58,20.746
			l-0.146,0.01H8.414z M21.875,20.72c-0.252-0.162-0.229-0.549,0.051-0.689c0.076-0.039,0.168-0.062,0.252-0.062h1.039
			c0.089,0.002,0.171,0.045,0.263,0.066c-0.021,0.023-0.043,0.047-0.058,0.074c-0.043,0.088-0.069,0.189-0.131,0.266
			c-0.188,0.238-0.432,0.391-0.746,0.381L21.875,20.72z"/>
		<path fill="#FFA105" d="M21.647,15.002l0.063,0.365c0.035,0.4-0.014,0.794-0.131,1.179c-0.006,0.021-0.027,0.05-0.047,0.056
			c-0.02,0.004-0.045-0.018-0.057-0.034c-0.121-0.173-0.307-0.291-0.514-0.328c-0.229-0.045-0.467-0.06-0.691-0.084
			C20.824,15.913,21.236,15.48,21.647,15.002L21.647,15.002z M11.644,16.171c-0.504-0.022-0.956,0.015-1.286,0.444
			c-0.202-0.248-0.244-1.371-0.107-1.581c0.403,0.439,0.813,0.9,1.393,1.139V16.171z"/>
		<path fill="#B03238" d="M21.875,20.72l0.67,0.035c0.316,0.01,0.56-0.145,0.746-0.381c0.062-0.076,0.086-0.18,0.131-0.266
			c0.015-0.027,0.037-0.051,0.058-0.074c0.166,0.098,0.252,0.268,0.215,0.434c-0.045,0.201-0.207,0.344-0.399,0.344
			c-0.396,0.008-0.797,0.008-1.193-0.004c-0.074-0.002-0.146-0.059-0.225-0.1L21.875,20.72L21.875,20.72z M8.414,20.756l0.145-0.01
			c0.238-0.008,0.482,0.014,0.711-0.029c0.287-0.053,0.492-0.244,0.612-0.516c0.025-0.059,0.057-0.109,0.084-0.166
			c0.167,0.094,0.252,0.271,0.215,0.434c-0.044,0.189-0.204,0.34-0.403,0.344H8.569c-0.06,0-0.119-0.039-0.177-0.059L8.414,20.756z"
			/>
		<path fill="#2B2214" d="M11.118,18.654c0.033-0.01,0.066-0.027,0.101-0.027h9.412c0.041,0,0.08,0.019,0.121,0.027l-0.104,0.005
			h-9.428c-0.032,0-0.066-0.003-0.103-0.005H11.118z"/>
		<path fill="#00040A" d="M11.091,19.707l0.141,0.008h9.458c-0.032,0.019-0.063,0.019-0.099,0.019c-3.143,0-6.286,0-9.43-0.001
			c-0.04,0-0.078-0.013-0.118-0.018L11.091,19.707L11.091,19.707z M20.673,17.901l0.15-0.005L20.673,17.901z"/>
		<path fill="#2B2214" d="M10.957,18.62l0.104,0.041L10.957,18.62z"/>
		<path fill="#00040A" d="M11.063,17.896l0.114,0.005L11.063,17.896z"/>
		<path fill="#2B2214" d="M20.783,18.654h0.07H20.783z"/>
		<path fill="#00040A" d="M11.156,18.18h-0.075H11.156z M20.807,18.18c-0.024,0-0.052-0.001-0.074-0.001L20.807,18.18L20.807,18.18z
			 M19.645,23.998c0.015,0,0.022,0.002,0.035,0.002v1.613c0,0.033-0.021,0.064-0.027,0.1l-0.004-1.146l-0.004-0.559V23.998
			L19.645,23.998z"/>
		<path fill="#FBFBFA" d="M17.35,22.174c-0.009-0.01-0.017-0.018-0.022-0.023L17.35,22.174z"/>
		<path fill="#101012" d="M14.525,23.291c0.003,0.008,0.003,0.014,0.003,0.021C14.528,23.302,14.528,23.299,14.525,23.291z"/>
		<path fill="#1D2123" d="M14.694,23.33h1.004c-0.024,0.012-0.05,0.035-0.073,0.035h-0.857c-0.023,0-0.047-0.023-0.072-0.035H14.694
			z M14.563,23.33c0.012-0.006,0.025-0.012,0.041-0.014c0.02,0.004,0.022,0.01,0.027,0.014l-0.01,0.047L14.563,23.33L14.563,23.33z"
			/>
		<path fill="#0E0F11" d="M17.268,23.33c0.026,0.004,0.039,0.01,0.047,0.016c-0.004,0.008-0.01,0.016-0.017,0.02l-0.028-0.033
			L17.268,23.33L17.268,23.33z"/>
		<path fill="#CFD2D4" d="M22.693,19.072c-0.41,0.001-0.736-0.239-0.859-0.564c-0.156-0.417,0.056-0.855,0.484-1.043
			c0.42-0.184,0.928-0.031,1.176,0.35c0.17,0.28,0.15,0.639-0.051,0.899C23.266,18.946,22.986,19.079,22.693,19.072z M23.229,17.707
			c-0.326-0.294-0.894-0.246-1.162,0.098c-0.252,0.32-0.166,0.81,0.175,1.001c0.215,0.154,0.45,0.185,0.698,0.107
			c0.274-0.081,0.468-0.262,0.524-0.549C23.521,18.117,23.427,17.861,23.229,17.707L23.229,17.707z M10.102,18.255
			c-0.015,0.294-0.157,0.522-0.418,0.683c-0.379,0.231-0.915,0.171-1.216-0.188c-0.252-0.295-0.262-0.72-0.008-1.02
			c0.184-0.228,0.464-0.354,0.755-0.343c0.4,0.009,0.801,0.288,0.874,0.706C10.098,18.144,10.098,18.192,10.102,18.255
			L10.102,18.255z M8.731,18.81c0.374,0.252,0.881,0.153,1.133-0.221c0.008-0.012,0.015-0.022,0.022-0.036
			c0.164-0.298,0.068-0.697-0.205-0.873c-0.245-0.222-0.71-0.224-1-0.002C8.298,17.982,8.324,18.56,8.731,18.81z"/>
		<path fill="#58B7B7" d="M22.24,18.805c-0.342-0.19-0.426-0.681-0.174-1.001c0.271-0.342,0.836-0.393,1.162-0.098
			c-0.012,0.021-0.023,0.042-0.025,0.064c-0.008,0.162-0.018,0.322-0.1,0.464c-0.07,0.119-0.154,0.234-0.254,0.33
			C22.684,18.726,22.466,18.783,22.24,18.805L22.24,18.805z"/>
		<path fill="#51A8A5" d="M22.24,18.805c0.227-0.022,0.441-0.08,0.609-0.239c0.1-0.096,0.18-0.212,0.254-0.33
			c0.082-0.142,0.094-0.306,0.1-0.464c0.002-0.022,0.018-0.043,0.025-0.064c0.205,0.171,0.289,0.396,0.234,0.657
			c-0.062,0.288-0.25,0.468-0.523,0.549C22.691,18.989,22.453,18.961,22.24,18.805z"/>
		<path fill="#58B7B7" d="M8.731,18.81c-0.407-0.25-0.434-0.839-0.048-1.132c0.289-0.222,0.756-0.22,1,0.002L9.68,17.823
			c0.003,0.354-0.147,0.637-0.443,0.815c-0.148,0.102-0.334,0.115-0.504,0.17L8.731,18.81z"/>
		<path fill="#51A8A5" d="M8.731,18.81c0.169-0.056,0.355-0.079,0.504-0.169c0.297-0.183,0.447-0.465,0.443-0.816l0.003-0.141
			c0.272,0.173,0.368,0.573,0.205,0.872c-0.232,0.388-0.734,0.512-1.12,0.279c-0.012-0.007-0.024-0.015-0.036-0.022L8.731,18.81z"/>
	</g>
	<path fill="#FFA105" d="M12.725,28.74c-1.651-0.324-3.237-0.957-4.691-1.824l-2.445,0.615c1.675,1.18,3.55,2.74,5.541,3.258
		c0.51,0.135,1.283,0.133,1.535,0.643l0.85,1.656l1.854,3.67c0.062,0.121,0.279,0.773,0.467,0.627s0.294-0.555,0.397-0.766
		l0.875-1.752l0.974-1.934l0.461-0.906c0.123-0.248,0.248-0.643,0.449-0.826c0.211-0.195,0.639-0.197,0.906-0.254
		c0.305-0.062,0.596-0.146,0.893-0.242l1.855-0.688c1.223-0.521,2.161-1.344,3.251-2.096c-0.228-0.504,0.116-0.221,0.169-0.258
		l-2.473-0.793C20.317,28.799,16.453,29.463,12.725,28.74z"/>
	<path fill="#FFA105" d="M15.959,31.599c-8.528,0-15.466-6.721-15.466-14.983c0-8.261,6.938-14.981,15.466-14.981
		s15.465,6.721,15.465,14.981C31.424,24.879,24.487,31.599,15.959,31.599z M15.959,4.234c-7.094,0-12.866,5.555-12.866,12.382
		C3.093,23.445,8.865,29,15.959,29s12.866-5.555,12.866-12.384C28.825,9.789,23.053,4.234,15.959,4.234z"/>
	<g>
		<path opacity="0.15" fill="#FFFFFF" enable-background="new    " d="M9.079,27.197L7.265,29.01l0.978,0.457l1.758-1.861
			L9.079,27.197z"/>
		<path opacity="0.15" fill="#FFFFFF" enable-background="new    " d="M10.867,28.135l-1.333,2.049l0.329,0.117l1.674-1.955
			L10.867,28.135z"/>
		<path opacity="0.15" fill="#FFFFFF" enable-background="new    " d="M22.125,27.601l1.773,1.771l-0.949,0.49l-1.744-1.846
			L22.125,27.601z"/>
		<path opacity="0.15" fill="#FFFFFF" enable-background="new    " d="M14.791,29.041l2.646-0.105l-3.544,4.949l-0.397-0.771
			L14.791,29.041L14.791,29.041z"/>
		<path opacity="0.15" fill="#FFFFFF" enable-background="new    " d="M20.382,28.336l1.404,2.033l-0.354,0.145l-1.607-1.965
			L20.382,28.336z"/>
	</g>
</g>
</svg>
