<svg id="Layer_1" data-name="Layer 1" xmlns="http://www.w3.org/2000/svg" viewBox="0 0 32 32"><title>deactivate-card</title><path d="M16,0A16,16,0,1,0,32,16,16,16,0,0,0,16,0Zm5.48,22.07A1.93,1.93,0,0,1,19.56,24H11.88A1.93,1.93,0,0,1,10,22.07V12.44H21.48Zm1-10.86H9V9h4.8V8h3.84V9h4.8Z" fill="#325baf"/><path d="M10,22.07A1.93,1.93,0,0,0,11.88,24h7.68a1.93,1.93,0,0,0,1.92-1.93V12.44H10Z" fill="#9ac0fa"/><polygon points="17.64 8 13.8 8 13.8 8.96 9 8.96 9 11.21 22.44 11.21 22.44 8.96 17.64 8.96 17.64 8" fill="#f1f3f4"/></svg>