<svg id="Layer_1" data-name="Layer 1" xmlns="http://www.w3.org/2000/svg" viewBox="0 0 32 32"><title>freeze-card</title><path d="M16,0A16,16,0,1,0,32,16,16,16,0,0,0,16,0ZM9,10.68l1.5-1.51,1.6,1.61L12.48,9l2.08.41-.64,3.2,1.85,1.85,2.17-2.16L17,9.51l2-.67.58,1.75L21,9.17l1.5,1.51-1.41,1.41,1.75.59-.68,2-2.75-.92-2.17,2.17.07.06,1.79,1.79,3.19-.64.42,2.08-1.81.36,1.6,1.61L21,22.7l-1.6-1.6-.37,1.81L17,22.49l.64-3.2-1.85-1.85-1.85,1.85.64,3.2-2.09.42-.36-1.81-1.6,1.6L9,21.19l1.6-1.6L8.8,19.23l.42-2.08,3.2.64L14.2,16l.07-.06-1.85-1.85-3.2.64L8.8,12.64l1.81-.36Z" fill="#325baf"/><polygon points="9.21 14.73 12.41 14.09 14.27 15.94 14.21 16 17.34 16 17.27 15.94 19.44 13.77 22.2 14.69 22.87 12.68 21.12 12.09 22.53 10.68 21.03 9.18 19.61 10.59 19.03 8.84 17.02 9.51 17.93 12.27 15.77 14.43 13.92 12.58 14.56 9.38 12.48 8.96 12.11 10.78 10.51 9.18 9.01 10.68 10.61 12.28 8.8 12.64 9.21 14.73" fill="#9ac0fa"/><polygon points="12.41 17.79 9.21 17.15 8.8 19.23 10.61 19.59 9.01 21.19 10.51 22.7 12.11 21.1 12.47 22.91 14.56 22.49 13.92 19.29 15.77 17.44 17.62 19.29 16.98 22.49 19.06 22.91 19.43 21.1 21.03 22.7 22.53 21.2 20.93 19.59 22.74 19.23 22.32 17.15 19.13 17.79 17.34 16 14.21 16 12.41 17.79" fill="#f1f3f4"/></svg>