<svg id="Layer_1" data-name="Layer 1" xmlns="http://www.w3.org/2000/svg" viewBox="0 0 32 32"><title>gpay</title><path d="M16,0A16,16,0,1,0,32,16,16,16,0,0,0,16,0Zm4.35,20.86h0a6.1,6.1,0,0,1-4.23,1.56,6.38,6.38,0,0,1-5.69-3.56h0a6.48,6.48,0,0,1,0-5.79A6.36,6.36,0,0,1,16.12,9.5a6.1,6.1,0,0,1,4.27,1.68L18.57,13a3.38,3.38,0,0,0-2.45-1,3.82,3.82,0,0,0-3.57,2.67h0a3.87,3.87,0,0,0,0,2.47h0a3.83,3.83,0,0,0,3.58,2.67,3.78,3.78,0,0,0,2.16-.62h0a3,3,0,0,0,1.28-2H16.12V14.8h6a8.17,8.17,0,0,1,.1,1.31A6.34,6.34,0,0,1,20.35,20.86Z" fill="#fff"/><path d="M16.12,14.8v2.48h3.45a3,3,0,0,1-1.28,2h0l2.06,1.61h0a6.34,6.34,0,0,0,1.89-4.75,8.17,8.17,0,0,0-.1-1.31Z" fill="#4285f4"/><path d="M16.13,19.87a3.83,3.83,0,0,1-3.58-2.67h0l-2.12,1.66h0a6.38,6.38,0,0,0,5.69,3.56,6.1,6.1,0,0,0,4.23-1.56h0l-2.06-1.61A3.78,3.78,0,0,1,16.13,19.87Z" fill="#34a853"/><path d="M12.55,17.2a3.87,3.87,0,0,1,0-2.47l-2.12-1.66a6.48,6.48,0,0,0,0,5.79l2.12-1.66Z" fill="#fbbc04"/><path d="M12.55,14.73a3.82,3.82,0,0,1,3.57-2.67,3.38,3.38,0,0,1,2.45,1l1.82-1.85A6.1,6.1,0,0,0,16.12,9.5a6.36,6.36,0,0,0-5.69,3.57l2.12,1.66Z" fill="#ea4335"/></svg>