<svg id="Layer_1" data-name="Layer 1" xmlns="http://www.w3.org/2000/svg" viewBox="0 0 74 21"><title>logo</title><path d="M48.7,7.87a2.4,2.4,0,0,0-1-.2h0A2.51,2.51,0,0,0,46,8.34a2.72,2.72,0,0,0-1,2.21,3.19,3.19,0,0,1,.12.6,2.73,2.73,0,0,0,2.66,2.39h0a2.69,2.69,0,0,0,2.5-1.68,2.88,2.88,0,0,0,.12-1.9A2.66,2.66,0,0,0,48.7,7.87Z" transform="translate(0 0)" fill="none"/><path d="M30.46,11.21H28.11a3.74,3.74,0,0,0-1.15.18,1,1,0,0,0-.67.71,1.34,1.34,0,0,0,1,1.56,2.81,2.81,0,0,0,2.18-.24,1.7,1.7,0,0,0,1.08-1.73,1.13,1.13,0,0,0,.06-.36C30.58,11.21,30.52,11.21,30.46,11.21Z" transform="translate(0 0)" fill="none"/><path d="M70.15,7.75a2.4,2.4,0,0,0-.46,0,2.55,2.55,0,0,0-1.49.48,2.49,2.49,0,0,0-1,1.72s0,.07,0,.09.07,0,.14,0h4.84c.12,0,.12-.06.12-.12a2.75,2.75,0,0,0-.43-1.25A2.23,2.23,0,0,0,70.15,7.75Z" transform="translate(0 0)" fill="none"/><path d="M55.56,2.49h0a1.2,1.2,0,0,0-1.14,1.2,1.07,1.07,0,0,0,.32.81,1.1,1.1,0,0,0,.79.32h0a1.14,1.14,0,0,0,.81-.33,1.1,1.1,0,0,0,.34-.8,1.11,1.11,0,0,0-.31-.85A1.14,1.14,0,0,0,55.56,2.49Z" transform="translate(0 0)" fill="#fff"/><path d="M64.34,6.14a.41.41,0,0,0-.16,0l-.13,0A3.31,3.31,0,0,0,61.7,7.45a3.47,3.47,0,0,0-.25.29V6.31c0-.06,0-.12-.12-.12H59.64c-.06,0-.12,0-.12.12v8.6c0,.06,0,.12.12.12h1.65a.17.17,0,0,0,.12,0,.15.15,0,0,0,0-.13c0-.48,0-1,0-1.43,0-.95,0-1.93,0-2.93a2.47,2.47,0,0,1,1.21-2.15,2.94,2.94,0,0,1,1.53-.42h.22c.06,0,.12,0,.12-.12V6.55s0-.06,0-.09a.27.27,0,0,0-.07-.27A.19.19,0,0,0,64.34,6.14Z" transform="translate(0 0)" fill="#fff"/><path d="M56.32,6.31H54.69c-.07,0-.12,0-.12.12V15c0,.12,0,.12.12.12h1.65a.16.16,0,0,0,.11-.05.15.15,0,0,0,0-.13l-.06-8.54C56.44,6.37,56.44,6.31,56.32,6.31Z" transform="translate(0 0)" fill="#fff"/><path d="M73.72,8.88a3.34,3.34,0,0,0-2.6-2.45,5.75,5.75,0,0,0-2.3,0,4.16,4.16,0,0,0-3.26,2.5,4.45,4.45,0,0,0-.3,2.81,4,4,0,0,0,2.66,3.22,5.48,5.48,0,0,0,1.84.32h0A5.75,5.75,0,0,0,71,15.09a5.29,5.29,0,0,0,2.42-1.32.1.1,0,0,0,0-.09.12.12,0,0,0,0-.09c-.15-.14-.29-.3-.43-.44s-.27-.3-.42-.45a.11.11,0,0,0-.09,0,.12.12,0,0,0-.09,0,3.36,3.36,0,0,1-2.36,1h-.14a2.78,2.78,0,0,1-2.7-2.09.15.15,0,0,1,0-.13.13.13,0,0,1,.13,0h.55a19.13,19.13,0,0,1,2.72.19h3.26c.06,0,.12,0,.12-.12A6.2,6.2,0,0,0,73.72,8.88ZM72.15,10H67.31c-.07,0-.13,0-.14,0s0,0,0-.09a2.49,2.49,0,0,1,1-1.72,2.55,2.55,0,0,1,1.49-.48,2.4,2.4,0,0,1,.46,0,2.23,2.23,0,0,1,1.69.9,2.75,2.75,0,0,1,.43,1.25C72.27,10,72.27,10,72.15,10Z" transform="translate(0 0)" fill="#fff"/><path d="M10.59,9.84s0-.05,0-.05a.1.1,0,0,0-.08.05c-.1.09-2.32,2.47-4.28,4.57h0L3.1,17.72a.19.19,0,0,0-.07.12A.16.16,0,0,0,3.1,18,10.1,10.1,0,0,0,6.44,20.2a10.2,10.2,0,0,0,4,.8h.15a5.55,5.55,0,0,0,.82-.06A10.26,10.26,0,0,0,16.57,19a8,8,0,0,0,1.33-1.14c.06,0,.09,0,.1,0s0-.05,0-.09C17.74,17.63,10.65,9.9,10.59,9.84Z" transform="translate(0 0)" fill="#fff"/><path d="M30.89,6.61a3.46,3.46,0,0,0-1.33-.35l-.62,0a7.06,7.06,0,0,0-3.79,1.1c-.06,0-.09,0-.1,0s0,.06,0,.09a11.5,11.5,0,0,0,.66,1.13c0,.07.07.1.11.1a.08.08,0,0,0,.07,0,3.51,3.51,0,0,1,.79-.47,4.08,4.08,0,0,1,2.53-.3A1.51,1.51,0,0,1,30.58,9a2.06,2.06,0,0,1,.07.66s0,0,0,.06a.17.17,0,0,1-.14.06H27.92a6,6,0,0,0-1.39.17,2.6,2.6,0,0,0-1.69,1.26,2.68,2.68,0,0,0-.12,2.2A2.71,2.71,0,0,0,26.29,15a3.49,3.49,0,0,0,1.39.28,3.39,3.39,0,0,0,.55,0,4.9,4.9,0,0,0,2.53-1.07v.95c0,.06,0,.12.13.12h1.63c.06,0,.12,0,.12-.12V10.67a16.76,16.76,0,0,0-.06-1.73A3,3,0,0,0,30.89,6.61Zm-.37,5.08a1.7,1.7,0,0,1-1.08,1.73,2.81,2.81,0,0,1-2.18.24,1.34,1.34,0,0,1-1-1.56,1,1,0,0,1,.67-.71,3.74,3.74,0,0,1,1.15-.18h2.35c.06,0,.12,0,.12.12A1.13,1.13,0,0,1,30.52,11.69Z" transform="translate(0 0)" fill="#fff"/><path d="M18.08,3.21A10.25,10.25,0,0,0,8.23.28,10.06,10.06,0,0,0,1.34,5.42,9.39,9.39,0,0,0,0,10a9.85,9.85,0,0,0,.36,3.28.22.22,0,0,0,0,.08l0,0a.1.1,0,0,0,.07,0c.12-.18,9.64-10.43,9.72-10.51s.17-.17.25-.17.1,0,.18.11c.54.46,9.74,10.45,9.78,10.51a.15.15,0,0,0,.12.12c.07,0,.07-.06.07-.12A13.58,13.58,0,0,0,21,10.55a8.35,8.35,0,0,0-.12-1.73A9.89,9.89,0,0,0,18.08,3.21Z" transform="translate(0 0)" fill="#fff"/><path d="M39.46,10.37A8,8,0,0,0,38,9.83a4.72,4.72,0,0,1-1.27-.54.68.68,0,0,1-.36-.77.79.79,0,0,1,.54-.66,1.67,1.67,0,0,1,.91-.12,5.46,5.46,0,0,1,2.36.72l.08,0a.08.08,0,0,0,.07,0l0,0,.54-1.08c.09-.15.14-.23.12-.28s-.09-.08-.24-.14a7,7,0,0,0-2.6-.72h-.27A5.22,5.22,0,0,0,36,6.54a2.38,2.38,0,0,0-.12,4.3l.91.36a5.27,5.27,0,0,0,.6.2c.33.1.65.21,1,.34a1.38,1.38,0,0,1,.66.36.85.85,0,0,1,.24.75.8.8,0,0,1-.48.62,1.55,1.55,0,0,1-.6.18,3.55,3.55,0,0,1-1.93-.24,7.12,7.12,0,0,1-.76-.31,4.15,4.15,0,0,0-.69-.28,5.77,5.77,0,0,0-.27.56,6.25,6.25,0,0,1-.33.63.24.24,0,0,0,0,.2.13.13,0,0,0,.09.1,5.51,5.51,0,0,0,3.32,1.1,5.65,5.65,0,0,0,1.87-.32A2.39,2.39,0,0,0,41.1,13a2.27,2.27,0,0,0-.79-2.09A3.31,3.31,0,0,0,39.46,10.37Z" transform="translate(0 0)" fill="#fff"/><path d="M50.1,6.54a4.2,4.2,0,0,0-3.45-.11A3.61,3.61,0,0,0,45,7.87V6.49c0-.06,0-.12-.12-.12H43.21c-.06,0-.12,0-.12.12V18.37c0,.06,0,.12.12.12h1.57c.24,0,.24,0,.25-.23v-4.6l.06.08a.21.21,0,0,0,.06.1A3.87,3.87,0,0,0,46.72,15a3.93,3.93,0,0,0,2.17.24,3.78,3.78,0,0,0,3-2.09,5.29,5.29,0,0,0,.37-3.94A4.12,4.12,0,0,0,50.1,6.54Zm.23,5.32a2.69,2.69,0,0,1-2.5,1.68h0a2.73,2.73,0,0,1-2.66-2.39,3.19,3.19,0,0,0-.12-.6,2.72,2.72,0,0,1,1-2.21,2.51,2.51,0,0,1,1.73-.68h0a2.4,2.4,0,0,1,1,.2A2.66,2.66,0,0,1,50.45,10,2.88,2.88,0,0,1,50.33,11.86Z" transform="translate(0 0)" fill="#fff"/></svg>