<svg id="Layer_1" data-name="Layer 1" xmlns="http://www.w3.org/2000/svg" viewBox="0 0 18 14.87"><title>pickup-car</title><path d="M3.51,2.34a.22.22,0,0,0-.31,0h0a8.83,8.83,0,0,0-2,2.46.23.23,0,0,0,.08.3h0L3.62,6.34a.22.22,0,0,0,.3-.08h0a6.18,6.18,0,0,1,1.3-1.62.25.25,0,0,0,.08-.16.22.22,0,0,0-.06-.15Z" transform="translate(-0.12 -0.12)" fill="#9ac0fa"/><path d="M8.52,3h0L8.16.35A.22.22,0,0,0,7.92.16a9.26,9.26,0,0,0-3,1,.23.23,0,0,0-.1.3h0L6.05,3.75a.23.23,0,0,0,.3.1h0a6,6,0,0,1,2-.63A.23.23,0,0,0,8.52,3Z" transform="translate(-0.12 -0.12)" fill="#9ac0fa"/><path d="M3.25,7.25h0L.71,6.56a.22.22,0,0,0-.27.15h0A9.08,9.08,0,0,0,.12,9.08a3.17,3.17,0,0,0,0,.43.22.22,0,0,0,.21.21h0L3,9.59a.21.21,0,0,0,.21-.22h0V9.09a5.55,5.55,0,0,1,.2-1.57A.21.21,0,0,0,3.25,7.25Z" transform="translate(-0.12 -0.12)" fill="#9ac0fa"/><path d="M13,1h0a8.9,8.9,0,0,0-3-.85.21.21,0,0,0-.24.19h0L9.5,3a.21.21,0,0,0,.2.23h0a6.09,6.09,0,0,1,2,.56.21.21,0,0,0,.29-.1l1.15-2.37A.22.22,0,0,0,13,1Z" transform="translate(-0.12 -0.12)" fill="#9ac0fa"/><path d="M16.88,4.64a.23.23,0,0,0,0-.16A8.87,8.87,0,0,0,14.79,2.1a.21.21,0,0,0-.31,0l-1.66,2a.22.22,0,0,0,0,.31h0a5.87,5.87,0,0,1,1.37,1.57.21.21,0,0,0,.3.08l2.26-1.35A.24.24,0,0,0,16.88,4.64Z" transform="translate(-0.12 -0.12)" fill="#9ac0fa"/><path d="M17.71,6.38a.21.21,0,0,0-.27-.14h0L14.93,7a.23.23,0,0,0-.15.28h0a6,6,0,0,1,.28,1.79,2.72,2.72,0,0,1,0,.28.21.21,0,0,0,.21.22h0l2.63.13h0a.24.24,0,0,0,.22-.21c0-.15,0-.29,0-.43A8.9,8.9,0,0,0,17.71,6.38Z" transform="translate(-0.12 -0.12)" fill="#9ac0fa"/><path d="M10.2,10.91h0l-.11,0L7,8.2a.22.22,0,0,0-.32,0,.2.2,0,0,0,0,.21l1.28,3.93a1.94,1.94,0,0,0,0,.2,2.06,2.06,0,1,0,2.38-1.66Z" transform="translate(-0.12 -0.12)" fill="#f1f3f4"/></svg>