<svg id="Layer_1" data-name="Layer 1" xmlns="http://www.w3.org/2000/svg" viewBox="0 0 32 32"><title>replace-card</title><path d="M16,0A16,16,0,1,0,32,16,16,16,0,0,0,16,0ZM9.84,19.42a.59.59,0,0,1-.78-.28C9,19,8.9,18.78,8.84,18.6a.58.58,0,1,1,1.09-.41h0c.06.16.13.31.19.45A.58.58,0,0,1,9.84,19.42Zm1.77,2a.59.59,0,0,1-.83,0c-.14-.13-.29-.27-.42-.41a.59.59,0,0,1,0-.83.59.59,0,0,1,.83,0h0c.12.12.23.24.36.35A.59.59,0,0,1,11.61,21.47ZM14,22.66a.58.58,0,0,1-.74.37l-.54-.22a.6.6,0,0,1-.28-.76.59.59,0,0,1,.77-.31,4.47,4.47,0,0,0,.46.19A.59.59,0,0,1,14,22.66Zm6.19-.51A7.5,7.5,0,0,1,15.9,23.5h-.35a.58.58,0,0,1-.56-.61.59.59,0,0,1,.61-.56h.3a6.34,6.34,0,0,0,3.62-1.14.59.59,0,0,1,.67,1ZM23.5,16a7.32,7.32,0,0,1-1.18,4,.59.59,0,0,1-.81.18.58.58,0,0,1-.17-.8A6.27,6.27,0,0,0,16,9.66a6.38,6.38,0,0,0-5.41,3H12a.59.59,0,0,1,0,1.17H10.24A1.74,1.74,0,0,1,8.5,12.1V10.42a.59.59,0,0,1,1.17,0V12A7.52,7.52,0,0,1,20,9.66a8.43,8.43,0,0,1,1.28,1,7.43,7.43,0,0,1,2.18,5.25Z" fill="#325baf"/><path d="M11.22,20.29h0a.59.59,0,0,0-.83,0,.59.59,0,0,0,0,.83c.13.14.28.28.42.41a.59.59,0,1,0,.8-.86C11.45,20.53,11.34,20.41,11.22,20.29Z" fill="#f1f3f4"/><path d="M9.93,18.19h0a.58.58,0,1,0-1.09.41c.06.18.14.36.22.54a.59.59,0,0,0,.78.28.58.58,0,0,0,.28-.78C10.06,18.5,10,18.35,9.93,18.19Z" fill="#f1f3f4"/><path d="M13.67,21.93a4.47,4.47,0,0,1-.46-.19.59.59,0,0,0-.77.31.6.6,0,0,0,.28.76l.54.22a.58.58,0,0,0,.74-.37A.59.59,0,0,0,13.67,21.93Z" fill="#f1f3f4"/><path d="M19.52,21.19a6.34,6.34,0,0,1-3.62,1.14h-.3a.59.59,0,0,0-.61.56.58.58,0,0,0,.56.61h.35a7.5,7.5,0,0,0,4.29-1.35.59.59,0,0,0-.67-1Z" fill="#f1f3f4"/><path d="M20,9.66A7.52,7.52,0,0,0,9.67,12V10.42a.59.59,0,0,0-1.17,0V12.1a1.74,1.74,0,0,0,1.74,1.76H12a.59.59,0,0,0,0-1.17H10.62a6.36,6.36,0,0,1,8.84-2,6.27,6.27,0,0,1,1.88,8.66.58.58,0,0,0,.17.8.59.59,0,0,0,.81-.18,7.32,7.32,0,0,0,1.18-4v0a7.43,7.43,0,0,0-2.18-5.25A8.43,8.43,0,0,0,20,9.66Z" fill="#9ac0fa"/></svg>