<svg id="Layer_1" data-name="Layer 1" xmlns="http://www.w3.org/2000/svg" viewBox="0 0 32 32"><title>set-spend-limit</title><path d="M16,0A16,16,0,1,0,32,16,16,16,0,0,0,16,0Zm.67,8.2h0a.22.22,0,0,1,.24-.2,9,9,0,0,1,3,.85h0a.23.23,0,0,1,.09.3l-1.1,2.37a.22.22,0,0,1-.29.1,6.09,6.09,0,0,0-2-.56h0a.21.21,0,0,1-.18-.24ZM10.06,17v.28a.23.23,0,0,1-.21.23l-2.63.12A.22.22,0,0,1,7,17.42V17a9.37,9.37,0,0,1,.31-2.41.22.22,0,0,1,.27-.16l2.54.69v0a.23.23,0,0,1,.15.27A5.94,5.94,0,0,0,10.06,17Zm2-4.5a5.71,5.71,0,0,0-1.3,1.63.23.23,0,0,1-.3.08L8.16,13h0a.22.22,0,0,1-.09-.3,9.31,9.31,0,0,1,2-2.46.21.21,0,0,1,.31,0l1.74,2a.18.18,0,0,1,.05.16A.23.23,0,0,1,12.07,12.5Zm1.12-.77a.19.19,0,0,1-.26-.1L11.7,9.29a0,0,0,0,1,0,0,.19.19,0,0,1,.1-.26,8.86,8.86,0,0,1,3-1h0a.22.22,0,0,1,.21.23l.4,2.61h0a.21.21,0,0,1-.18.24,5.86,5.86,0,0,0-2,.64Zm5.89,9.85a2.06,2.06,0,0,1-2.63,1.25l-.1,0a2,2,0,0,1-1.56-2.36v-.21l-1.28-3.92a.28.28,0,0,1,0-.22.21.21,0,0,1,.31,0L17,18.78h.11l.09,0a1.84,1.84,0,0,1,.66.12A2.05,2.05,0,0,1,19.08,21.58Zm2-7.65a6.23,6.23,0,0,0-1.36-1.58h0a.22.22,0,0,1,0-.3L21.36,10h0a.22.22,0,0,1,.3,0,9,9,0,0,1,2.09,2.35.25.25,0,0,1,0,.17.2.2,0,0,1-.14.14L21.35,14A.22.22,0,0,1,21.05,13.93ZM25,17.42a.22.22,0,0,1-.22.21l-2.63-.12a.23.23,0,0,1-.21-.23V17a6.29,6.29,0,0,0-.27-1.83.23.23,0,0,1,.14-.27l2.51-.79a.23.23,0,0,1,.28.15A9.09,9.09,0,0,1,25,17Z" fill="#325baf"/><path d="M10.38,10.19a.21.21,0,0,0-.31,0,9.31,9.31,0,0,0-2,2.46.22.22,0,0,0,.09.3h0l2.31,1.26a.23.23,0,0,0,.3-.08,5.71,5.71,0,0,1,1.3-1.63.23.23,0,0,0,.1-.15.18.18,0,0,0-.05-.16Z" fill="#9ac0fa"/><path d="M15.4,10.84h0L15,8.23A.22.22,0,0,0,14.79,8h0a8.86,8.86,0,0,0-3,1,.19.19,0,0,0-.1.26,0,0,0,0,0,0,0l1.23,2.34a.19.19,0,0,0,.26.1h0a5.86,5.86,0,0,1,2-.64A.21.21,0,0,0,15.4,10.84Z" fill="#9ac0fa"/><path d="M10.12,15.16v0l-2.54-.69a.22.22,0,0,0-.27.16A9.37,9.37,0,0,0,7,17v.42a.22.22,0,0,0,.22.21l2.63-.12a.23.23,0,0,0,.21-.23V17a5.94,5.94,0,0,1,.21-1.57A.23.23,0,0,0,10.12,15.16Z" fill="#9ac0fa"/><path d="M16.6,11.06h0a6.09,6.09,0,0,1,2,.56.22.22,0,0,0,.29-.1L20,9.15a.23.23,0,0,0-.09-.3h0a9,9,0,0,0-3-.85.22.22,0,0,0-.24.2h0l-.25,2.62A.21.21,0,0,0,16.6,11.06Z" fill="#9ac0fa"/><path d="M23.75,12.52a.25.25,0,0,0,0-.17A9,9,0,0,0,21.66,10a.22.22,0,0,0-.3,0h0l-1.67,2.05a.22.22,0,0,0,0,.3h0a6.23,6.23,0,0,1,1.36,1.58.22.22,0,0,0,.3.08l2.26-1.35A.2.2,0,0,0,23.75,12.52Z" fill="#9ac0fa"/><path d="M24.31,14.11l-2.51.79a.23.23,0,0,0-.14.27A6.29,6.29,0,0,1,21.93,17v.28a.23.23,0,0,0,.21.23l2.63.12a.22.22,0,0,0,.22-.21V17a9.09,9.09,0,0,0-.4-2.74A.23.23,0,0,0,24.31,14.11Z" fill="#9ac0fa"/><path d="M17.83,19a1.84,1.84,0,0,0-.66-.12l-.09,0H17L13.82,16.1a.21.21,0,0,0-.31,0,.28.28,0,0,0,0,.22l1.28,3.92v.21a2,2,0,0,0,1.56,2.36l.1,0A2.06,2.06,0,1,0,17.83,19Z" fill="#f1f3f4"/></svg>