<?xml version="1.0" encoding="utf-8"?>
<!-- Generator: Adobe Illustrator 22.0.0, SVG Export Plug-In . SVG Version: 6.00 Build 0)  -->
<svg version="1.1" id="Layer_1" xmlns="http://www.w3.org/2000/svg" xmlns:xlink="http://www.w3.org/1999/xlink" x="0px" y="0px"
	 viewBox="0 0 23.3 24" style="enable-background:new 0 0 23.3 24;" xml:space="preserve">
<style type="text/css">
	.st0{fill:#DDDDDD;}
</style>
<g>
	<path class="st0" d="M11.7,0C5.1,0.1-0.1,5.5,0,12c-0.1,6.5,5.1,11.9,11.7,12c2.4,0,4.7-0.8,6.7-2.2c0.5-0.5,0.8-0.5,0.8-1l0-0.1
		c0-0.6-0.5-1.1-1.1-1.1c0,0,0,0,0,0c-0.3,0-0.6,0.1-0.8,0.3c-1.6,1.2-3.6,1.9-5.6,1.9C6.3,21.7,2,17.3,2.1,12
		c-0.1-5.3,4-9.7,9.3-9.8c5.3-0.1,9.7,4,9.8,9.3c0,0.2,0,0.3,0,0.5c0,1.4-0.3,2.9-0.9,4.2c-0.2,0.4-0.4,0.8-0.5,1.2l0,0.1
		c0,0.6,0.5,1.1,1.1,1.1c0.5,0,0.9-0.3,1-0.8c1-1.8,1.4-3.8,1.4-5.8C23.4,5.5,18.2,0.1,11.7,0z"/>
	<path class="st0" d="M13.4,17.6C13.4,17.6,13.4,17.6,13.4,17.6c0.4,0.4,1,0.4,1.4,0c0,0,0,0,0,0l3-3c0.2-0.2,0.3-0.4,0.3-0.6h0
		c0,0,0-0.1,0-0.1c0-0.3-0.1-0.5-0.3-0.7c-0.2-0.2-0.4-0.3-0.7-0.3c0,0-0.1,0-0.1,0H6.2c-0.6,0-1,0.5-1,1c0,0.6,0.5,1,1,1l8.4,0
		l-1.2,1.2C13,16.6,13,17.2,13.4,17.6z"/>
	<path class="st0" d="M17,9.6l-8.4,0l1.2-1.2c0.4-0.4,0.3-1-0.1-1.4c-0.4-0.4-1-0.4-1.4,0l-3,3c-0.2,0.2-0.3,0.4-0.3,0.6h0
		c0,0,0,0.1,0,0.1l0,0c0,0.3,0.1,0.5,0.3,0.7c0.2,0.2,0.4,0.3,0.7,0.3c0,0,0.1,0,0.1,0H17c0.6,0,1-0.5,1-1
		C18.1,10.1,17.6,9.6,17,9.6z"/>
</g>
</svg>
