<svg id="Layer_1" data-name="Layer 1" xmlns="http://www.w3.org/2000/svg" viewBox="0 0 20.03 24.01"><title>user</title><path d="M9.86,11.55A5.6,5.6,0,0,0,14,9.86a5.56,5.56,0,0,0,1.69-4.09,5.57,5.57,0,0,0-1.7-4.08,5.8,5.8,0,0,0-8.18,0,5.61,5.61,0,0,0-1.7,4.08,5.57,5.57,0,0,0,1.7,4.08A5.61,5.61,0,0,0,9.86,11.55Z" transform="translate(0.01 0)" fill="#ddd"/><path d="M20,18.46A12.71,12.71,0,0,0,19.78,17a11.37,11.37,0,0,0-.37-1.53A7.49,7.49,0,0,0,18.78,14a5.58,5.58,0,0,0-.94-1.23,4.39,4.39,0,0,0-1.36-.85,4.66,4.66,0,0,0-1.74-.31,1.84,1.84,0,0,0-.94.4l-1,.63a6,6,0,0,1-1.27.56,5,5,0,0,1-3.1,0,5.7,5.7,0,0,1-1.26-.56l-1-.63a1.76,1.76,0,0,0-.94-.4,4.7,4.7,0,0,0-1.74.31,4.39,4.39,0,0,0-1.36.85A5.58,5.58,0,0,0,1.24,14a7.49,7.49,0,0,0-.63,1.42A13.12,13.12,0,0,0,.24,17a12.71,12.71,0,0,0-.19,1.51c0,.46,0,.94,0,1.42a4,4,0,0,0,1.18,3A4.24,4.24,0,0,0,4.23,24H15.79a4.24,4.24,0,0,0,3.05-1.11,4,4,0,0,0,1.18-3C20,19.39,20,18.92,20,18.46Z" transform="translate(0.01 0)" fill="#ddd"/></svg>