<svg id="Layer_1" data-name="Layer 1" xmlns="http://www.w3.org/2000/svg" viewBox="0 0 59 20"><title>visa-white-logo</title><polygon points="23.77 0.34 20.76 19.67 25.58 19.67 25.58 19.67 28.59 0.34 23.77 0.34" fill="#fff"/><path d="M16.71.34l-4.59,13.3-.54-2.87L10,2.09A2.1,2.1,0,0,0,7.68.34H.09L0,.67H.2l.09,0,.1,0L.48.8h0L.75.88.9.93,1.07,1,1.23,1l.2.07.18.07.23.09.09,0,.1,0,.44.19.23.1L3,1.75l.24.12L3.47,2l.27.15L4,2.28l.44.25.26.15L5,2.89,9.22,19.67h5L21.89.34Z" fill="#fff"/><path d="M55.15.34H51.28a2.26,2.26,0,0,0-2.23,1.44L41.87,19.67h5l1-2.87H54l.57,2.87H59ZM49.28,12.83,51.81,5.6l1.42,7.23Z" fill="#fff"/><path d="M37.84,7.89c-1.26-.7-2.34-1.31-2.34-2.18a1.34,1.34,0,0,1,.86-1.25,4.56,4.56,0,0,1,2-.38A8.37,8.37,0,0,1,42.25,5L42.94.84A13.64,13.64,0,0,0,38.61,0a11,11,0,0,0-4.93,1.21,6.18,6.18,0,0,0-2.21,2,5.72,5.72,0,0,0-.93,3.24A4.46,4.46,0,0,0,31.9,9.68a12.07,12.07,0,0,0,2.76,1.89c1.37.75,2.54,1.4,2.54,2.5S36,15.92,34,15.92a8,8,0,0,1-4.69-1.35l-.72,4.34A13.23,13.23,0,0,0,34,20a10.43,10.43,0,0,0,5.35-1.49,5.88,5.88,0,0,0,2.89-5.12C42.22,10.36,39.79,9,37.84,7.89Z" fill="#fff"/></svg>