<svg id="Layer_1" data-name="Layer 1" xmlns="http://www.w3.org/2000/svg" viewBox="0 0 32 32"><title>freeze-card</title><path d="M16,0A16,16,0,1,0,32,16,16,16,0,0,0,16,0Zm1.34,16,1.79,1.79,3.19-.64.42,2.08-1.81.36,1.6,1.61L21,22.7l-1.6-1.6-.37,1.81L17,22.49l.64-3.2-1.85-1.85-1.85,1.85.64,3.2-2.09.42-.36-1.81-1.6,1.6L9,21.19l1.6-1.6L8.8,19.23l.42-2.08,3.2.64L14.2,16l.07-.06-1.85-1.85-3.2.64L8.8,12.64l1.81-.36L9,10.68l1.5-1.51,1.6,1.61L12.48,9l2.08.41-.64,3.2,1.85,1.85,2.17-2.16L17,9.51l2-.67.58,1.75L21,9.17l1.5,1.51-1.41,1.41,1.75.59-.68,2-2.75-.92-2.17,2.17Z" fill="#325baf"/></svg>