<?xml version="1.0" encoding="utf-8"?>
<!-- Generator: Adobe Illustrator 22.0.0, SVG Export Plug-In . SVG Version: 6.00 Build 0)  -->
<svg version="1.1" id="Layer_1" xmlns="http://www.w3.org/2000/svg" xmlns:xlink="http://www.w3.org/1999/xlink" x="0px" y="0px"
	 viewBox="0 0 59 20" style="enable-background:new 0 0 59 20;" xml:space="preserve">
<style type="text/css">
	.st0{fill:#FFFFFF;}
</style>
<g>
	<polygon class="st0" points="23.8,0.3 20.8,19.7 25.6,19.7 25.6,19.7 28.6,0.3 	"/>
	<path class="st0" d="M16.7,0.3l-4.6,13.3l-0.5-2.9L10,2.1C9.8,1,8.8,0.2,7.7,0.3H0.1L0,0.7c0,0,0,0,0,0l0,0h0l0.1,0l0,0l0,0l0.1,0
		l0.1,0l0.1,0l0,0c0.1,0,0.1,0,0.2,0.1l0.2,0C1,0.9,1,1,1.1,1L1.2,1l0.2,0.1l0.2,0.1l0.2,0.1l0.1,0l0.1,0c0.1,0.1,0.3,0.1,0.4,0.2
		l0.2,0.1c0.1,0,0.2,0.1,0.3,0.1c0.1,0,0.2,0.1,0.2,0.1C3.3,1.9,3.4,2,3.5,2c0.1,0,0.2,0.1,0.3,0.1c0.1,0,0.2,0.1,0.3,0.1
		c0.1,0.1,0.3,0.2,0.4,0.2l0.3,0.2C4.8,2.7,4.9,2.8,5,2.9l4.2,16.8h5l7.7-19.3H16.7z"/>
	<path class="st0" d="M55.1,0.3h-3.9c-1-0.1-1.9,0.5-2.2,1.4l-7.2,17.9h5l0,0l1-2.9H54l0.6,2.9H59L55.1,0.3z M49.3,12.8l2.5-7.2
		l1.4,7.2H49.3z"/>
	<path class="st0" d="M37.8,7.9c-1.3-0.7-2.3-1.3-2.3-2.2c0-0.6,0.3-1,0.9-1.3c0.6-0.3,1.3-0.4,2-0.4c1.3,0,2.7,0.3,3.9,0.9l0.7-4.2
		C41.5,0.3,40.1,0,38.6,0c-1.7,0-3.4,0.4-4.9,1.2c-0.9,0.5-1.6,1.1-2.2,2c-0.6,1-0.9,2.1-0.9,3.2c0,1.2,0.5,2.4,1.4,3.3
		c0.8,0.8,1.8,1.4,2.8,1.9c1.4,0.7,2.5,1.4,2.5,2.5c0,1.2-1.2,1.9-3.3,1.9c-1.7,0-3.3-0.4-4.7-1.4l-0.7,4.3c1.7,0.7,3.6,1.1,5.4,1.1
		c1.9,0,3.7-0.5,5.3-1.5c1.8-1.1,2.9-3,2.9-5.1C42.2,10.4,39.8,9,37.8,7.9z"/>
</g>
</svg>
