<svg xmlns="http://www.w3.org/2000/svg" width="18.022" height="18.022" viewBox="0 0 18.022 18.022"><defs><style>.a{fill:#a5a4bf;}</style></defs><path class="a" d="M17.55,5.841,9.665.21a1.127,1.127,0,0,0-1.309,0L.472,5.841A1.126,1.126,0,0,0,1.781,7.675l.472-.337V16.9a1.126,1.126,0,0,0,1.126,1.126H14.643A1.126,1.126,0,0,0,15.769,16.9V7.338a1.92,1.92,0,0,0,1.125.547,1.127,1.127,0,0,0,.656-2.043Zm-4.034,9.928H11.264V12.39a2.253,2.253,0,0,0-4.505,0v3.379H4.505V5.729L9.011,2.511l4.505,3.218Z" transform="translate(0)"/></svg>