<svg xmlns="http://www.w3.org/2000/svg" width="21.975" height="20.95" viewBox="0 0 21.975 20.95"><defs><style>.a{fill:#119e58;}</style></defs><g transform="translate(-1680 -479.315)"><path class="a" d="M20.994,13.61h1.941v6.307a.97.97,0,1,1-1.941,0Zm2.425,6.307a.97.97,0,1,0,1.941,0V13.61H23.42Zm-3.083-8.926a.65.65,0,0,1,.293-1.206c.264-1.093.56-2.316.791-3.277H20.2a.654.654,0,0,0-.654.654v.608L18.2,9.151a.679.679,0,0,0,.262,1.118l1.092.375v.808a.654.654,0,0,0,.521.64C20.136,11.818,20.229,11.438,20.336,10.991ZM23.177,5.9A2.183,2.183,0,1,0,20.993,3.72,2.184,2.184,0,0,0,23.177,5.9Zm2.394,5.174a.65.65,0,0,1-.282-1.166c-.213-.876-.492-2.033-.858-3.553a3.43,3.43,0,0,0-1.254-.225h0a3.4,3.4,0,0,0-1.254.227c-.367,1.519-.647,2.675-.858,3.552a.649.649,0,0,1-.283,1.166c-.128.53-.214.883-.273,1.122v.926h5.336V12.2C25.786,11.964,25.7,11.609,25.57,11.078Zm2.589-1.927-1.183-1.2V7.162a.653.653,0,0,0-.652-.654H24.933l.791,3.277a.65.65,0,0,1,.293,1.206c.11.455.2.839.271,1.114h.037a.652.652,0,0,0,.652-.652v-.868l.919-.316a.678.678,0,0,0,.264-1.118Z" transform="translate(1662 479.377)"/><path class="a" d="M33.485,10.87a.652.652,0,0,0,.558.644L35.207,16.3h-7.14l1.166-4.788a.65.65,0,0,0,.287-1.173L30.382,6.8a3.59,3.59,0,0,1,2.511,0l.864,3.546A.648.648,0,0,0,33.485,10.87Zm-4.321-7.1a.87.87,0,0,0,.367-.173,2.182,2.182,0,1,0,.852-1.221c.231-.385.483-.711.858-.76a3.587,3.587,0,0,1,.781,0c.15-.413-.291-1.534-1.656-1.159a1.29,1.29,0,0,0-.99,1.812c.136.543-.069.883-.525.983s-.776-.4-.794-.658C27.749,2.925,28.2,3.955,29.164,3.765Zm-1.152,8.122a.65.65,0,0,0,.51.636l.269-1.1a.65.65,0,0,1,.293-1.2l.8-3.278H28.663a.653.653,0,0,0-.651.654v.608L26.656,9.585A.678.678,0,0,0,26.92,10.7l1.092.376Zm1.443,4.9v3.565a.97.97,0,1,0,1.941,0V16.787Zm7.165-7.2-1.183-1.2V7.6a.652.652,0,0,0-.652-.654H33.4l.8,3.278a.651.651,0,0,1,.293,1.2l.272,1.118h.027a.653.653,0,0,0,.652-.654V11.02l.919-.316a.679.679,0,0,0,.264-1.118ZM31.882,20.352h0a.97.97,0,1,0,1.941,0V16.787H31.882v3.565Z" transform="translate(1665.16 478.942)"/></g></svg>